<?xml version="1.0" encoding="utf-8"?>
<!-- Generator: Adobe Illustrator 15.0.0, SVG Export Plug-In . SVG Version: 6.00 Build 0)  -->
<!DOCTYPE svg PUBLIC "-//W3C//DTD SVG 1.1//EN" "http://www.w3.org/Graphics/SVG/1.1/DTD/svg11.dtd">
<svg version="1.1" id="Слой_1" xmlns="http://www.w3.org/2000/svg" xmlns:xlink="http://www.w3.org/1999/xlink" x="0px" y="0px"
	 width="16px" height="16px" viewBox="0 0 16 16" enable-background="new 0 0 16 16" xml:space="preserve">
<path fill="#95C11F" d="M13.118,3.446C10.419,0.62,5.939,0.516,3.113,3.216c-2.826,2.698-2.93,7.178-0.231,10.004
	c2.7,2.828,7.18,2.93,10.006,0.232C15.714,10.754,15.817,6.273,13.118,3.446z M8.715,11.857l-1.592-0.039
	c0,0,0.152-2.609,0.06-2.707c-0.09-0.094-2.706-0.063-2.706-0.063l0.036-1.594c0,0,2.593,0.172,2.707,0.064
	C7.333,7.41,7.282,4.81,7.282,4.81l1.594,0.036c0,0-0.142,2.625-0.062,2.708c0.081,0.084,2.708,0.063,2.708,0.063l-0.037,1.594
	c0,0-2.613-0.152-2.709-0.061C8.685,9.238,8.715,11.857,8.715,11.857z"/>
</svg>
