<?xml version="1.0" encoding="utf-8"?>
<!-- Generator: Adobe Illustrator 15.0.0, SVG Export Plug-In . SVG Version: 6.00 Build 0)  -->
<!DOCTYPE svg PUBLIC "-//W3C//DTD SVG 1.1//EN" "http://www.w3.org/Graphics/SVG/1.1/DTD/svg11.dtd">
<svg version="1.1" id="Слой_1" xmlns="http://www.w3.org/2000/svg" xmlns:xlink="http://www.w3.org/1999/xlink" x="0px" y="0px"
	 width="16px" height="16px" viewBox="0 0 16 16" enable-background="new 0 0 16 16" xml:space="preserve">
<g>
	<g>
		<path fill="#808184" d="M12.641,1.909H2.055c-0.975,0-1.764,0.798-1.764,1.782v7.126c0,0.984,0.79,1.782,1.764,1.782h10.586
			c0.974,0,1.765-0.798,1.765-1.782V3.691C14.405,2.708,13.614,1.909,12.641,1.909z M9.737,6.664l3.734-3.233
			c0.025,0.086,0.052,0.168,0.052,0.261v7.126c0,0.062-0.024,0.117-0.035,0.176L9.737,6.664z M12.641,2.8
			c0.058,0,0.109,0.022,0.166,0.035L7.348,7.559L1.89,2.835C1.944,2.823,1.997,2.8,2.055,2.8H12.641z M1.208,10.993
			c-0.012-0.06-0.035-0.114-0.035-0.176V3.691c0-0.092,0.026-0.175,0.052-0.261l3.733,3.232L1.208,10.993z M2.055,11.709
			c-0.089,0-0.17-0.027-0.251-0.052l3.825-4.414l1.433,1.238C7.143,8.557,7.246,8.59,7.348,8.59c0.102,0,0.204-0.033,0.286-0.108
			l1.434-1.238l3.824,4.414c-0.081,0.024-0.162,0.052-0.251,0.052H2.055z"/>
	</g>
	<g>
		<ellipse fill="#FFFFFF" cx="12.342" cy="10.887" rx="3.368" ry="2.944"/>
		<path fill="#36A9E1" d="M14.607,8.07c-1.52-1.59-4.042-1.648-5.634-0.129c-1.591,1.517-1.65,4.038-0.13,5.625
			c1.519,1.591,4.043,1.648,5.633,0.132C16.069,12.18,16.127,9.66,14.607,8.07z M12.587,12.802l-0.896-0.022
			c0,0,0.085-1.468,0.034-1.522c-0.052-0.053-1.524-0.036-1.524-0.036l0.02-0.896c0,0,1.461,0.097,1.525,0.036
			c0.063-0.062,0.035-1.524,0.035-1.524l0.897,0.021c0,0-0.08,1.476-0.035,1.523c0.046,0.048,1.525,0.036,1.525,0.036l-0.021,0.896
			c0,0-1.472-0.087-1.525-0.036C12.569,11.328,12.587,12.802,12.587,12.802z"/>
	</g>
</g>
</svg>
