<?xml version="1.0" encoding="utf-8"?>
<!-- Generator: Adobe Illustrator 15.0.0, SVG Export Plug-In . SVG Version: 6.00 Build 0)  -->
<!DOCTYPE svg PUBLIC "-//W3C//DTD SVG 1.1//EN" "http://www.w3.org/Graphics/SVG/1.1/DTD/svg11.dtd">
<svg version="1.1" id="Слой_1" xmlns="http://www.w3.org/2000/svg" xmlns:xlink="http://www.w3.org/1999/xlink" x="0px" y="0px"
	 width="16px" height="16px" viewBox="0 0 16 16" enable-background="new 0 0 16 16" xml:space="preserve">
<path fill="#F9B233" d="M15.049,5.069c-0.283-0.052-0.58-0.125-0.895-0.203c-0.325-0.082-0.66-0.165-0.999-0.227
	c-0.603-0.112-1.211-0.206-1.8-0.294c-0.165-0.026-0.329-0.05-0.495-0.075c-0.16-0.301-0.319-0.621-0.484-0.957
	C9.839,2.228,9.283,1.106,8.48,0.26C8.358,0.128,8.194,0.046,8.018,0.015C7.975,0.007,7.933,0.001,7.89,0
	C7.665-0.003,7.446,0.081,7.288,0.236C6.46,1.045,5.862,2.269,5.335,3.348c-0.172,0.353-0.337,0.693-0.5,0.998
	C4.697,4.367,4.516,4.387,4.342,4.404C4.132,4.423,3.93,4.44,3.822,4.449C3.662,4.461,3.539,4.472,3.484,4.48L3.127,4.528
	C2.3,4.638,1.444,4.752,0.599,4.984C0.486,5.015,0.384,5.068,0.295,5.141C0.214,5.206,0.145,5.288,0.095,5.38
	c-0.097,0.174-0.118,0.377-0.07,0.568c0.005,0.02,0.007,0.04,0.013,0.06C0.249,6.63,0.823,7.167,1.331,7.64
	c0.154,0.143,0.3,0.278,0.416,0.401c0.068,0.073,0.142,0.146,0.219,0.221c0.086,0.083,0.176,0.167,0.269,0.252
	c0.4,0.371,0.854,0.792,0.886,1.141c0.005,0.071,0.007,0.148,0.012,0.224c0,0.006,0,0.012,0,0.018
	c0.049,1.034-0.148,2.29-0.327,3.411l-0.065,0.406c-0.035,0.226,0.034,0.445,0.175,0.619c0.03,0.034,0.057,0.072,0.093,0.103
	c0.153,0.132,0.349,0.203,0.55,0.203c0.073,0,0.146-0.009,0.218-0.028c0.241-0.064,0.479-0.141,0.714-0.226
	c0.123-0.045,0.244-0.091,0.365-0.138c0.539-0.213,1.065-0.464,1.583-0.722c0.161-0.081,0.322-0.161,0.481-0.242
	c0.222-0.111,0.432-0.214,0.644-0.317c0.102-0.051,0.21-0.106,0.31-0.153l0.797,0.356c0.61,0.274,1.219,0.547,1.828,0.825
	c0.105,0.048,0.212,0.105,0.316,0.162c0.35,0.185,0.781,0.41,1.287,0.453c0.022,0.003,0.043,0.009,0.063,0.01
	c0.274,0.012,0.525-0.107,0.688-0.303c0.081-0.098,0.143-0.215,0.168-0.346c0.218-1.091-0.021-2.372-0.23-3.501
	c-0.055-0.293-0.105-0.572-0.147-0.837c-0.013-0.077-0.026-0.16-0.037-0.235c0.195-0.221,0.603-0.592,0.775-0.748
	c0.154-0.141,0.275-0.252,0.327-0.307c0.179-0.192,0.36-0.382,0.542-0.572c0.43-0.45,0.874-0.914,1.284-1.406
	c0.042-0.051,0.075-0.107,0.104-0.165c0.093-0.192,0.106-0.413,0.03-0.617C15.57,5.317,15.334,5.123,15.049,5.069z M6.132,5.391
	C6.37,4.976,6.592,4.52,6.828,4.038c0.304-0.624,0.616-1.254,0.956-1.795c0.025-0.04,0.051-0.085,0.076-0.125
	C8.233,2.69,8.563,3.358,8.888,4.011c0.23,0.466,0.469,0.946,0.719,1.38c0.121,0.213,0.337,0.361,0.586,0.401
	c0.303,0.048,0.605,0.094,0.91,0.141c0.574,0.086,1.168,0.176,1.738,0.283c0.174,0.034,0.349,0.073,0.529,0.114
	c-0.03,0.036-0.064,0.068-0.096,0.103c-0.077,0.08-0.155,0.162-0.232,0.243c-0.187,0.196-0.374,0.39-0.555,0.586
	c-0.041,0.041-0.126,0.118-0.233,0.214c-0.986,0.896-1.383,1.316-1.321,1.857c0.004,0.032,0.012,0.064,0.015,0.097
	c0.052,0.422,0.132,0.861,0.218,1.326c0.12,0.646,0.243,1.306,0.281,1.903c-0.068-0.035-0.133-0.066-0.2-0.099
	c-0.017-0.006-0.031-0.015-0.048-0.022c-0.611-0.277-1.223-0.553-1.836-0.828l-1.146-0.516c-0.111-0.05-0.23-0.074-0.348-0.074
	c-0.119,0-0.238,0.024-0.348,0.074c-0.403,0.182-0.811,0.386-1.211,0.588c-0.049,0.024-0.101,0.05-0.15,0.075
	c-0.465,0.234-0.939,0.47-1.41,0.681c-0.056,0.023-0.111,0.052-0.167,0.075c0.042-0.284,0.08-0.578,0.113-0.873
	c0.085-0.76,0.132-1.532,0.069-2.227C4.741,9.252,4.667,9.013,4.563,8.791c-0.273-0.586-0.767-1.049-1.189-1.44
	C3.227,7.216,3.086,7.086,2.966,6.958C2.829,6.811,2.656,6.65,2.474,6.479C2.407,6.417,2.333,6.348,2.257,6.276
	c0.357-0.058,0.72-0.107,1.095-0.157l0.136-0.018l0.222-0.029C3.753,6.066,3.842,6.061,3.955,6.05
	C4.02,6.045,4.073,6.04,4.134,6.035C5.39,5.932,5.877,5.838,6.132,5.391z"/>
<g>
	<ellipse fill="#FFFFFF" cx="10.208" cy="11.679" rx="2.992" ry="3.045"/>
	<path fill="#36A9E1" d="M13.327,8.488c-1.508-1.761-4.011-1.825-5.59-0.143c-1.579,1.681-1.638,4.472-0.129,6.231
		c1.508,1.763,4.012,1.826,5.591,0.146C14.778,13.042,14.837,10.25,13.327,8.488z M10.867,13.729l-0.889-0.023
		c0,0,0.085-1.628,0.033-1.687C9.96,11.96,8.5,11.979,8.5,11.979l0.02-0.992c0,0,1.448,0.106,1.512,0.041
		c0.065-0.069,0.036-1.689,0.036-1.689l0.89,0.023c0,0-0.078,1.634-0.034,1.687c0.045,0.053,1.514,0.039,1.514,0.039l-0.021,0.993
		c0,0-1.461-0.096-1.515-0.037C10.852,12.098,10.867,13.729,10.867,13.729z"/>
</g>
</svg>
