<?xml version="1.0" encoding="utf-8"?>
<!-- Generator: Adobe Illustrator 15.0.0, SVG Export Plug-In . SVG Version: 6.00 Build 0)  -->
<!DOCTYPE svg PUBLIC "-//W3C//DTD SVG 1.1//EN" "http://www.w3.org/Graphics/SVG/1.1/DTD/svg11.dtd">
<svg version="1.1" id="Слой_1" xmlns="http://www.w3.org/2000/svg" xmlns:xlink="http://www.w3.org/1999/xlink" x="0px" y="0px"
	 width="16px" height="16px" viewBox="0 0 16 16" enable-background="new 0 0 16 16" xml:space="preserve">
<g>
	<g>
		<path fill="#95C11F" d="M3.846,7.885c1.418,0,2.572-1.175,2.572-2.619c0-1.447-1.153-2.62-2.572-2.62s-2.573,1.173-2.573,2.62
			C1.273,6.71,2.427,7.885,3.846,7.885z"/>
		<path fill="#95C11F" d="M4.97,3.617c0.085,0.598,0.525,1.447,0.974,1.867C5.848,6.577,4.947,7.437,3.85,7.437
			c-1.566,0-2.058-1.406-2.103-2.172c0.003-0.275,0.058-0.538,0.155-0.778C2.481,4.433,4.861,3.947,4.97,3.617z"/>
		<path fill="#95C11F" d="M5.783,7.436C5.272,7.909,4.599,8.199,3.859,8.205V8.203c-0.006,0-0.011,0.002-0.016,0.002
			c-0.005,0-0.009-0.002-0.015-0.002v0.002C3.087,8.199,2.414,7.909,1.905,7.436C0.972,7.613,0.266,8.444,0.266,9.445v2.273h3.563
			h0.031h3.562V9.445C7.421,8.444,6.715,7.613,5.783,7.436z"/>
	</g>
	<g>
		<path fill="#95C11F" d="M12.16,7.71c1.418,0,2.57-1.175,2.57-2.619c0-1.447-1.152-2.62-2.57-2.62c-1.42,0-2.574,1.173-2.574,2.62
			C9.586,6.536,10.74,7.71,12.16,7.71z"/>
		<path fill="#95C11F" d="M13.283,3.443c0.086,0.598,0.525,1.446,0.975,1.867c-0.096,1.093-0.996,1.953-2.094,1.953
			c-1.566,0-2.059-1.406-2.104-2.172c0.004-0.274,0.059-0.538,0.156-0.779C10.795,4.259,13.176,3.772,13.283,3.443z"/>
		<path fill="#95C11F" d="M14.096,7.261c-0.51,0.473-1.182,0.763-1.922,0.769V8.028c-0.006,0-0.012,0.002-0.018,0.002
			c-0.004,0-0.008-0.002-0.014-0.002V8.03c-0.742-0.006-1.414-0.296-1.924-0.769C9.285,7.438,8.58,8.27,8.58,9.271v2.271h3.563
			h0.031h3.561V9.271C15.734,8.27,15.029,7.438,14.096,7.261z"/>
	</g>
	<path fill="#36A9E1" d="M8.386,9.365c2.079,0,3.772-2.034,3.772-4.535c0-2.504-1.693-4.537-3.772-4.537
		c-2.081,0-3.772,2.033-3.772,4.537C4.613,7.331,6.305,9.365,8.386,9.365z"/>
	<path fill="#FFFFFF" d="M10.033,1.975c0.125,1.036,0.77,2.505,1.43,3.231C11.322,7.099,10,8.589,8.392,8.589
		c-2.296,0-3.017-2.435-3.083-3.762c0.005-0.475,0.085-0.93,0.227-1.347C6.385,3.389,9.875,2.546,10.033,1.975z"/>
	<path fill="#36A9E1" d="M11.227,8.588c-0.75,0.816-1.736,1.319-2.821,1.329V9.914c-0.009,0-0.016,0.003-0.024,0.003
		c-0.006,0-0.013-0.003-0.021-0.003v0.003C7.273,9.907,6.286,9.404,5.54,8.588c-1.368,0.307-2.404,1.745-2.404,3.477V16h5.225h0.045
		h5.223v-3.936C13.629,10.333,12.592,8.895,11.227,8.588z"/>
</g>
<g>
	<path fill="#808184" stroke="#FFFFFF" stroke-width="0.5" stroke-miterlimit="10" d="M15.439,5.212
		c0.483,0.622,0.662,1.537,0.464,2.38l-0.694,0.89l-2.315-2.972l0.695-0.891C14.242,4.364,14.955,4.592,15.439,5.212z"/>
	<polygon fill="#808184" stroke="#FFFFFF" stroke-width="0.5" stroke-miterlimit="10" points="14.959,7.929 11.113,12.863 
		7.984,14.638 9.367,10.62 13.211,5.685 	"/>
</g>
</svg>
