<?xml version="1.0" encoding="UTF-8" standalone="no"?>
<svg
   xmlns:dc="http://purl.org/dc/elements/1.1/"
   xmlns:cc="http://creativecommons.org/ns#"
   xmlns:rdf="http://www.w3.org/1999/02/22-rdf-syntax-ns#"
   xmlns:svg="http://www.w3.org/2000/svg"
   xmlns="http://www.w3.org/2000/svg"
   xml:space="preserve"
   width="16px"
   viewBox="0 0 16 16"
   version="1.1"
   height="16px"
   enable-background="new 0 0 16 16"><g
     transform="matrix(0.01562121,0,0,0.01562121,0.08151437,-0.07262689)" ><path
       style="clip-rule:evenodd;fill-rule:evenodd"
       d="m 489.028,894.348 c -53.209,0 -106.421,0.177 -159.629,-0.033 C 164.679,893.662 26.873,773.905 3.324,611.116 -23.062,428.712 110.749,257.094 294.042,239.15 c 22.879,-2.238 46.171,0.002 69.229,-0.925 5.685,-0.231 12.21,-3.597 16.634,-7.475 44.217,-38.789 93.64,-68.132 150.188,-85.227 227.256,-68.699 462.764,84.375 491.074,319.295 24.412,202.59 -111.439,387.606 -312.01,423.869 -23.424,4.236 -47.605,5.431 -71.475,5.847 -49.539,0.866 -99.102,0.262 -148.654,0.262 10e-4,-0.15 10e-4,-0.301 0,-0.448 z M 516.32,324.143 c 2.473,-1.458 5.6,-3.283 8.711,-5.141 83.592,-49.897 189.756,-40.774 263.33,22.636 73.303,63.177 97.754,167.337 60.371,257.158 -60.641,145.697 -249.74,185.251 -363.604,75.52 -46.476,-44.788 -91.434,-91.146 -137.194,-136.676 -16.05,-15.974 -35.528,-16.918 -49.649,-2.848 -14.17,14.115 -13.314,33.658 2.577,49.591 45.299,45.418 90.086,91.37 136.252,135.895 66.857,64.472 147.545,92.054 239.565,80.805 C 839.271,781.209 951.611,633.77 929.472,471.877 899.451,252.355 641.951,145.511 465.403,279.338 c -3.386,2.567 -6.573,5.397 -9.879,8.128 20.563,12.407 39.916,24.08 60.796,36.677 z m -84.99,479.064 c -16.362,-14.912 -31.247,-25.889 -42.833,-39.637 -17.778,-21.098 -38.1,-32.676 -66.153,-27.414 -0.781,0.146 -1.62,-0.012 -2.432,-0.04 -97.095,-3.561 -175.117,-96.749 -160.236,-192.508 10.792,-69.443 49.669,-118.041 116.361,-139.937 66.61,-21.867 126.573,-6.012 176.852,43.332 30.996,30.42 61.379,61.462 92.278,91.979 14.371,14.196 34.627,14.375 47.91,1.115 13.289,-13.269 13.152,-33.429 -1.113,-47.832 C 559.112,459.103 526.728,425.427 492.725,393.479 436.22,340.392 368.657,319.904 292.051,331.537 185.533,347.713 100.931,439.042 92.792,542.879 c -9.95,126.938 73.34,221.847 168.19,249.874 55.074,16.273 111.225,6.756 170.348,10.454 z" /></g></svg>