<?xml version="1.0" encoding="UTF-8" standalone="no"?>
<svg
   xmlns:dc="http://purl.org/dc/elements/1.1/"
   xmlns:cc="http://creativecommons.org/ns#"
   xmlns:rdf="http://www.w3.org/1999/02/22-rdf-syntax-ns#"
   xmlns:svg="http://www.w3.org/2000/svg"
   xmlns="http://www.w3.org/2000/svg"
   version="1.1"
   viewBox="0 0 16 16"
   style="shape-rendering:geometricPrecision; text-rendering:geometricPrecision; image-rendering:optimizeQuality; fill-rule:evenodd; clip-rule:evenodd"
   height="16px"
   width="16px"
   xml:space="preserve"><g
     transform="matrix(0.4886939,0,0,0.4886939,-54.204568,-6.481192)"><path
       style="fill:#878787"
       d="m 124.334,18.0724 c -1.2278,-2.9164 1.083,-4.8364 3.0043,-4.7852 3.2945,0.0878 3.8615,3.1896 3.142,4.705 5.4912,1.6338 6.1372,6.5621 7.1027,13.2415 0.3123,2.1602 0.7248,2.7694 3.4705,5.2932 1.0627,1.0096 1.1731,4.4232 -0.2048,4.9613 -3.1675,0 -6.0614,0 -9.229,0 -0.1106,3.2969 -2.7221,4.4495 -4.221,4.4257 -1.5029,0.026 -4.3196,-1.3886 -4.338,-4.4257 l -9.0905,0 c -1.7837,-1.1018 -1.1697,-4.3895 -0.009,-5.2299 4.4863,-3.0458 3.0779,-8.4732 4.4992,-12.0105 1.1802,-3.32 2.3622,-4.863 5.8739,-6.1754 z m 0.7946,2.6324 c 1.3256,-0.4608 2.9367,-0.3693 4.4956,0.0377 4.1533,1.396 3.914,5.7907 4.7267,9.6125 0.3042,1.5837 0.3236,2.758 1.4724,4.8275 0.8716,1.3138 2.6415,1.9897 2.66,3.6171 -7.3213,0 -15.0916,-0.1093 -22.4273,-0.1093 0.0591,-1.5718 1.5082,-1.8611 2.4138,-3.0773 1.8262,-2.0882 2.2197,-8.6419 2.7925,-10.5212 0.618,-1.9816 1.1476,-3.2731 3.8663,-4.387 z m 0.3211,20.7963 c 1.3512,0 2.5525,0 3.9038,0 -0.095,1.3996 -1.0438,2.055 -1.9376,2.055 -1.2921,-0.0812 -1.8957,-0.8873 -1.9662,-2.055 z m 1.9357,-26.0115 c 0.6364,0 1.1525,0.5161 1.1525,1.1524 0,0.6365 -0.5161,1.1525 -1.1525,1.1525 -0.6364,0 -1.1524,-0.516 -1.1524,-1.1525 0,-0.6363 0.516,-1.1524 1.1524,-1.1524 z" /></g></svg>