<?xml version="1.0" encoding="UTF-8" standalone="no"?>
<svg
   xmlns:dc="http://purl.org/dc/elements/1.1/"
   xmlns:cc="http://creativecommons.org/ns#"
   xmlns:rdf="http://www.w3.org/1999/02/22-rdf-syntax-ns#"
   xmlns:svg="http://www.w3.org/2000/svg"
   xmlns="http://www.w3.org/2000/svg"
   xmlns:xlink="http://www.w3.org/1999/xlink"
   width="16"
   height="16"
   viewBox="0 0 16 16"
   id="svg4245"
   version="1.1">
  <defs
     id="defs4247">
    <linearGradient
       gradientTransform="matrix(0.17408756,0,0,0.17408756,-94.392584,-19.326039)"
       xlink:href="#linearGradient5793"
       id="linearGradient5799"
       x1="627.31085"
       y1="939.97363"
       x2="1173.0133"
       y2="831.24347"
       gradientUnits="userSpaceOnUse" />
    <linearGradient
       id="linearGradient5793">
      <stop
         style="stop-color:#2b7a77;stop-opacity:1"
         offset="0"
         id="stop5795" />
      <stop
         id="stop5801"
         offset="0.51048726"
         style="stop-color:#4ebaa9;stop-opacity:1" />
      <stop
         style="stop-color:#5cc2b1;stop-opacity:1"
         offset="1"
         id="stop5797" />
    </linearGradient>
    <linearGradient
       gradientTransform="matrix(0.17408756,0,0,0.17408756,-94.392584,-19.326039)"
       xlink:href="#linearGradient5803"
       id="linearGradient5809"
       x1="1012.9952"
       y1="117.31702"
       x2="1410.9888"
       y2="1065.116"
       gradientUnits="userSpaceOnUse" />
    <linearGradient
       id="linearGradient5803">
      <stop
         style="stop-color:#29a5e3;stop-opacity:1"
         offset="0"
         id="stop5805" />
      <stop
         id="stop5811"
         offset="0.51549304"
         style="stop-color:#356eb9;stop-opacity:1" />
      <stop
         style="stop-color:#394da5;stop-opacity:1"
         offset="1"
         id="stop5807" />
    </linearGradient>
    <linearGradient
       gradientTransform="matrix(0.17408756,0,0,0.17408756,-94.392584,-19.326039)"
       xlink:href="#linearGradient5783"
       id="linearGradient5789"
       x1="908.3681"
       y1="189.11996"
       x2="637.56842"
       y2="825.08893"
       gradientUnits="userSpaceOnUse" />
    <linearGradient
       id="linearGradient5783">
      <stop
         style="stop-color:#236736;stop-opacity:1"
         offset="0"
         id="stop5785" />
      <stop
         id="stop5791"
         offset="0.49279997"
         style="stop-color:#6ba443;stop-opacity:1" />
      <stop
         style="stop-color:#86c146;stop-opacity:1"
         offset="1"
         id="stop5787" />
    </linearGradient>
  </defs>
  <metadata
     id="metadata4250">
    <rdf:RDF>
      <cc:Work
         rdf:about="">
        <dc:format>image/svg+xml</dc:format>
        <dc:type
           rdf:resource="http://purl.org/dc/dcmitype/StillImage" />
        <dc:title></dc:title>
      </cc:Work>
    </rdf:RDF>
  </metadata>
  <g
     transform="matrix(0.09173135,0,0,0.09173135,-0.03409125,0.32612493)"
     id="layer1">
    <path
       id="path4460"
       d="m 33.256162,166.66884 c -4.726309,0 -7.182392,-1.7828 -9.540135,-5.92413 L 2.1793836,120.82154 c -1.48414497,-2.86106 -1.50780197,-3.81397 -1.50780197,-5.87538 l 33.84767537,1.4921 7.746897,7.74691 67.894146,0 -56.373068,34.9219 c -2.747765,1.62507 -13.198427,7.56177 -20.53107,7.56177 z"
       style="fill:url(#linearGradient5799);fill-opacity:1;stroke:none" />
    <path
       id="path4458"
       d="m 42.297241,124.18517 -29.277798,0 c -8.8429063,0 -12.34786137,-4.6252 -12.34786137,-9.23901 0,-2.9195 0.93944197,-4.51161 2.23834797,-7.7563 L 45.576946,5.3331465 l 0.458515,-0.893802 0.590655,-0.917069 1.227939,-1.196852 1.803049,-0.9637 2.611313,-0.57510996 4.492081,0.116578 L 86.40978,11.923556 76.384208,43.539099 Z"
       style="fill:url(#linearGradient5789);fill-opacity:1;stroke:none" />
    <path
       id="path4456"
       d="M 128.26542,166.66254 60.918393,7.2294075 c -1.160005,-2.714744 -3.019843,-6.217412 -7.83394,-6.217412 -4.301321,0 -6.350368,2.082723 -7.507507,4.321151 0.598335,-1.614249 2.408954,-4.75015296 7.656724,-4.75015296 l 46.481379,0 c 4.283511,0 6.338391,2.52216896 7.274841,4.83140196 L 175.09497,166.66254 Z"
       style="fill:url(#linearGradient5809);fill-opacity:1;fill-rule:evenodd;stroke:none" />
  </g>
</svg>
