<?xml version="1.0" encoding="utf-8"?>
<!-- Generator: Adobe Illustrator 15.0.0, SVG Export Plug-In . SVG Version: 6.00 Build 0)  -->
<!DOCTYPE svg PUBLIC "-//W3C//DTD SVG 1.1//EN" "http://www.w3.org/Graphics/SVG/1.1/DTD/svg11.dtd">
<svg version="1.1" id="Слой_1" xmlns="http://www.w3.org/2000/svg" xmlns:xlink="http://www.w3.org/1999/xlink" x="0px" y="0px"
	 width="16px" height="16px" viewBox="0 0 16 16" enable-background="new 0 0 16 16" xml:space="preserve">
<g>
	<g>
		<rect x="-0.035" fill="#36A9E1" width="15.999" height="16"/>
		<rect x="0.94" y="0.975" fill="#FFFFFF" width="14.047" height="14.049"/>
	</g>
	<rect x="-0.035" fill="#1D71B8" width="1" height="1"/>
	<rect x="14.965" fill="#1D71B8" width="0.999" height="1"/>
	<rect x="14.965" y="15" fill="#1D71B8" width="0.999" height="1"/>
	<rect x="-0.035" y="15" fill="#1D71B8" width="1" height="1"/>
	<rect x="0.94" y="14.023" fill="#7CCDED" width="1" height="1.001"/>
	<rect x="0.94" y="0.958" fill="#7CCDED" width="1" height="1"/>
	<rect x="13.981" y="14.041" fill="#7CCDED" width="0.999" height="0.999"/>
	<rect x="13.988" y="3.697" fill="#7CCDED" width="0.999" height="1"/>
	<polygon fill="#36A9E1" points="14.987,3.697 11.388,3.697 8.006,0.958 14.987,0.958 	"/>
	<polygon fill="#7CCDED" points="14.237,2.828 11.755,2.828 10.549,1.827 14.237,1.827 	"/>
	<g>
		<path fill="#1D71B8" d="M4.813,3.705h1.945v3.572h0.026c0.371-0.538,1.024-0.883,1.894-0.883c1.498,0,2.586,1.242,2.574,3.163
			c0,2.252-1.421,3.379-2.855,3.379c-0.729,0-1.447-0.269-1.882-1.012H6.489l-0.077,0.871H4.761c0.025-0.41,0.051-1.165,0.051-1.869
			V3.705z M6.758,10.132c0,0.128,0.013,0.243,0.039,0.346c0.128,0.512,0.576,0.921,1.139,0.921c0.833,0,1.345-0.641,1.345-1.767
			c0-0.973-0.436-1.741-1.345-1.741c-0.525,0-1.011,0.397-1.139,0.96c-0.026,0.115-0.039,0.23-0.039,0.358V10.132z"/>
	</g>
</g>
</svg>
