<?xml version="1.0" encoding="utf-8"?>
<!-- Generator: Adobe Illustrator 15.0.0, SVG Export Plug-In . SVG Version: 6.00 Build 0)  -->
<!DOCTYPE svg PUBLIC "-//W3C//DTD SVG 1.1//EN" "http://www.w3.org/Graphics/SVG/1.1/DTD/svg11.dtd">
<svg version="1.1" id="Слой_1" xmlns="http://www.w3.org/2000/svg" xmlns:xlink="http://www.w3.org/1999/xlink" x="0px" y="0px"
	 width="16px" height="16px" viewBox="0 0 16 16" enable-background="new 0 0 16 16" xml:space="preserve">
<path fill="#808184" d="M12.039,7.315c0.129,0,0.258-0.031,0.377-0.098c0.256-0.142,0.4-0.405,0.402-0.677
	c0-0.13-0.031-0.261-0.098-0.381L9.893,1.244C9.752,0.987,9.484,0.843,9.209,0.843c-0.127,0-0.255,0.031-0.375,0.096
	C8.577,1.082,8.432,1.346,8.43,1.619c0,0.129,0.031,0.26,0.098,0.38l2.83,4.915C11.5,7.17,11.766,7.315,12.039,7.315z"/>
<path fill="#808184" d="M3.578,7.218c0.12,0.066,0.249,0.098,0.376,0.098c0.275,0,0.542-0.146,0.683-0.401l2.829-4.916
	c0.066-0.12,0.098-0.25,0.098-0.38c-0.002-0.272-0.147-0.537-0.403-0.68C7.042,0.874,6.912,0.843,6.784,0.843
	c-0.275,0-0.541,0.145-0.682,0.401l-2.83,4.915C3.206,6.28,3.175,6.41,3.176,6.54C3.178,6.813,3.322,7.076,3.578,7.218z"/>
<path fill="#95C11F" d="M15.264,6.217h-1.77c0.137,0.629-0.139,1.302-0.732,1.631c-0.221,0.122-0.471,0.187-0.723,0.187
	c-0.543,0-1.045-0.296-1.311-0.773c0.006,0.012-0.602-1.044-0.602-1.044h-4.26L5.264,7.264C4.996,7.74,4.496,8.034,3.954,8.034
	c-0.251,0-0.502-0.065-0.722-0.187c-0.35-0.194-0.604-0.514-0.715-0.896C2.446,6.708,2.446,6.456,2.5,6.216H0.736
	c-0.431,0-0.782,0.35-0.782,0.782c0,0.431,0.351,0.781,0.782,0.781h0.251c0.005,0.035,0.007,0.07,0.018,0.107l1.545,5.809
	c0.13,0.488,0.651,0.89,1.158,0.89h0.27c0,0,0,0.128,0,0.286c0,0.157,0.165,0.285,0.368,0.285h2.068
	c0.203,0,0.368-0.128,0.368-0.285v-0.286h2.665c0,0,0,0.128,0,0.286c0,0.157,0.166,0.285,0.367,0.285h2.068
	c0.203,0,0.367-0.128,0.367-0.285v-0.286h0.043c0.508,0,1.029-0.401,1.16-0.89l1.545-5.809c0.008-0.036,0.012-0.072,0.016-0.107
	h0.252c0.432,0,0.781-0.351,0.781-0.781C16.047,6.565,15.697,6.217,15.264,6.217z M4.725,12.991c0,0.245-0.199,0.444-0.443,0.444
	c-0.246,0-0.444-0.199-0.444-0.444V9.62c0-0.245,0.199-0.443,0.444-0.443c0.244,0,0.443,0.198,0.443,0.443V12.991z M7.205,12.991
	c0,0.245-0.199,0.444-0.444,0.444c-0.245,0-0.443-0.199-0.443-0.444V9.62c0-0.245,0.199-0.443,0.443-0.443
	c0.246,0,0.444,0.198,0.444,0.443V12.991z M9.684,12.991c0,0.245-0.199,0.444-0.443,0.444c-0.246,0-0.445-0.199-0.445-0.444V9.62
	c0-0.245,0.199-0.443,0.445-0.443c0.244,0,0.443,0.198,0.443,0.443V12.991z M12.164,12.991c0,0.245-0.199,0.444-0.445,0.444
	c-0.244,0-0.443-0.199-0.443-0.444V9.62c0-0.245,0.199-0.443,0.443-0.443c0.246,0,0.445,0.198,0.445,0.443V12.991z"/>
</svg>
