<?xml version="1.0" encoding="utf-8"?>
<!-- Generator: Adobe Illustrator 15.0.0, SVG Export Plug-In . SVG Version: 6.00 Build 0)  -->
<!DOCTYPE svg PUBLIC "-//W3C//DTD SVG 1.1//EN" "http://www.w3.org/Graphics/SVG/1.1/DTD/svg11.dtd">
<svg version="1.1" id="Слой_1" xmlns="http://www.w3.org/2000/svg" xmlns:xlink="http://www.w3.org/1999/xlink" x="0px" y="0px"
	 width="16px" height="16px" viewBox="0 0 16 16" enable-background="new 0 0 16 16" xml:space="preserve">
<g>
	<g>
		<path fill="#808184" stroke="#878787" stroke-width="0.5" stroke-miterlimit="10" d="M8.891,14.105
			c-1.01,0.496-2.039,0.684-3.271,0.684c-3.014,0-5.568-2.055-5.568-5.355c0-3.526,2.629-6.589,6.708-6.589
			c3.197,0,5.33,2.104,5.33,4.963c0,2.566-1.543,4.074-3.254,4.074c-0.735,0-1.415-0.445-1.378-1.508H7.402
			c-0.643,1.012-1.487,1.508-2.592,1.508c-1.064,0-1.983-0.805-1.983-2.156c0-2.124,1.8-4.057,4.355-4.057
			c0.771,0,1.488,0.154,1.966,0.359L8.523,9.125c-0.275,1.301-0.056,1.898,0.553,1.916c0.936,0.035,1.982-1.146,1.982-3.114
			c0-2.499-1.598-4.295-4.446-4.295c-2.995,0-5.514,2.224-5.514,5.698c0,2.857,2.004,4.639,4.724,4.639
			c1.047,0,2.021-0.207,2.774-0.6L8.891,14.105z M7.881,6.711C7.696,6.643,7.384,6.575,6.962,6.575
			c-1.617,0-2.922,1.421-2.922,3.082c0,0.752,0.404,1.299,1.213,1.299c1.065,0,2.039-1.266,2.242-2.327L7.881,6.711z"/>
	</g>
	<g>
		<path fill="#808184" stroke="#FFFFFF" stroke-width="0.25" stroke-miterlimit="10" d="M15.592,1.736
			c0.318,0.468,0.436,1.156,0.305,1.789l-0.459,0.67l-1.529-2.235l0.459-0.671C14.801,1.096,15.27,1.268,15.592,1.736z"/>
		<polygon fill="#95C11F" stroke="#FFFFFF" stroke-width="0.25" stroke-miterlimit="10" points="15.133,4.642 11.768,9.559 
			9.029,11.326 10.238,7.323 13.604,2.407 		"/>
	</g>
</g>
</svg>
