<?xml version="1.0" encoding="utf-8"?>
<!-- Generator: Adobe Illustrator 15.0.0, SVG Export Plug-In . SVG Version: 6.00 Build 0)  -->
<!DOCTYPE svg PUBLIC "-//W3C//DTD SVG 1.1//EN" "http://www.w3.org/Graphics/SVG/1.1/DTD/svg11.dtd">
<svg version="1.1" id="Слой_1" xmlns="http://www.w3.org/2000/svg" xmlns:xlink="http://www.w3.org/1999/xlink" x="0px" y="0px"
	 width="16px" height="16px" viewBox="0 0 16 16" enable-background="new 0 0 16 16" xml:space="preserve">
<g>
	<g>
		<path fill="#808184" d="M14.097,3.223l-2.118-2.178c-0.462-0.474-1.373-0.863-2.025-0.863H2.834c-0.652,0-1.187,0.549-1.187,1.22
			v13.169c0,0.671,0.534,1.22,1.187,1.22h10.917c0.651,0,1.186-0.549,1.186-1.22V5.304C14.937,4.633,14.559,3.697,14.097,3.223z
			 M13.427,3.912c0.045,0.048,0.092,0.108,0.137,0.172H11.14V1.594c0.064,0.046,0.123,0.093,0.167,0.142L13.427,3.912z
			 M13.987,14.572c0,0.133-0.109,0.243-0.236,0.243H2.834c-0.128,0-0.238-0.11-0.238-0.243V1.403c0-0.133,0.109-0.245,0.238-0.245
			h7.119c0.071,0,0.152,0.01,0.236,0.026v3.876h3.772c0.017,0.087,0.025,0.17,0.025,0.244V14.572z"/>
	</g>
	<path fill="#95C11F" stroke="#FFFFFF" stroke-width="0.5" stroke-miterlimit="10" d="M10.587,14.132l-4.11-5.153
		c0,0-1.85,1.765-2.694,1.332c-0.554-0.282-0.341-3.112-0.341-3.112s0.355-3.232,0.851-3.655c0.447-0.383,2.894-0.203,2.894-0.203
		s3.568,0.259,3.673,1.062c0.114,0.858-1.792,2.372-1.792,2.372l4.108,5.153c0,0,0.134,0.802-0.799,1.597
		C11.559,14.221,10.587,14.132,10.587,14.132z"/>
</g>
</svg>
