<?xml version="1.0" encoding="utf-8"?>
<!-- Generator: Adobe Illustrator 15.0.0, SVG Export Plug-In . SVG Version: 6.00 Build 0)  -->
<!DOCTYPE svg PUBLIC "-//W3C//DTD SVG 1.1//EN" "http://www.w3.org/Graphics/SVG/1.1/DTD/svg11.dtd">
<svg version="1.1" id="Слой_1" xmlns="http://www.w3.org/2000/svg" xmlns:xlink="http://www.w3.org/1999/xlink" x="0px" y="0px"
	 width="16px" height="16px" viewBox="0 0 16 16" enable-background="new 0 0 16 16" xml:space="preserve">
<g>
	<g>
		<path fill="#808184" d="M13.667,3.35l-2.068-2.125c-0.45-0.463-1.341-0.842-1.977-0.842h-6.95c-0.636,0-1.157,0.536-1.157,1.191
			v12.856c0,0.654,0.521,1.19,1.157,1.19h10.656c0.637,0,1.157-0.536,1.157-1.19V5.381C14.485,4.727,14.117,3.812,13.667,3.35z
			 M13.012,4.022c0.045,0.047,0.091,0.105,0.135,0.168H10.78V1.759c0.063,0.045,0.118,0.091,0.163,0.139L13.012,4.022z
			 M13.56,14.429c0,0.129-0.106,0.237-0.231,0.237H2.672c-0.124,0-0.23-0.108-0.23-0.237V1.573c0-0.129,0.106-0.238,0.23-0.238h6.95
			c0.069,0,0.147,0.009,0.231,0.025v3.784h3.681c0.017,0.085,0.025,0.167,0.025,0.238V14.429z"/>
	</g>
	<path fill="#95C11F" stroke="#FFFFFF" stroke-width="0.5" stroke-miterlimit="10" d="M3.254,5.652l4.357,4.58
		c0,0-1.846,1.677-1.533,2.56c0.203,0.578,2.862,0.632,2.862,0.632s3.051-0.05,3.5-0.503c0.403-0.41,0.503-2.864,0.503-2.864
		s0.145-3.579-0.593-3.76c-0.787-0.195-2.404,1.563-2.404,1.563L5.589,3.28c0,0-0.731-0.208-1.575,0.646
		C3.277,4.676,3.254,5.652,3.254,5.652z"/>
</g>
</svg>
