<?xml version="1.0" encoding="utf-8"?>
<!-- Generator: Adobe Illustrator 15.0.0, SVG Export Plug-In . SVG Version: 6.00 Build 0)  -->
<!DOCTYPE svg PUBLIC "-//W3C//DTD SVG 1.1//EN" "http://www.w3.org/Graphics/SVG/1.1/DTD/svg11.dtd">
<svg version="1.1" id="Слой_1" xmlns="http://www.w3.org/2000/svg" xmlns:xlink="http://www.w3.org/1999/xlink" x="0px" y="0px"
	 width="16px" height="16px" viewBox="0 0 16 16" enable-background="new 0 0 16 16" xml:space="preserve">
<path fill="none" stroke="#878787" stroke-miterlimit="10" d="M13.305,6.86c-0.047-2.621-1.555-4.726-3.408-4.726
	c-1.086,0-2.051,0.723-2.677,1.848C6.87,3.338,6.322,2.925,5.706,2.925c-1.057,0-1.915,1.219-1.915,2.723
	c0,0.13,0.007,0.259,0.019,0.386C3.649,5.992,3.484,5.969,3.315,5.969c-1.533,0-2.775,1.769-2.775,3.95s1.242,3.948,2.775,3.948
	h1.429h6.262h1.711l0,0c1.377-0.004,2.492-1.593,2.492-3.553C15.209,8.641,14.396,7.24,13.305,6.86z"/>
</svg>
