<?xml version="1.0" encoding="utf-8"?>
<!-- Generator: Adobe Illustrator 15.0.0, SVG Export Plug-In . SVG Version: 6.00 Build 0)  -->
<!DOCTYPE svg PUBLIC "-//W3C//DTD SVG 1.1//EN" "http://www.w3.org/Graphics/SVG/1.1/DTD/svg11.dtd">
<svg version="1.1" id="Слой_1" xmlns="http://www.w3.org/2000/svg" xmlns:xlink="http://www.w3.org/1999/xlink" x="0px" y="0px"
	 width="16px" height="16px" viewBox="0 0 16 16" enable-background="new 0 0 16 16" xml:space="preserve">
<g>
	<g>
		<g>
			<path fill="#808184" d="M14.945,2.879L12.85,1.03c-0.457-0.402-1.359-0.732-2.004-0.732H3.804c-0.645,0-1.173,0.466-1.173,1.036
				v11.183c0,0.568,0.528,1.035,1.173,1.035h10.798c0.645,0,1.174-0.467,1.174-1.035v-7.87C15.775,4.077,15.4,3.282,14.945,2.879z
				 M14.281,3.464c0.045,0.041,0.092,0.091,0.137,0.146H12.02V1.496c0.063,0.04,0.119,0.08,0.166,0.12L14.281,3.464z M14.836,12.517
				c0,0.111-0.107,0.207-0.234,0.207H3.804c-0.127,0-0.235-0.096-0.235-0.207V1.333c0-0.112,0.108-0.208,0.235-0.208h7.042
				c0.07,0,0.15,0.008,0.234,0.022v3.292h3.73c0.016,0.074,0.025,0.145,0.025,0.207V12.517z"/>
		</g>
		<rect x="5.034" y="6.521" fill="#808184" width="8.335" height="0.808"/>
		<rect x="5.034" y="9.074" fill="#808184" width="8.335" height="0.808"/>
	</g>
	<g>
		<path fill="#808184" d="M12.541,5.03l-2.098-1.849C9.988,2.778,9.086,2.449,8.441,2.449H1.399c-0.646,0-1.174,0.466-1.174,1.035
			v11.183c0,0.568,0.528,1.035,1.174,1.035h10.798c0.645,0,1.172-0.467,1.172-1.035v-7.87C13.369,6.227,12.996,5.433,12.541,5.03z"
			/>
		<path fill="#FFFFFF" d="M11.877,5.615c0.045,0.041,0.09,0.09,0.137,0.146H9.615V3.646c0.063,0.039,0.119,0.08,0.164,0.12
			L11.877,5.615z"/>
		<path fill="#FFFFFF" d="M12.432,14.667c0,0.111-0.107,0.207-0.234,0.207H1.399c-0.127,0-0.235-0.096-0.235-0.207V3.484
			c0-0.112,0.108-0.207,0.235-0.207h7.042c0.071,0,0.15,0.008,0.235,0.022V6.59h3.73c0.016,0.074,0.025,0.145,0.025,0.207V14.667z"
			/>
		<rect x="2.63" y="8.672" fill="#808184" width="8.336" height="0.807"/>
		<rect x="2.63" y="11.226" fill="#808184" width="8.336" height="0.809"/>
	</g>
</g>
</svg>
