<?xml version="1.0" encoding="utf-8"?>
<!-- Generator: Adobe Illustrator 15.0.0, SVG Export Plug-In . SVG Version: 6.00 Build 0)  -->
<!DOCTYPE svg PUBLIC "-//W3C//DTD SVG 1.1//EN" "http://www.w3.org/Graphics/SVG/1.1/DTD/svg11.dtd">
<svg version="1.1" id="Слой_1" xmlns="http://www.w3.org/2000/svg" xmlns:xlink="http://www.w3.org/1999/xlink" x="0px" y="0px"
	 width="16px" height="16px" viewBox="0 0 16 16" enable-background="new 0 0 16 16" xml:space="preserve">
<path fill="#F9B233" d="M15.684,7.461l-0.229,7.508c-0.179,0.514-0.359,0.681-1.84,0.679L2.658,15.649
	c-0.444,0-0.805-0.49-0.805-1.094l0.014-9.389L1.861,2.393C1.86,2.261,1.898,2.133,1.967,2.039C2.036,1.945,2.13,1.892,2.228,1.892
	h2.849c0.153,0,0.289,0.128,0.343,0.321l0.521,1.861c0,0,6.302,0.023,8.957,0.122c0.129,0.005,0.438-0.067,0.638,0.154
	c0.164,0.182,0.088,0.107,0.132,0.521c0.049,0.456,0.099,1.741,0,2.415l-0.675,0.047c0,0,0.011-2.193-0.034-2.246
	c-0.044-0.05-9.27-0.015-9.27-0.015c-0.152,0-0.288-0.127-0.343-0.321l-0.521-1.86H2.586l0,2.274v9.392
	c0,0.053,0.032,0.097,0.071,0.097H3.52l0.01-6.959c0.103-0.325,0.382-0.64,0.669-0.64l2.988-0.138h3.049h0.631
	c1.451,0.013,4.149,0.109,4.149,0.109C15.305,7.023,15.699,6.94,15.684,7.461z"/>
<path fill="#E8A92D" stroke="#878787" stroke-width="0.5" stroke-miterlimit="10" d="M7.431,3.55
	C7.399,3.512,7.357,3.493,7.308,3.486L6.393,3.392C6.333,3.167,6.244,2.95,6.128,2.741L6.71,2.004
	C6.745,1.963,6.762,1.917,6.76,1.868c-0.003-0.05-0.021-0.093-0.057-0.129l-0.56-0.581c-0.035-0.036-0.08-0.055-0.135-0.055
	c-0.045,0-0.085,0.015-0.122,0.046L5.178,1.754C4.975,1.633,4.767,1.541,4.55,1.479l-0.089-0.95C4.455,0.477,4.434,0.434,4.399,0.4
	C4.364,0.366,4.322,0.35,4.271,0.35H3.486c-0.051,0-0.092,0.017-0.128,0.05C3.321,0.434,3.303,0.477,3.296,0.529l-0.089,0.95
	C2.991,1.541,2.781,1.633,2.58,1.754L1.87,1.148C1.829,1.117,1.789,1.102,1.749,1.102c-0.056,0-0.101,0.019-0.136,0.055L1.055,1.738
	C1.019,1.774,1,1.818,0.999,1.866c-0.003,0.05,0.013,0.097,0.048,0.138l0.581,0.737C1.513,2.95,1.424,3.167,1.365,3.392L0.45,3.486
	C0.399,3.493,0.358,3.512,0.325,3.55C0.293,3.587,0.277,3.63,0.277,3.683v0.815c0,0.052,0.016,0.097,0.048,0.133
	C0.358,4.669,0.4,4.688,0.451,4.695L1.365,4.79C1.424,5.014,1.513,5.232,1.628,5.44L1.047,6.177
	C1.012,6.219,0.996,6.265,0.999,6.315c0,0.048,0.02,0.093,0.056,0.129l0.559,0.58c0.035,0.036,0.081,0.055,0.136,0.055
	c0.04,0,0.08-0.017,0.121-0.047L2.58,6.43c0.202,0.118,0.411,0.21,0.627,0.272L3.296,7.65c0.006,0.054,0.026,0.096,0.061,0.13
	c0.036,0.034,0.077,0.052,0.128,0.052h0.785c0.051,0,0.093-0.018,0.129-0.052c0.034-0.033,0.055-0.076,0.061-0.13l0.09-0.948
	C4.768,6.64,4.976,6.547,5.179,6.428l0.709,0.604c0.037,0.03,0.076,0.047,0.122,0.047c0.056,0,0.1-0.019,0.135-0.055l0.559-0.58
	C6.739,6.408,6.757,6.364,6.76,6.315C6.762,6.265,6.745,6.22,6.71,6.177L6.128,5.44C6.244,5.231,6.332,5.014,6.393,4.79l0.913-0.094
	C7.357,4.69,7.398,4.669,7.431,4.633C7.463,4.595,7.48,4.552,7.48,4.499V3.683C7.48,3.63,7.463,3.587,7.431,3.55z"/>
</svg>
