<?xml version="1.0" encoding="UTF-8" standalone="no"?>
<svg
   xmlns:dc="http://purl.org/dc/elements/1.1/"
   xmlns:cc="http://creativecommons.org/ns#"
   xmlns:rdf="http://www.w3.org/1999/02/22-rdf-syntax-ns#"
   xmlns:svg="http://www.w3.org/2000/svg"
   xmlns="http://www.w3.org/2000/svg"
   xml:space="preserve"
   width="16px"
   viewBox="0 0 16 16"
   version="1.1"
   id="Layer_1"
   height="16px"
   enable-background="new 0 0 16 16"><metadata
     id="metadata17"><rdf:RDF><cc:Work
         rdf:about=""><dc:format>image/svg+xml</dc:format><dc:type
           rdf:resource="http://purl.org/dc/dcmitype/StillImage" /><dc:title></dc:title></cc:Work></rdf:RDF></metadata><defs
     id="defs15" /><g
     transform="matrix(0.66500679,0,0,0.66500679,0,0.0997)"
     id="g3"><path
       id="path5"
       d="m 19.5,5.5 4.5,0 -5,-5 0,4.5 c 0,0.275 0.225,0.5 0.5,0.5 z" /><path
       id="path7"
       d="m 9,10 c 0,0.275 0.225,0.5 0.5,0.5 l 4.5,0 -5,-5 0,4.5 z" /><path
       id="path9"
       d="m 7.6,11 0,-5.5 -7.1,0 C 0.225,5.5 0,5.725 0,6 l 0,17 c 0,0.275 0.225,0.5 0.5,0.5 l 13,0 c 0.274,0 0.5,-0.225 0.5,-0.5 l 0,-11.1 -5.5,0 C 7.914,11.9 7.6,11.377 7.6,11 Z" /><path
       id="path11"
       d="m 17.6,6.003 0,-5.503 -7.1,0 C 10.225,0.5 10,0.725 10,1 l 0,3.02 5.4,5.4 0,9.08 8.1,0 c 0.274,0 0.5,-0.225 0.5,-0.5 l 0,-11.1 -5.502,0 C 17.912,6.9 17.6,6.38 17.6,6.003 Z" /></g></svg>