<?xml version="1.0" encoding="utf-8"?>
<!-- Generator: Adobe Illustrator 15.0.0, SVG Export Plug-In . SVG Version: 6.00 Build 0)  -->
<!DOCTYPE svg PUBLIC "-//W3C//DTD SVG 1.1//EN" "http://www.w3.org/Graphics/SVG/1.1/DTD/svg11.dtd">
<svg version="1.1" id="Слой_1" xmlns="http://www.w3.org/2000/svg" xmlns:xlink="http://www.w3.org/1999/xlink" x="0px" y="0px"
	 width="16px" height="16px" viewBox="0 0 16 16" enable-background="new 0 0 16 16" xml:space="preserve">
<g>
	<path fill="#808184" d="M11.688,8.625c-0.26,0-0.512,0.034-0.754,0.095L9.949,7.635c1.436-1.537,2.934-3.154,3.242-3.547
		c0.727-0.922,0.266-2.59,0.115-3.056c0.035-0.186-0.016-0.387-0.156-0.529c-0.217-0.22-0.561-0.213-0.77,0.017L7.934,5.416
		L3.486,0.519c-0.208-0.23-0.553-0.236-0.769-0.016C2.578,0.645,2.525,0.845,2.561,1.032C2.412,1.497,1.95,3.167,2.676,4.088
		c0.31,0.393,1.807,2.01,3.242,3.547l-0.96,1.057C4.749,8.649,4.534,8.625,4.313,8.625c-1.833,0-3.324,1.577-3.324,3.516
		s1.491,3.518,3.324,3.518c1.833,0,3.324-1.578,3.324-3.518c0-0.592-0.14-1.146-0.383-1.635c0.149-0.158,0.385-0.41,0.68-0.723
		c0.364,0.387,0.639,0.678,0.771,0.816c-0.216,0.467-0.341,0.988-0.341,1.541c0,1.939,1.492,3.518,3.324,3.518
		c1.834,0,3.324-1.578,3.324-3.518S13.52,8.625,11.688,8.625z M4.313,14.506c-1.232,0-2.236-1.061-2.236-2.365
		S3.08,9.773,4.313,9.773c0.268,0,0.523,0.053,0.761,0.145l0.73,0.465c0.456,0.434,0.745,1.061,0.745,1.758
		C6.549,13.445,5.546,14.506,4.313,14.506z M11.688,14.506c-1.232,0-2.236-1.061-2.236-2.365s1.004-2.367,2.236-2.367
		s2.236,1.063,2.236,2.367S12.92,14.506,11.688,14.506z"/>
</g>
</svg>
