<?xml version="1.0" encoding="utf-8"?>
<!-- Generator: Adobe Illustrator 15.0.0, SVG Export Plug-In . SVG Version: 6.00 Build 0)  -->
<!DOCTYPE svg PUBLIC "-//W3C//DTD SVG 1.1//EN" "http://www.w3.org/Graphics/SVG/1.1/DTD/svg11.dtd">
<svg version="1.1" id="Слой_1" xmlns="http://www.w3.org/2000/svg" xmlns:xlink="http://www.w3.org/1999/xlink" x="0px" y="0px"
	 width="16px" height="16px" viewBox="0 0 16 16" enable-background="new 0 0 16 16" xml:space="preserve">
<g>
	<g>
		<g>
			<path fill="#E30613" d="M1.956,4.518c3.544,3.251,7.088,6.503,10.632,9.754c1.423,1.305,3.55-0.811,2.121-2.121
				C11.165,8.899,7.621,5.647,4.077,2.396C2.654,1.091,0.527,3.208,1.956,4.518L1.956,4.518z"/>
		</g>
	</g>
	<g>
		<g>
			<path fill="#E30613" d="M12.588,2.396C9.044,5.647,5.5,8.899,1.956,12.15c-1.429,1.311,0.699,3.426,2.121,2.121
				c3.544-3.251,7.088-6.503,10.632-9.754C16.138,3.208,14.011,1.091,12.588,2.396L12.588,2.396z"/>
		</g>
	</g>
</g>
</svg>
