<?xml version="1.0" encoding="utf-8"?>
<!-- Generator: Adobe Illustrator 15.0.0, SVG Export Plug-In . SVG Version: 6.00 Build 0)  -->
<!DOCTYPE svg PUBLIC "-//W3C//DTD SVG 1.1//EN" "http://www.w3.org/Graphics/SVG/1.1/DTD/svg11.dtd">
<svg version="1.1" id="Слой_1" xmlns="http://www.w3.org/2000/svg" xmlns:xlink="http://www.w3.org/1999/xlink" x="0px" y="0px"
	 width="16px" height="16px" viewBox="0 0 16 16" enable-background="new 0 0 16 16" xml:space="preserve">
<g>
	<g>
		<path fill="#808184" d="M13.563,3.191l-2.104-2.042C11.002,0.705,10.095,0.34,9.448,0.34H2.379c-0.647,0-1.178,0.515-1.178,1.143
			v12.349c0,0.629,0.53,1.144,1.178,1.144h10.839c0.647,0,1.178-0.515,1.178-1.144V5.143C14.396,4.513,14.021,3.635,13.563,3.191z
			 M12.896,3.837c0.046,0.045,0.091,0.1,0.137,0.162h-2.407V1.663c0.063,0.044,0.12,0.089,0.166,0.133L12.896,3.837z M13.454,13.832
			c0,0.124-0.108,0.229-0.236,0.229H2.379c-0.127,0-0.235-0.104-0.235-0.229V1.483c0-0.124,0.108-0.229,0.235-0.229h7.069
			c0.071,0,0.15,0.009,0.235,0.024v3.635h3.743c0.018,0.082,0.027,0.159,0.027,0.229V13.832z"/>
	</g>
	<rect x="3.615" y="7.213" fill="#808184" width="8.367" height="0.891"/>
	<rect x="3.615" y="10.033" fill="#808184" width="8.367" height="0.891"/>
	<g>
		<path fill="#36A9E1" d="M13.602,9.229c-1.575-1.521-4.104-1.499-5.651,0.052c-1.546,1.55-1.523,4.04,0.051,5.563
			c1.575,1.521,4.106,1.498,5.652-0.05C15.199,13.243,15.177,10.752,13.602,9.229z"/>
		<g>
			<path fill="#FFFFFF" d="M11.553,9.839c0,0.229-0.29,0.413-0.771,0.413c-0.44,0-0.729-0.184-0.729-0.413
				c0-0.229,0.303-0.419,0.757-0.419C11.249,9.42,11.553,9.604,11.553,9.839z M10.203,14.574v-3.695h1.211v3.695H10.203z"/>
		</g>
	</g>
</g>
</svg>
