<?xml version="1.0" encoding="utf-8"?>
<!-- Generator: Adobe Illustrator 15.0.0, SVG Export Plug-In . SVG Version: 6.00 Build 0)  -->
<!DOCTYPE svg PUBLIC "-//W3C//DTD SVG 1.1//EN" "http://www.w3.org/Graphics/SVG/1.1/DTD/svg11.dtd">
<svg version="1.1" id="Слой_1" xmlns="http://www.w3.org/2000/svg" xmlns:xlink="http://www.w3.org/1999/xlink" x="0px" y="0px"
	 width="16px" height="16px" viewBox="0 0 16 16" enable-background="new 0 0 16 16" xml:space="preserve">
<g>
	<g>
		<path fill="#808184" d="M14.41,0.519H1.588c-0.657,0-1.191,0.508-1.191,1.133v12.176c0,0.625,0.535,1.133,1.191,1.133H14.41
			c0.658,0,1.193-0.508,1.193-1.133V1.652C15.604,1.027,15.068,0.519,14.41,0.519z"/>
		<ellipse fill="#F5F5F5" cx="13.604" cy="2.294" rx="0.51" ry="0.486"/>
		<ellipse fill="#F5F5F5" cx="11.773" cy="2.294" rx="0.51" ry="0.486"/>
		<polygon fill="#FFFFFF" points="14.242,13.666 1.759,13.666 1.759,3.985 14.242,3.985 14.242,13.666 		"/>
	</g>
	<g>
		<path fill="#36A9E1" d="M11.188,6.166L9.805,7.677L8.452,6.203l1.384-1.511L9.559,4.388L6.955,5.151L6.947,7.855L6.933,7.837
			l-5.449,5.92l0.007,0.006c-0.353,0.398-0.353,1.029,0.007,1.42c0.357,0.395,0.938,0.396,1.303,0.01l0.005,0.008l5.414-5.879
			l2.548-0.01l0.697-2.843L11.188,6.166z M2.421,14.811c-0.159,0.174-0.419,0.176-0.581,0c-0.16-0.176-0.16-0.461,0-0.635
			c0.161-0.174,0.42-0.174,0.58,0S2.581,14.635,2.421,14.811z"/>
	</g>
</g>
</svg>
