<?xml version="1.0" encoding="utf-8"?>
<!-- Generator: Adobe Illustrator 15.0.0, SVG Export Plug-In . SVG Version: 6.00 Build 0)  -->
<!DOCTYPE svg PUBLIC "-//W3C//DTD SVG 1.1//EN" "http://www.w3.org/Graphics/SVG/1.1/DTD/svg11.dtd">
<svg version="1.1" id="Слой_1" xmlns="http://www.w3.org/2000/svg" xmlns:xlink="http://www.w3.org/1999/xlink" x="0px" y="0px"
	 width="16px" height="16px" viewBox="0 0 16 16" enable-background="new 0 0 16 16" xml:space="preserve">
<g>
	<path fill="#36A9E1" d="M13.632,2.475C10.661-0.72,5.731-0.837,2.62,2.216c-3.11,3.051-3.225,8.115-0.254,11.311
		c2.971,3.197,7.903,3.313,11.013,0.263C16.49,10.737,16.604,5.672,13.632,2.475z"/>
	<path fill="#FFFFFF" d="M8.104,1.886C9.38,1.888,9.792,2.424,9.792,2.424l-0.004,5.07c0,0,2.534-0.062,2.999,0.498
		c0.434,0.523-2.302,2.455-2.302,2.455S8.61,11.771,7.997,11.77c-0.679-0.001-3.064-1.72-3.064-1.72S2.922,8.496,3.19,8.054
		C3.599,7.38,6.249,7.494,6.249,7.494l0.004-5.072C6.252,2.421,6.987,1.885,8.104,1.886z"/>
	<rect x="4.452" y="12.951" fill="#FFFFFF" width="7.095" height="0.47"/>
</g>
</svg>
