<?xml version="1.0" encoding="utf-8"?>
<!-- Generator: Adobe Illustrator 15.0.0, SVG Export Plug-In . SVG Version: 6.00 Build 0)  -->
<!DOCTYPE svg PUBLIC "-//W3C//DTD SVG 1.1//EN" "http://www.w3.org/Graphics/SVG/1.1/DTD/svg11.dtd">
<svg version="1.1" id="Слой_1" xmlns="http://www.w3.org/2000/svg" xmlns:xlink="http://www.w3.org/1999/xlink" x="0px" y="0px"
	 width="16px" height="16px" viewBox="0 0 16 16" enable-background="new 0 0 16 16" xml:space="preserve">
<path fill="none" stroke="#878787" stroke-miterlimit="10" d="M13.645,5.159c-0.049-1.934-1.615-3.488-3.541-3.488
	c-1.131,0-2.135,0.534-2.785,1.363c-0.363-0.474-0.933-0.78-1.575-0.78c-1.099,0-1.99,0.9-1.99,2.01c0,0.096,0.007,0.19,0.021,0.284
	c-0.167-0.029-0.34-0.046-0.516-0.046c-1.594,0-2.886,1.304-2.886,2.913s1.292,2.914,2.886,2.914h1.486h6.512h1.778l0,0
	c1.434-0.005,2.594-1.178,2.594-2.623C15.628,6.473,14.782,5.439,13.645,5.159z"/>
<path fill="#95C11F" stroke="#FFFFFF" stroke-width="0.25" stroke-miterlimit="10" d="M6.563,14.845l0.044-5.214
	c0,0-2.114,0.094-2.431-0.603C3.967,8.571,5.583,6.991,5.583,6.991s1.916-1.75,2.458-1.745C8.527,5.25,10.01,6.627,10.01,6.627
	s2.163,2.007,1.812,2.543c-0.376,0.57-2.396,0.486-2.396,0.486l-0.043,5.216c0,0-0.335,0.547-1.351,0.538
	C7.142,15.404,6.563,14.845,6.563,14.845z"/>
</svg>
