<?xml version="1.0" encoding="utf-8"?>
<!-- Generator: Adobe Illustrator 15.0.0, SVG Export Plug-In . SVG Version: 6.00 Build 0)  -->
<!DOCTYPE svg PUBLIC "-//W3C//DTD SVG 1.1//EN" "http://www.w3.org/Graphics/SVG/1.1/DTD/svg11.dtd">
<svg version="1.1" id="Слой_1" xmlns="http://www.w3.org/2000/svg" xmlns:xlink="http://www.w3.org/1999/xlink" x="0px" y="0px"
	 width="16px" height="16px" viewBox="0 0 16 16" enable-background="new 0 0 16 16" xml:space="preserve">
<g>
	<path fill="#36A9E1" d="M16,3.456l-4.676-3.102L8.011,3.03L4.781,0.354L0.106,3.375l3.126,2.707L0,8.592l3.232,2.193l2.457,1.431
		l2.326-3.155l2.777,2.979l2.004-1.309L16,8.617l-3.15-2.536L16,3.456z M8.053,8.938l-4.58-2.856l4.527-2.895l4.635,2.895
		L8.053,8.938z M8.013,10.469l-2.308,2.936l-3.359-1.991v0.909L8.011,16l5.64-3.701l0.031-0.939l-2.747,1.867L8.013,10.469z"/>
</g>
</svg>
