<?xml version="1.0" encoding="utf-8"?>
<!-- Generator: Adobe Illustrator 15.0.0, SVG Export Plug-In . SVG Version: 6.00 Build 0)  -->
<!DOCTYPE svg PUBLIC "-//W3C//DTD SVG 1.1//EN" "http://www.w3.org/Graphics/SVG/1.1/DTD/svg11.dtd">
<svg version="1.1" id="Слой_1" xmlns="http://www.w3.org/2000/svg" xmlns:xlink="http://www.w3.org/1999/xlink" x="0px" y="0px"
	 width="16px" height="16px" viewBox="0 0 16 16" enable-background="new 0 0 16 16" xml:space="preserve">
<g>
	<path fill="#36A9E1" d="M6.628,9.853c2.542,0,4.61-1.962,4.61-4.376c0-2.416-2.068-4.378-4.61-4.378
		c-2.543,0-4.612,1.962-4.612,4.378C2.016,7.89,4.084,9.853,6.628,9.853z M8.642,2.721c0.151,1,0.94,2.417,1.747,3.118
		c-0.172,1.826-1.788,3.264-3.753,3.264c-2.809,0-3.689-2.35-3.77-3.63C2.873,5.015,2.97,4.576,3.142,4.174
		C4.181,4.084,8.449,3.272,8.642,2.721z"/>
	<path fill="#36A9E1" d="M10.1,9.102c-0.918,0.79-2.122,1.275-3.448,1.283v-0.002c-0.011,0-0.019,0.002-0.029,0.002
		c-0.007,0-0.017-0.002-0.025-0.002v0.002C5.269,10.377,4.06,9.892,3.148,9.102c-1.673,0.297-2.939,1.684-2.939,3.357v3.797h6.388
		h0.054h6.386v-3.797C13.037,10.785,11.77,9.398,10.1,9.102z"/>
</g>
<g>
	<g>
		<g>
			<path fill="#FFFFFF" stroke="#878787" stroke-miterlimit="10" d="M12.624,5.907c-1.51,0-2.728,1.333-2.728,2.973
				c0,0.185,0.02,0.363,0.05,0.539l-3.324,3.618v2.376h3.274v-1.186h1.09v-1.19h1.091V11.85l0.05-0.057
				c0.16,0.032,0.326,0.057,0.497,0.057c1.504,0,2.727-1.331,2.727-2.97C15.351,7.239,14.128,5.907,12.624,5.907z M12.625,9.474
				c-0.301,0-0.548-0.267-0.548-0.594c0-0.329,0.247-0.595,0.548-0.595c0.303,0,0.546,0.266,0.546,0.595
				C13.171,9.207,12.928,9.474,12.625,9.474z"/>
		</g>
	</g>
	<ellipse fill="#F9B233" cx="12.719" cy="8.767" rx="2.63" ry="2.863"/>
	<path fill="#FFFFFF" stroke="#878787" stroke-miterlimit="10" d="M14.347,7.578c0.103,0.532-0.172,1.051-0.615,1.167
		c-0.445,0.113-0.888-0.226-0.993-0.756c-0.105-0.531,0.168-1.051,0.613-1.164C13.796,6.711,14.239,7.047,14.347,7.578z"/>
</g>
</svg>
