<?xml version="1.0" encoding="utf-8"?>
<!-- Generator: Adobe Illustrator 15.0.0, SVG Export Plug-In . SVG Version: 6.00 Build 0)  -->
<!DOCTYPE svg PUBLIC "-//W3C//DTD SVG 1.1//EN" "http://www.w3.org/Graphics/SVG/1.1/DTD/svg11.dtd">
<svg version="1.1" id="Слой_1" xmlns="http://www.w3.org/2000/svg" xmlns:xlink="http://www.w3.org/1999/xlink" x="0px" y="0px"
	 width="16px" height="16px" viewBox="0 0 16 16" enable-background="new 0 0 16 16" xml:space="preserve">
<g>
	<path fill="#36A9E1" d="M6.948,9.221c2.573,0,4.665-2.039,4.665-4.546c0-2.51-2.092-4.548-4.665-4.548S2.281,2.165,2.281,4.675
		C2.281,7.182,4.375,9.221,6.948,9.221z M8.987,1.813c0.153,1.039,0.952,2.512,1.767,3.239c-0.173,1.897-1.809,3.391-3.798,3.391
		c-2.841,0-3.732-2.44-3.814-3.771c0.007-0.477,0.104-0.933,0.28-1.351C4.473,3.229,8.791,2.386,8.987,1.813z"/>
	<path fill="#F9B233" d="M10.463,8.441c-0.928,0.819-2.148,1.324-3.49,1.333V9.771c-0.011,0-0.02,0.003-0.029,0.003
		c-0.008,0-0.017-0.003-0.025-0.003v0.003c-1.346-0.009-2.567-0.514-3.49-1.333c-1.693,0.308-2.975,1.749-2.975,3.487v3.943h6.465
		h0.055h6.462v-3.943C13.435,10.19,12.152,8.749,10.463,8.441z"/>
	<g>
		<path fill="#808184" stroke="#FFFFFF" stroke-width="0.5" stroke-miterlimit="10" d="M15.15,3.976
			c0.354,0.529,0.483,1.309,0.338,2.026L14.982,6.76l-1.688-2.53l0.506-0.759C14.279,3.253,14.798,3.447,15.15,3.976z"/>
		<polygon fill="#95C11F" stroke="#FFFFFF" stroke-width="0.5" stroke-miterlimit="10" points="14.645,7.267 10.932,12.832 
			7.91,14.833 9.244,10.301 12.957,4.736 		"/>
	</g>
</g>
</svg>
