<?xml version="1.0" encoding="utf-8"?>
<!-- Generator: Adobe Illustrator 15.0.0, SVG Export Plug-In . SVG Version: 6.00 Build 0)  -->
<!DOCTYPE svg PUBLIC "-//W3C//DTD SVG 1.1//EN" "http://www.w3.org/Graphics/SVG/1.1/DTD/svg11.dtd">
<svg version="1.1" id="Слой_1" xmlns="http://www.w3.org/2000/svg" xmlns:xlink="http://www.w3.org/1999/xlink" x="0px" y="0px"
	 width="16px" height="16px" viewBox="0 0 16 16" enable-background="new 0 0 16 16" xml:space="preserve">
<path fill="#F9B233" d="M15.799,8.028l-0.197,6.503c-0.149,0.444-0.305,0.589-1.565,0.588l-9.34,0.001
	c-0.379,0-0.687-0.425-0.687-0.947l0.012-8.129L4.016,3.639c0-0.114,0.033-0.225,0.091-0.307s0.139-0.127,0.222-0.127h2.43
	c0.129,0,0.246,0.112,0.291,0.277l0.445,1.613c0,0,5.371,0.021,7.635,0.106c0.109,0.002,0.373-0.06,0.543,0.133
	c0.143,0.156,0.075,0.092,0.114,0.449c0.039,0.396,0.083,1.508,0,2.092L15.23,7.652C15.475,7.651,15.813,7.579,15.799,8.028z"/>
<g>
	<path fill="#95C11F" stroke="#FFFFFF" stroke-width="0.25" stroke-miterlimit="10" d="M10.205,15.173l0.045-0.049
		c1.032-1.14,1.074-3.044,0.09-4.231l-2.285-2.75C7.07,6.953,5.417,6.912,4.382,8.05L4.339,8.099
		C4.251,8.194,4.174,8.294,4.104,8.398l0.835,1.008C5,9.294,5.072,9.188,5.16,9.09l0.045-0.049c0.56-0.619,1.452-0.597,1.989,0.049
		l2.283,2.753c0.535,0.646,0.514,1.673-0.049,2.291l-0.045,0.05c-0.561,0.616-1.453,0.594-1.989-0.05l-1.031-1.247
		c-0.459,0.201-0.946,0.29-1.428,0.271l1.599,1.926C7.518,16.271,9.17,16.311,10.205,15.173z"/>
	<path fill="#36A9E1" stroke="#FFFFFF" stroke-width="0.25" stroke-miterlimit="10" d="M6.918,11.105
		c0.085-0.096,0.162-0.193,0.235-0.299L6.319,9.798c-0.063,0.113-0.134,0.224-0.223,0.318l-0.045,0.048
		c-0.563,0.618-1.453,0.597-1.987-0.049L1.781,7.363C1.245,6.718,1.266,5.69,1.829,5.072l0.043-0.049
		c0.563-0.618,1.453-0.597,1.991,0.049l1.031,1.245c0.457-0.2,0.944-0.289,1.427-0.268L4.723,4.122
		C3.738,2.935,2.085,2.894,1.052,4.033L1.005,4.081c-1.032,1.14-1.073,3.042-0.089,4.231L3.2,11.064
		c0.984,1.188,2.639,1.229,3.674,0.09L6.918,11.105z"/>
</g>
<g>
	<path fill="#808184" d="M14.623,0.304c0.229,0.345,0.313,0.852,0.22,1.318l-0.329,0.493l-1.097-1.646l0.33-0.496
		C14.057-0.169,14.395-0.042,14.623,0.304z"/>
	<polygon fill="#95C11F" points="14.293,2.446 11.883,6.071 9.921,7.375 10.786,4.422 13.198,0.798 	"/>
</g>
</svg>
