<?xml version="1.0" encoding="utf-8"?>
<!-- Generator: Adobe Illustrator 15.0.0, SVG Export Plug-In . SVG Version: 6.00 Build 0)  -->
<!DOCTYPE svg PUBLIC "-//W3C//DTD SVG 1.1//EN" "http://www.w3.org/Graphics/SVG/1.1/DTD/svg11.dtd">
<svg version="1.1" id="Слой_1" xmlns="http://www.w3.org/2000/svg" xmlns:xlink="http://www.w3.org/1999/xlink" x="0px" y="0px"
	 width="16px" height="16px" viewBox="0 0 16 16" enable-background="new 0 0 16 16" xml:space="preserve">
<g>
	<path fill="#F9B233" d="M14.417,7.305l-0.232,7.685c-0.181,0.525-0.363,0.697-1.856,0.694L1.262,15.688
		c-0.449,0-0.813-0.502-0.813-1.12l0.015-9.609L0.457,2.119C0.455,1.984,0.493,1.854,0.563,1.756
		C0.632,1.66,0.728,1.605,0.827,1.605h2.877c0.155,0,0.291,0.131,0.347,0.329l0.526,1.904c0,0,6.365,0.024,9.045,0.124
		c0.13,0.006,0.442-0.068,0.644,0.158c0.168,0.187,0.092,0.111,0.135,0.533c0.051,0.467,0.101,1.781,0,2.471l-0.68,0.049
		c0,0,0.01-2.245-0.038-2.3c-0.044-0.05-9.361-0.015-9.361-0.015c-0.154,0-0.292-0.13-0.346-0.329L3.45,2.626H1.188l0.001,2.328
		v9.613c0,0.055,0.033,0.099,0.072,0.099h0.869l0.01-7.124C2.245,7.21,2.526,6.888,2.818,6.888l3.017-0.141h3.079h0.639
		c1.465,0.012,4.19,0.112,4.19,0.112C14.033,6.859,14.434,6.773,14.417,7.305z"/>
	<g>
		<path fill="#808184" stroke="#FFFFFF" stroke-width="0.25" stroke-miterlimit="10" d="M15.488,2.139
			c0.457,0.438,0.623,1.084,0.436,1.678l-0.652,0.628l-2.178-2.096l0.652-0.63C14.361,1.539,15.033,1.7,15.488,2.139z"/>
		<polygon fill="#95C11F" stroke="#FFFFFF" stroke-width="0.25" stroke-miterlimit="10" points="14.834,4.864 10.043,9.476 
			6.145,11.133 7.867,7.379 12.656,2.768 		"/>
	</g>
</g>
</svg>
