<?xml version="1.0" encoding="UTF-8" standalone="no"?>
<svg
   xmlns:dc="http://purl.org/dc/elements/1.1/"
   xmlns:cc="http://creativecommons.org/ns#"
   xmlns:rdf="http://www.w3.org/1999/02/22-rdf-syntax-ns#"
   xmlns:svg="http://www.w3.org/2000/svg"
   xmlns="http://www.w3.org/2000/svg"
   version="1.1"
   viewBox="0 0 16 16"
   style="shape-rendering:geometricPrecision; text-rendering:geometricPrecision; image-rendering:optimizeQuality; fill-rule:evenodd; clip-rule:evenodd"
   height="16px"
   width="16px"
   xml:space="preserve"><g
     transform="matrix(0.51373785,0,0,0.51373785,-60.992004,-33.494148)"><path
       style="fill:#0093dd"
       d="m 132.063,74.6571 c 1.8164,-1.3679 4.3637,-2.5777 6.8876,-0.2905 2.6234,-2.2877 5.6373,-5.4009 8.6,-8.2536 1.424,-0.4314 2.7874,0.9816 2.1744,2.219 -2.7484,2.8346 -5.4967,5.6692 -8.245,8.5038 1.4284,1.5618 1.591,4.3886 -0.725,6.5133 -2.5943,-2.4968 -6.4711,-6.3679 -8.692,-8.692 z" /><path
       style="fill:#0093dd"
       d="m 119.677,77.237 c 4.6147,0.7466 7.8816,0.2755 9.9876,-1.0543 l 1.5546,1.6878 c -2.5821,2.1594 -6.5888,2.3681 -9.5258,2.1738 1.224,3.5162 2.725,9.9501 10.3636,12.8312 2.9109,-2.1778 5.1955,-7.8109 5.7303,-8.5369 0.7062,0.5871 1.2089,1.0531 1.9046,1.7093 -1.2144,2.8698 -3.4896,7.3309 -6.8256,9.7587 -1.1417,0.0349 -5.8492,-1.4331 -9.7019,-6.5257 -1.2429,-1.5795 -3.8472,-5.1518 -4.3533,-11.0633 -0.0246,-0.507 0.2548,-0.9768 0.8659,-0.9806 z" /></g></svg>