<?xml version="1.0" encoding="utf-8"?>
<!-- Generator: Adobe Illustrator 15.0.0, SVG Export Plug-In . SVG Version: 6.00 Build 0)  -->
<!DOCTYPE svg PUBLIC "-//W3C//DTD SVG 1.1//EN" "http://www.w3.org/Graphics/SVG/1.1/DTD/svg11.dtd">
<svg version="1.1" id="Слой_1" xmlns="http://www.w3.org/2000/svg" xmlns:xlink="http://www.w3.org/1999/xlink" x="0px" y="0px"
	 width="16px" height="16px" viewBox="0 0 16 16" enable-background="new 0 0 16 16" xml:space="preserve">
<g>
	<path fill="#E6332A" d="M13.117,2.854C10.418-0.148,5.939-0.258,3.112,2.61c-2.826,2.868-2.93,7.626-0.231,10.629
		c2.7,3.005,7.18,3.113,10.005,0.247C15.713,10.618,15.817,5.858,13.117,2.854z M6.996,9.768l-0.413-7.69h2.834l-0.414,7.69H6.996z"
		/>
	<path fill="#FFFFFF" stroke="#FFFFFF" stroke-width="0.5" d="M6.258,12.591c0-0.577,0.738-0.992,1.772-0.992
		c1.033,0,1.712,0.415,1.712,0.992c0,0.56-0.68,0.991-1.771,0.991C6.966,13.582,6.258,13.15,6.258,12.591z"/>
</g>
</svg>
