<?xml version="1.0" encoding="utf-8"?>
<!-- Generator: Adobe Illustrator 15.0.0, SVG Export Plug-In . SVG Version: 6.00 Build 0)  -->
<!DOCTYPE svg PUBLIC "-//W3C//DTD SVG 1.1//EN" "http://www.w3.org/Graphics/SVG/1.1/DTD/svg11.dtd">
<svg version="1.1" id="Слой_1" xmlns="http://www.w3.org/2000/svg" xmlns:xlink="http://www.w3.org/1999/xlink" x="0px" y="0px"
	 width="16px" height="16px" viewBox="0 0 16 16" enable-background="new 0 0 16 16" xml:space="preserve">
<g>
	<g>
		<path fill="#808184" d="M14.503,3.387l-2.289-2.161c-0.499-0.471-1.482-0.855-2.188-0.855H2.334c-0.705,0-1.281,0.544-1.281,1.21
			v13.071c0,0.666,0.576,1.21,1.281,1.21h11.793c0.705,0,1.283-0.544,1.283-1.21V5.453C15.411,4.787,15.001,3.858,14.503,3.387z
			 M13.779,4.072c0.049,0.047,0.099,0.105,0.147,0.171h-2.619V1.77c0.07,0.046,0.132,0.094,0.181,0.14L13.779,4.072z M14.385,14.651
			c0,0.131-0.118,0.242-0.257,0.242H2.334c-0.139,0-0.257-0.111-0.257-0.242V1.58c0-0.131,0.118-0.242,0.257-0.242h7.691
			c0.077,0,0.165,0.009,0.256,0.026v3.848h4.076c0.018,0.087,0.027,0.168,0.027,0.241V14.651z"/>
	</g>
	<path fill="#36A9E1" d="M13.075,10.117c0,1.859-1.117,3.166-3.199,3.166H3.687c-2.083,0-3.198-1.508-3.198-3.366l0,0
		c0-1.859,1.116-3.367,3.198-3.367h6.189c2.082,0,3.199,1.507,3.199,3.367V10.117z"/>
</g>
<g>
	<path fill="#FFFFFF" stroke="#FFFFFF" stroke-width="0.25" stroke-miterlimit="10" d="M2.68,8.116v1.331h1.621V8.116h0.438v3.18
		H4.301v-1.49H2.68v1.49H2.243v-3.18H2.68z"/>
	<path fill="#FFFFFF" stroke="#FFFFFF" stroke-width="0.25" stroke-miterlimit="10" d="M6.122,8.465H5.103V8.116h2.48v0.349H6.56
		v2.831H6.122V8.465z"/>
	<path fill="#FFFFFF" stroke="#FFFFFF" stroke-width="0.25" stroke-miterlimit="10" d="M10.776,9.899
		c-0.023-0.444-0.055-0.981-0.055-1.373h-0.01c-0.118,0.367-0.254,0.769-0.423,1.208l-0.592,1.542H9.369L8.824,9.762
		C8.665,9.309,8.536,8.904,8.442,8.526h-0.01C8.421,8.922,8.397,9.451,8.367,9.933l-0.089,1.363H7.865l0.234-3.18H8.65l0.57,1.539
		c0.14,0.392,0.25,0.74,0.339,1.071h0.01c0.089-0.321,0.208-0.671,0.357-1.071l0.597-1.539h0.552l0.209,3.18h-0.429L10.776,9.899z"
		/>
</g>
</svg>
