<?xml version="1.0" encoding="UTF-8" standalone="no"?>
<svg
   xmlns:dc="http://purl.org/dc/elements/1.1/"
   xmlns:cc="http://creativecommons.org/ns#"
   xmlns:rdf="http://www.w3.org/1999/02/22-rdf-syntax-ns#"
   xmlns:svg="http://www.w3.org/2000/svg"
   xmlns="http://www.w3.org/2000/svg"
   xml:space="preserve"
   width="16px"
   viewBox="0 0 16 16"
   version="1.0"
   id="Layer_1"
   height="16px"
   enable-background="new 0 0 16 16"><g
     transform="scale(0.5,0.5)"
     id="g3"><path
       style="fill:#3b5998"
       id="path5"
       d="m 32,30 c 0,1.104 -0.896,2 -2,2 L 2,32 C 0.896,32 0,31.104 0,30 L 0,2 C 0,0.896 0.896,0 2,0 l 28,0 c 1.104,0 2,0.896 2,2 l 0,28 z" /><path
       style="fill:#ffffff"
       id="f"
       d="m 22,32 0,-12 4,0 1,-5 -5,0 0,-2 c 0,-2 1.002,-3 3,-3 l 2,0 0,-5 c -1,0 -2.24,0 -4,0 -3.675,0 -6,2.881 -6,7 l 0,3 -4,0 0,5 4,0 0,12 5,0 z" /></g><g
     id="g8" /><g
     id="g10" /><g
     id="g12" /><g
     id="g14" /><g
     id="g16" /><g
     id="g18" /></svg>