<?xml version="1.0" encoding="utf-8"?>
<!-- Generator: Adobe Illustrator 15.0.0, SVG Export Plug-In . SVG Version: 6.00 Build 0)  -->
<!DOCTYPE svg PUBLIC "-//W3C//DTD SVG 1.1//EN" "http://www.w3.org/Graphics/SVG/1.1/DTD/svg11.dtd">
<svg version="1.1" id="Слой_1" xmlns="http://www.w3.org/2000/svg" xmlns:xlink="http://www.w3.org/1999/xlink" x="0px" y="0px"
	 width="16px" height="16px" viewBox="0 0 16 16" enable-background="new 0 0 16 16" xml:space="preserve">
<path fill="#F9B233" d="M15.145,5.619c-0.281-0.055-0.576-0.133-0.889-0.215c-0.322-0.086-0.656-0.174-0.994-0.24
	c-0.598-0.119-1.203-0.218-1.789-0.311c-0.162-0.028-0.326-0.054-0.49-0.08c-0.16-0.318-0.318-0.657-0.48-1.013
	C9.967,2.612,9.414,1.425,8.618,0.529c-0.123-0.14-0.284-0.227-0.46-0.26C8.115,0.262,8.073,0.255,8.03,0.254
	c-0.223-0.003-0.44,0.086-0.598,0.25C6.609,1.359,6.015,2.655,5.492,3.797C5.32,4.171,5.157,4.53,4.995,4.854
	c-0.137,0.021-0.316,0.043-0.49,0.062c-0.209,0.021-0.41,0.038-0.517,0.047c-0.16,0.014-0.282,0.024-0.336,0.033L3.298,5.046
	C2.476,5.162,1.625,5.283,0.785,5.528c-0.112,0.033-0.213,0.09-0.301,0.166c-0.082,0.069-0.15,0.155-0.2,0.253
	C0.188,6.132,0.167,6.347,0.215,6.549c0.004,0.021,0.006,0.042,0.013,0.063c0.209,0.659,0.781,1.227,1.285,1.727
	C1.666,8.49,1.81,8.634,1.925,8.764c0.068,0.077,0.142,0.154,0.218,0.233c0.086,0.088,0.175,0.177,0.268,0.268
	c0.397,0.393,0.848,0.838,0.88,1.206c0.006,0.076,0.008,0.158,0.012,0.237c0,0.006,0,0.013,0,0.019
	c0.048,1.095-0.148,2.424-0.325,3.61l-0.064,0.431c-0.035,0.237,0.033,0.471,0.174,0.654c0.029,0.037,0.057,0.077,0.092,0.108
	c0.152,0.14,0.347,0.216,0.546,0.216c0.072,0,0.146-0.01,0.217-0.03c0.24-0.068,0.476-0.149,0.71-0.239
	c0.121-0.047,0.242-0.096,0.363-0.146c0.535-0.226,1.058-0.491,1.573-0.764c0.16-0.086,0.32-0.171,0.479-0.257
	c0.22-0.117,0.429-0.226,0.64-0.336c0.101-0.054,0.208-0.112,0.308-0.162l0.792,0.378c0.605,0.29,1.211,0.579,1.816,0.873
	c0.104,0.051,0.211,0.111,0.316,0.172c0.346,0.195,0.773,0.434,1.277,0.479c0.021,0.003,0.043,0.009,0.064,0.01
	c0.271,0.013,0.52-0.113,0.682-0.319c0.08-0.104,0.141-0.229,0.168-0.367c0.215-1.154-0.021-2.51-0.23-3.705
	c-0.053-0.31-0.105-0.604-0.146-0.886c-0.012-0.082-0.025-0.17-0.037-0.249c0.195-0.233,0.6-0.626,0.77-0.791
	c0.156-0.148,0.277-0.268,0.328-0.325c0.176-0.203,0.357-0.404,0.537-0.605c0.428-0.476,0.869-0.967,1.275-1.488
	c0.043-0.054,0.076-0.113,0.104-0.174c0.094-0.203,0.107-0.438,0.031-0.653C15.662,5.882,15.428,5.676,15.145,5.619z M6.284,5.959
	C6.52,5.521,6.741,5.037,6.975,4.527c0.302-0.66,0.612-1.327,0.95-1.899C7.95,2.586,7.975,2.538,8,2.496
	c0.371,0.605,0.7,1.312,1.021,2.003C9.252,4.992,9.488,5.5,9.736,5.96c0.119,0.226,0.334,0.383,0.582,0.425
	c0.301,0.051,0.602,0.1,0.904,0.148c0.57,0.092,1.16,0.187,1.73,0.3c0.17,0.036,0.344,0.077,0.523,0.121
	c-0.031,0.037-0.064,0.072-0.096,0.108c-0.076,0.085-0.154,0.171-0.23,0.257c-0.186,0.207-0.371,0.413-0.551,0.62
	c-0.041,0.043-0.127,0.125-0.232,0.227c-0.98,0.948-1.373,1.393-1.313,1.965c0.004,0.034,0.01,0.069,0.014,0.104
	c0.051,0.446,0.131,0.91,0.217,1.402c0.119,0.684,0.242,1.383,0.279,2.016c-0.066-0.038-0.133-0.071-0.199-0.104
	c-0.016-0.007-0.031-0.017-0.047-0.024c-0.607-0.294-1.217-0.585-1.824-0.876l-1.14-0.546c-0.109-0.053-0.228-0.079-0.345-0.079
	c-0.118,0-0.236,0.026-0.346,0.079c-0.4,0.192-0.806,0.408-1.203,0.622c-0.049,0.025-0.101,0.053-0.149,0.079
	c-0.462,0.248-0.933,0.497-1.401,0.721c-0.055,0.025-0.11,0.055-0.165,0.08c0.041-0.302,0.079-0.612,0.112-0.924
	c0.085-0.805,0.131-1.623,0.068-2.357c-0.022-0.276-0.097-0.529-0.201-0.765c-0.271-0.62-0.762-1.11-1.182-1.524
	c-0.145-0.143-0.285-0.28-0.405-0.416C3.001,7.462,2.829,7.292,2.647,7.11c-0.066-0.065-0.14-0.139-0.215-0.214
	C2.788,6.835,3.148,6.783,3.521,6.73l0.134-0.02L3.876,6.68c0.043-0.006,0.131-0.012,0.244-0.022
	c0.064-0.006,0.117-0.011,0.177-0.017C5.546,6.531,6.031,6.433,6.284,5.959z"/>
</svg>
