<?xml version="1.0" encoding="UTF-8" standalone="no"?>
<!-- Generator: Adobe Illustrator 15.0.0, SVG Export Plug-In . SVG Version: 6.00 Build 0)  -->

<svg
   xmlns:dc="http://purl.org/dc/elements/1.1/"
   xmlns:cc="http://creativecommons.org/ns#"
   xmlns:rdf="http://www.w3.org/1999/02/22-rdf-syntax-ns#"
   xmlns:svg="http://www.w3.org/2000/svg"
   xmlns="http://www.w3.org/2000/svg"
   xmlns:sodipodi="http://sodipodi.sourceforge.net/DTD/sodipodi-0.dtd"
   xmlns:inkscape="http://www.inkscape.org/namespaces/inkscape"
   version="1.1"
   id="Слой_1"
   x="0px"
   y="0px"
   width="16px"
   height="16px"
   viewBox="0 0 16 16"
   enable-background="new 0 0 16 16"
   xml:space="preserve"
   inkscape:version="0.48.4 r9939"
   sodipodi:docname="file.svg"><metadata
   id="metadata17"><rdf:RDF><cc:Work
       rdf:about=""><dc:format>image/svg+xml</dc:format><dc:type
         rdf:resource="http://purl.org/dc/dcmitype/StillImage" /></cc:Work></rdf:RDF></metadata><defs
   id="defs15" /><sodipodi:namedview
   pagecolor="#ffffff"
   bordercolor="#666666"
   borderopacity="1"
   objecttolerance="10"
   gridtolerance="10"
   guidetolerance="10"
   inkscape:pageopacity="0"
   inkscape:pageshadow="2"
   inkscape:window-width="1280"
   inkscape:window-height="962"
   id="namedview13"
   showgrid="false"
   inkscape:zoom="14.75"
   inkscape:cx="-1.1864407"
   inkscape:cy="8"
   inkscape:window-x="-8"
   inkscape:window-y="-8"
   inkscape:window-maximized="1"
   inkscape:current-layer="Слой_1" />
<g
   id="g3"
   transform="matrix(0.97006652,0,0,1.0269576,0.25013857,2.96e-7)">
	<g
   id="g5">
		<path
   d="M 14.293,3.035 11.992,0.862 C 11.491,0.389 10.501,0 9.793,0 H 2.062 C 1.353,0 0.773,0.549 0.773,1.218 v 13.143 c 0,0.67 0.58,1.219 1.289,1.219 h 11.855 c 0.708,0 1.288,-0.549 1.288,-1.219 V 5.112 c 0,-0.669 -0.41,-1.604 -0.912,-2.077 z m -0.728,0.688 c 0.05,0.048 0.1,0.107 0.148,0.172 H 11.081 V 1.409 c 0.069,0.046 0.132,0.094 0.181,0.142 l 2.303,2.172 z m 0.61,10.638 c 0,0.133 -0.119,0.244 -0.258,0.244 H 2.062 c -0.14,0 -0.258,-0.111 -0.258,-0.244 V 1.218 c 0,-0.133 0.118,-0.244 0.258,-0.244 h 7.731 c 0.078,0 0.165,0.009 0.257,0.026 v 3.868 h 4.098 c 0.018,0.087 0.027,0.17 0.027,0.244 v 9.249 z"
   id="path7"
   inkscape:connector-curvature="0"
   style="fill:#808184" />
	</g>
	<rect
   x="3.4130001"
   y="7.316"
   width="9.1520004"
   height="0.949"
   id="rect9"
   style="fill:#808184" />
	<rect
   x="3.4130001"
   y="10.318"
   width="9.1520004"
   height="0.949"
   id="rect11"
   style="fill:#808184" />
</g>
</svg>