<?xml version="1.0" encoding="utf-8"?>
<!-- Generator: Adobe Illustrator 15.0.0, SVG Export Plug-In . SVG Version: 6.00 Build 0)  -->
<!DOCTYPE svg PUBLIC "-//W3C//DTD SVG 1.1//EN" "http://www.w3.org/Graphics/SVG/1.1/DTD/svg11.dtd">
<svg version="1.1" id="Слой_1" xmlns="http://www.w3.org/2000/svg" xmlns:xlink="http://www.w3.org/1999/xlink" x="0px" y="0px"
	 width="16px" height="16px" viewBox="0 0 16 16" enable-background="new 0 0 16 16" xml:space="preserve">
<g>
	<g>
		<path fill="#36A9E1" d="M8.186-0.028C3.871-0.028,0.372,3.567,0.372,8c0,4.435,3.499,8.027,7.814,8.027
			C12.5,16.027,16,12.434,16,8C16,3.567,12.502-0.028,8.186-0.028z M11.588,4.897c0,0-1.309-0.022-1.837,0.826
			c-0.146,0.234-0.337,0.645-0.55,1.131h1.378v1.91H8.407c-0.312,0.756-0.6,1.438-0.788,1.769c-0.483,0.848-1.308,1.532-2.021,1.838
			c-0.71,0.307-1.56,0.282-1.56,0.282V10.79c0,0,1.354,0.188,2.088-1.391s1.606-4.456,2.983-5.517
			c1.377-1.061,2.479-0.802,2.479-0.802V4.897z"/>
	</g>
</g>
</svg>
