<?xml version="1.0" encoding="UTF-8" standalone="no"?>
<!-- Generator: Adobe Illustrator 15.0.0, SVG Export Plug-In . SVG Version: 6.00 Build 0)  -->

<svg
   xmlns:dc="http://purl.org/dc/elements/1.1/"
   xmlns:cc="http://creativecommons.org/ns#"
   xmlns:rdf="http://www.w3.org/1999/02/22-rdf-syntax-ns#"
   xmlns:svg="http://www.w3.org/2000/svg"
   xmlns="http://www.w3.org/2000/svg"
   xmlns:sodipodi="http://sodipodi.sourceforge.net/DTD/sodipodi-0.dtd"
   xmlns:inkscape="http://www.inkscape.org/namespaces/inkscape"
   version="1.1"
   id="Слой_1"
   x="0px"
   y="0px"
   width="16px"
   height="16px"
   viewBox="0 0 16 16"
   enable-background="new 0 0 16 16"
   xml:space="preserve"
   inkscape:version="0.48.4 r9939"
   sodipodi:docname="folderftp1.svg"><metadata
   id="metadata13"><rdf:RDF><cc:Work
       rdf:about=""><dc:format>image/svg+xml</dc:format><dc:type
         rdf:resource="http://purl.org/dc/dcmitype/StillImage" /><dc:title></dc:title></cc:Work></rdf:RDF></metadata><defs
   id="defs11" /><sodipodi:namedview
   pagecolor="#ffffff"
   bordercolor="#666666"
   borderopacity="1"
   objecttolerance="10"
   gridtolerance="10"
   guidetolerance="10"
   inkscape:pageopacity="0"
   inkscape:pageshadow="2"
   inkscape:window-width="1280"
   inkscape:window-height="962"
   id="namedview9"
   showgrid="false"
   inkscape:zoom="14.75"
   inkscape:cx="-3.6271186"
   inkscape:cy="5.2881356"
   inkscape:window-x="-8"
   inkscape:window-y="-8"
   inkscape:window-maximized="1"
   inkscape:current-layer="Слой_1" />
	<path
   d="m 15.143034,15.350456 c 0,0.335405 -0.361999,0.606137 -0.807442,0.606137 H 1.6644073 c -0.4454426,0 -0.80744135,-0.272236 -0.80744135,-0.606137 l 0,0 c 0,-0.335407 0.36199875,-0.607642 0.80744135,-0.607642 H 14.335592 c 0.445443,0 0.807442,0.272235 0.807442,0.607642 l 0,0 z"
   id="path5"
   inkscape:connector-curvature="0"
   style="fill:#878787;fill-opacity:1" /><path
   d="m 9.252254,15.363195 c 0,0.1789 -0.5610988,0.322212 -1.2522539,0.322212 l 0,0 c -0.6948712,0 -1.2522545,-0.143312 -1.2522545,-0.322212 v -2.771021 c 0,-0.1789 0.5610991,-0.323174 1.2522546,-0.323174 l 0,0 c 0.694871,0 1.2522542,0.144274 1.2522542,0.323174 v 2.771021 z"
   id="path7"
   style="fill:#36a9e1;fill-opacity:1"
   inkscape:connector-curvature="0" /><path
   d="m 15.894656,5.709 -2.761,7.058 c -0.174,0.495 -0.525,0.685 -0.686,0.685 L 1.7976567,13.455 c -0.431,0 -0.782,-0.474 -0.782,-1.056 l 0.014,-9.06 -0.006,-2.677 c -0.001,-0.128 0.036,-0.251 0.102,-0.343 0.068,-0.09 0.159,-0.141 0.254,-0.141 h 2.77 c 0.148,0 0.28,0.124 0.333,0.309 l 0.506,1.796 c 0,0 6.1259993,0.022 8.7049993,0.118 0.125,0.005 0.425,-0.065 0.62,0.148 0.16,0.175 0.132,0.174 0.129,0.502 -0.005,0.442 0.096,1.681 0,2.331 l -0.655,0.044 c 0,0 0.16,-2.107 0.117,-2.158 -0.043,-0.047 -9.1619993,-0.024 -9.1619993,-0.024 -0.148,0 -0.28,-0.122 -0.333,-0.309 l -0.505,-1.795 h -2.176 l 0,2.195 v 9.063 c 0,0.051 0.031,0.093 0.069,0.093 h 0.838 l 2.483,-6.782 c 0.14,-0.378 0.405,-0.685 0.685,-0.685 h 0.396 2.9629996 0.613 c 1.4099997,0.013 5.6109997,0 5.6109997,0 0.281,0 0.672,0.255 0.508,0.685 z"
   id="path3"
   inkscape:connector-curvature="0"
   style="fill:#f9b233" />
	
	
</svg>