<?xml version="1.0" encoding="utf-8"?>
<!-- Generator: Adobe Illustrator 15.0.0, SVG Export Plug-In . SVG Version: 6.00 Build 0)  -->
<!DOCTYPE svg PUBLIC "-//W3C//DTD SVG 1.1//EN" "http://www.w3.org/Graphics/SVG/1.1/DTD/svg11.dtd">
<svg version="1.1" id="Слой_1" xmlns="http://www.w3.org/2000/svg" xmlns:xlink="http://www.w3.org/1999/xlink" x="0px" y="0px"
	 width="16px" height="16px" viewBox="0 0 16 16" enable-background="new 0 0 16 16" xml:space="preserve">
<path fill="#F9B233" d="M16.21,6.873L13.2,14.06c-0.189,0.505-0.571,0.698-0.746,0.698L0.852,14.76C0.382,14.76,0,14.278,0,13.684
	l0.015-9.225L0.008,1.732c-0.001-0.13,0.04-0.256,0.112-0.348C0.193,1.292,0.292,1.24,0.396,1.24h3.017
	c0.162,0,0.306,0.126,0.363,0.314l0.552,1.829c0,0,6.674,0.023,9.483,0.12c0.137,0.005,0.463-0.066,0.675,0.151
	c0.176,0.178,0.146,0.176,0.142,0.512c-0.006,0.45,0.104,1.711,0,2.373l-0.714,0.046c0,0,0.176-2.146,0.127-2.198
	c-0.045-0.048-9.98-0.024-9.98-0.024c-0.161,0-0.305-0.124-0.363-0.315L3.146,2.22H0.776l0,2.235v9.229
	c0,0.053,0.034,0.096,0.076,0.096h0.912l2.705-6.906c0.152-0.386,0.442-0.697,0.747-0.697h0.431h3.228h0.669
	c1.535,0.012,6.113,0,6.113,0C15.963,6.176,16.39,6.435,16.21,6.873z"/>
</svg>
