<?xml version="1.0" encoding="utf-8"?>
<!-- Generator: Adobe Illustrator 15.0.0, SVG Export Plug-In . SVG Version: 6.00 Build 0)  -->
<!DOCTYPE svg PUBLIC "-//W3C//DTD SVG 1.1//EN" "http://www.w3.org/Graphics/SVG/1.1/DTD/svg11.dtd">
<svg version="1.1" id="Слой_1" xmlns="http://www.w3.org/2000/svg" xmlns:xlink="http://www.w3.org/1999/xlink" x="0px" y="0px"
	 width="16px" height="16px" viewBox="0 0 16 16" enable-background="new 0 0 16 16" xml:space="preserve">
<path fill="#F9B233" d="M15.638,6.095l-0.241,7.956c-0.187,0.544-0.377,0.722-1.929,0.719L1.982,14.772
	c-0.465,0-0.843-0.52-0.843-1.16l0.015-9.947L1.146,0.726c-0.001-0.14,0.039-0.275,0.111-0.375c0.073-0.1,0.171-0.156,0.273-0.156
	h2.987c0.16,0,0.302,0.136,0.359,0.34l0.546,1.972c0,0,6.608,0.025,9.39,0.129c0.136,0.005,0.458-0.071,0.669,0.164
	c0.172,0.192,0.092,0.114,0.14,0.552c0.051,0.482,0.103,1.844,0,2.559l-0.709,0.048c0,0,0.011-2.324-0.036-2.379
	c-0.046-0.053-9.718-0.016-9.718-0.016c-0.16,0-0.302-0.135-0.359-0.34L4.254,1.251H1.907l0,2.411v9.95
	c0,0.058,0.034,0.103,0.075,0.103h0.903l0.01-7.374c0.107-0.343,0.4-0.677,0.702-0.677l3.132-0.146h3.196h0.661
	c1.521,0.014,4.352,0.115,4.352,0.115C15.241,5.632,15.654,5.544,15.638,6.095z"/>
<g>
	<path fill="#36A9E1" d="M-0.096,11.361c-0.2,2.343,1.446,4.412,3.678,4.621c2.23,0.209,4.201-1.521,4.401-3.86
		c0.2-2.344-1.448-4.413-3.678-4.622C2.075,7.291,0.104,9.02-0.096,11.361z"/>
	<path fill="#FFFFFF" d="M5.122,11.854c0,0,1.242,0.081,1.434-0.406c0.125-0.32-0.815-1.445-0.815-1.445S4.62,8.756,4.303,8.756
		C4.015,8.754,3.136,9.714,3.136,9.714s-1.283,1.398-1.079,1.779c0.217,0.405,1.405,0.359,1.405,0.359s-0.084,1.797-2.072,2.744
		c-0.423,0.201,1.238,0.201,1.933-0.249C4.708,13.452,5.122,11.854,5.122,11.854z"/>
</g>
</svg>
