<?xml version="1.0" encoding="UTF-8" standalone="no"?>
<!-- Generator: Adobe Illustrator 15.0.0, SVG Export Plug-In . SVG Version: 6.00 Build 0)  -->

<svg
   xmlns:dc="http://purl.org/dc/elements/1.1/"
   xmlns:cc="http://creativecommons.org/ns#"
   xmlns:rdf="http://www.w3.org/1999/02/22-rdf-syntax-ns#"
   xmlns:svg="http://www.w3.org/2000/svg"
   xmlns="http://www.w3.org/2000/svg"
   xmlns:sodipodi="http://sodipodi.sourceforge.net/DTD/sodipodi-0.dtd"
   xmlns:inkscape="http://www.inkscape.org/namespaces/inkscape"
   version="1.1"
   id="Слой_1"
   x="0px"
   y="0px"
   width="16px"
   height="16px"
   viewBox="0 0 16 16"
   enable-background="new 0 0 16 16"
   xml:space="preserve"
   inkscape:version="0.48.4 r9939"
   sodipodi:docname="folder.svg"><metadata
   id="metadata9"><rdf:RDF><cc:Work
       rdf:about=""><dc:format>image/svg+xml</dc:format><dc:type
         rdf:resource="http://purl.org/dc/dcmitype/StillImage" /></cc:Work></rdf:RDF></metadata><defs
   id="defs7" /><sodipodi:namedview
   pagecolor="#ffffff"
   bordercolor="#666666"
   borderopacity="1"
   objecttolerance="10"
   gridtolerance="10"
   guidetolerance="10"
   inkscape:pageopacity="0"
   inkscape:pageshadow="2"
   inkscape:window-width="1280"
   inkscape:window-height="962"
   id="namedview5"
   showgrid="false"
   inkscape:zoom="29.5"
   inkscape:cx="2.8791667"
   inkscape:cy="4.5083657"
   inkscape:window-x="-8"
   inkscape:window-y="-8"
   inkscape:window-maximized="1"
   inkscape:current-layer="Слой_1" />
<path
   d="m 15.439,6.5712851 0,7.7357149 c 0.0237,0.68009 -0.425246,1.220986 -0.969492,1.193 l -13.099509,0 C 0.88993168,15.5 0.49999947,14.965863 0.49999947,14.307229 L 0.51567514,4.0712851 0.50881703,1.0471888 C 0.5078373,0.90361446 0.54898593,0.76405622 0.62344534,0.66064257 0.69888449,0.55823293 0.79979659,0.5 0.90560734,0.5 l 3.08124826,0 c 0.1645945,0 0.3115539,0.14056225 0.3703376,0.34939759 l 0.564324,2.02911651 c 0,0 9.6634328,0.093901 9.6836428,0.1325301 0.140101,0.00502 0.473209,-0.073293 0.689729,0.1676707 0.17929,0.1977911 0.0961,0.1174698 0.144111,0.567269 0,0 -0.01417,2.616682 -9.1e-5,2.6325302 l -0.730878,0.050201 c 0,0 0.01096,-2.3915663 -0.03803,-2.4477912 -0.04605,-0.054217 -10.022807,-0.017068 -10.022807,-0.017068 -0.1645945,0 -0.3115538,-0.1385542 -0.3703376,-0.3504016 l -0.5633443,-2.0251009 -2.419931,0 0,2.4799197 0,10.2389559 c 0,0.05823 0.034291,0.105422 0.076419,0.105422 l 0.9317223,0 0.0098,-7.5883538 C 2.4232078,6.4708835 2.7249644,6.12751 3.0355386,6.12751 14.691849,6.1120151 2.9095888,6.1596307 14.67,6.0953815 c 0.313513,0 0.785656,-0.3300583 0.769,0.4759036 z"
   id="path3"
   inkscape:connector-curvature="0"
   style="fill:#f9b233"
   sodipodi:nodetypes="ccccccccsscccccccccccccssccccc" />
</svg>