<?xml version="1.0" encoding="utf-8"?>
<!-- Generator: Adobe Illustrator 15.0.0, SVG Export Plug-In . SVG Version: 6.00 Build 0)  -->
<!DOCTYPE svg PUBLIC "-//W3C//DTD SVG 1.1//EN" "http://www.w3.org/Graphics/SVG/1.1/DTD/svg11.dtd">
<svg version="1.1" id="Слой_1" xmlns="http://www.w3.org/2000/svg" xmlns:xlink="http://www.w3.org/1999/xlink" x="0px" y="0px"
	 width="16px" height="16px" viewBox="0 0 16 16" enable-background="new 0 0 16 16" xml:space="preserve">
<g>
	<path fill="#95C11F" d="M7.381,10.597c0.03-0.724-0.44-0.916-1.044-0.427l-1.201,0.973c-0.226-0.154-0.437-0.321-0.624-0.503
		c-0.065-0.064-0.125-0.13-0.185-0.197c-0.072-0.078-0.138-0.159-0.203-0.241c-0.055-0.072-0.112-0.146-0.162-0.22
		C3.878,9.859,3.803,9.734,3.736,9.604C3.707,9.548,3.68,9.49,3.652,9.432C3.588,9.297,3.534,9.159,3.485,9.016
		c-0.007-0.028-0.02-0.053-0.028-0.082C3.406,8.761,3.37,8.587,3.343,8.41C3.336,8.364,3.33,8.317,3.325,8.272
		C3.304,8.088,3.292,7.903,3.299,7.714c0-0.006,0.003-0.013,0.003-0.018C3.307,7.562,3.32,7.432,3.34,7.301
		c0.011-0.063,0.027-0.125,0.04-0.187C3.396,7.04,3.408,6.966,3.427,6.896c0.015-0.053,0.034-0.104,0.051-0.154
		C3.503,6.659,3.53,6.575,3.564,6.494c0.014-0.036,0.032-0.071,0.048-0.107c0.042-0.098,0.084-0.19,0.135-0.283
		c0.25-0.465,0.603-0.891,1.047-1.25C5.27,4.468,5.82,4.18,6.43,3.997c0.665-0.201,1.011-0.836,0.777-1.42
		c-0.233-0.587-0.96-0.899-1.625-0.699C4.64,2.161,3.789,2.606,3.056,3.199C2.39,3.739,1.86,4.376,1.474,5.073
		C1.467,5.082,1.46,5.088,1.457,5.1C1.45,5.107,1.448,5.115,1.443,5.123C1.359,5.279,1.285,5.439,1.216,5.602
		c-0.017,0.04-0.039,0.077-0.053,0.117C1.1,5.873,1.048,6.03,1.001,6.188c-0.016,0.049-0.036,0.099-0.05,0.149
		c-0.043,0.159-0.074,0.319-0.103,0.48C0.84,6.869,0.824,6.917,0.815,6.968C0.783,7.18,0.762,7.397,0.753,7.613
		c0,0.012,0.001,0.025,0.001,0.039C0.747,7.831,0.75,8.006,0.762,8.181c0.002,0.061,0.008,0.123,0.015,0.184
		C0.791,8.5,0.808,8.633,0.829,8.765c0.009,0.061,0.019,0.117,0.029,0.177C0.892,9.109,0.932,9.276,0.979,9.44
		c0.005,0.015,0.008,0.03,0.013,0.046c0.057,0.192,0.127,0.381,0.205,0.565c0.007,0.021,0.017,0.037,0.023,0.056
		c0.077,0.175,0.16,0.348,0.253,0.517c0.006,0.01,0.012,0.021,0.019,0.033c0.423,0.762,1.015,1.449,1.752,2.018l-1.18,0.951
		c-0.602,0.489-0.422,0.916,0.401,0.949l3.249,0.131c0.826,0.033,1.524-0.53,1.553-1.255L7.381,10.597z"/>
	<path fill="#95C11F" d="M8.773,2.36L8.658,5.212C8.628,5.936,9.098,6.128,9.7,5.64l1.204-0.973c0.223,0.153,0.43,0.317,0.618,0.5
		c0.068,0.066,0.131,0.134,0.19,0.202c0.07,0.076,0.134,0.154,0.194,0.231c0.061,0.079,0.12,0.156,0.174,0.236
		c0.079,0.12,0.154,0.241,0.218,0.367c0.031,0.059,0.061,0.117,0.088,0.176c0.061,0.133,0.117,0.27,0.164,0.409
		c0.01,0.03,0.021,0.058,0.029,0.087c0.054,0.172,0.088,0.346,0.114,0.523c0.008,0.046,0.013,0.093,0.019,0.139
		c0.019,0.183,0.031,0.369,0.023,0.556c-0.006,0.14-0.018,0.278-0.04,0.416c-0.009,0.058-0.023,0.116-0.037,0.172
		c-0.014,0.079-0.029,0.156-0.05,0.235c-0.013,0.049-0.034,0.098-0.048,0.146c-0.028,0.085-0.054,0.17-0.087,0.253
		c-0.015,0.036-0.034,0.074-0.05,0.111c-0.041,0.093-0.084,0.185-0.133,0.277c-0.253,0.464-0.604,0.892-1.047,1.25
		c-0.479,0.388-1.029,0.675-1.637,0.857c-0.665,0.199-1.013,0.836-0.778,1.422c0.233,0.584,0.961,0.898,1.627,0.697
		c0.938-0.283,1.789-0.728,2.523-1.322c0.668-0.54,1.199-1.176,1.583-1.872c0.006-0.009,0.013-0.018,0.018-0.027
		c0.005-0.007,0.009-0.016,0.012-0.021c0.089-0.16,0.164-0.325,0.234-0.491c0.016-0.036,0.034-0.069,0.049-0.104
		c0.063-0.16,0.114-0.324,0.166-0.489c0.014-0.043,0.03-0.086,0.041-0.131c0.049-0.165,0.082-0.337,0.111-0.508
		c0.008-0.041,0.021-0.08,0.026-0.121c0.032-0.212,0.056-0.428,0.065-0.646c0-0.011-0.003-0.022-0.003-0.035
		c0.007-0.181,0.003-0.359-0.008-0.537c-0.004-0.059-0.009-0.119-0.015-0.177c-0.014-0.138-0.03-0.273-0.052-0.409
		c-0.01-0.057-0.02-0.113-0.03-0.169c-0.033-0.172-0.074-0.344-0.125-0.513c-0.001-0.011-0.004-0.022-0.007-0.034
		c-0.058-0.193-0.129-0.384-0.206-0.571L14.82,5.712c-0.076-0.179-0.161-0.355-0.257-0.526c-0.006-0.009-0.011-0.019-0.015-0.029
		c-0.426-0.763-1.017-1.452-1.754-2.019l1.176-0.953c0.606-0.489,0.425-0.915-0.399-0.948l-3.247-0.131
		C9.5,1.072,8.801,1.638,8.773,2.36z"/>
</g>
</svg>
