<?xml version="1.0" encoding="utf-8"?>
<!-- Generator: Adobe Illustrator 15.0.0, SVG Export Plug-In . SVG Version: 6.00 Build 0)  -->
<!DOCTYPE svg PUBLIC "-//W3C//DTD SVG 1.1//EN" "http://www.w3.org/Graphics/SVG/1.1/DTD/svg11.dtd">
<svg version="1.1" id="Слой_1" xmlns="http://www.w3.org/2000/svg" xmlns:xlink="http://www.w3.org/1999/xlink" x="0px" y="0px"
	 width="16px" height="16px" viewBox="0 0 16 16" enable-background="new 0 0 16 16" xml:space="preserve">
<g>
	<path fill="#FFFFFF" d="M2.591,16.242C1.163,16.242,0,15.047,0,13.578V2.665C0,1.196,1.163,0,2.591,0h10.613
		c1.429,0,2.589,1.195,2.589,2.665v10.913c0,1.469-1.16,2.664-2.589,2.664H2.591z"/>
	<g>
		<path fill="#95C11F" d="M6.127,15.145c1.868-0.684,3.038-2.059,3.038-3.636c0-1.548-0.977-2.321-1.922-3.072L6.47,7.871
			c-0.208-0.16-0.405-0.313-0.405-0.584c0-0.275,0.214-0.478,0.461-0.714c0.277-0.204,0.629-0.465,0.947-0.785
			c0.78-0.029,1.567-0.061,2.331-0.061c1.667,0,3.349,0.136,4.997,0.402v6.762c0,1.244-1.072,2.253-2.391,2.253H6.127z"/>
		<path fill="#95C11F" d="M9.804,5.839c1.628,0,3.268,0.129,4.878,0.384v6.668c0,1.181-1.019,2.144-2.271,2.144H6.686
			c1.61-0.753,2.595-2.053,2.595-3.526c0-1.6-1.042-2.426-1.969-3.161L6.546,7.787c-0.225-0.175-0.363-0.291-0.363-0.5
			c0-0.218,0.162-0.384,0.409-0.621C6.86,6.467,7.189,6.224,7.495,5.927C8.315,5.868,9.07,5.839,9.804,5.839 M9.804,5.617
			c-0.817,0-1.623,0.037-2.417,0.096c-0.3,0.303-0.633,0.552-0.939,0.778c-0.264,0.25-0.5,0.472-0.5,0.795
			c0,0.324,0.229,0.5,0.45,0.671l0.771,0.564c0.929,0.735,1.879,1.49,1.879,2.986c0,1.572-1.261,3.145-3.659,3.748h7.022
			c1.381,0,2.508-1.063,2.508-2.365V6.036C13.273,5.765,11.563,5.617,9.804,5.617L9.804,5.617z"/>
	</g>
	<g>
		<path fill="#36A9E1" d="M4.58,6.23c-1.258,0-1.78-2.054-1.78-3.152c0-0.537,0.098-0.944,0.301-1.24
			c0.137-0.205,0.5-0.571,0.721-0.658l0.653,0.005c0.83,0.37,1.359,2.231,1.359,3.4c0,0.198,0,0.801-0.331,1.194
			C5.279,6.045,4.899,6.23,4.58,6.23L4.58,6.23z"/>
		<path fill="#36A9E1" d="M4.439,1.296c0.807,0.39,1.301,2.167,1.301,3.29c0,0.187,0,0.755-0.303,1.115
			C5.232,5.943,4.872,6.119,4.58,6.119c-1.178,0-1.688-2.015-1.688-3.042c0-0.512,0.092-0.894,0.281-1.171
			c0.122-0.181,0.447-0.512,0.651-0.61H4.439 M4.474,1.074H3.791c-0.25,0.101-0.625,0.488-0.764,0.693
			C2.812,2.084,2.706,2.513,2.706,3.078c0,1.137,0.55,3.263,1.874,3.263c0.342,0,0.749-0.199,0.989-0.483
			c0.358-0.426,0.358-1.063,0.358-1.272C5.927,3.463,5.423,1.488,4.474,1.074L4.474,1.074z"/>
	</g>
	<g>
		<path fill="#E6332A" d="M14.801,5.904c-1.649-0.265-3.33-0.398-4.997-0.398c-0.684,0-1.387,0.025-2.14,0.077
			c0.53-0.614,0.778-1.293,0.778-2.117c0-0.853-0.297-1.62-0.886-2.281h4.854c1.318,0,2.391,1.011,2.391,2.253V5.904z"/>
		<path fill="#E6332A" d="M12.41,1.296c1.253,0,2.271,0.961,2.271,2.143v2.335c-1.611-0.251-3.25-0.378-4.878-0.378
			c-0.608,0-1.229,0.019-1.89,0.059C8.353,4.873,8.56,4.23,8.56,3.466c0-0.803-0.256-1.53-0.761-2.17H12.41 M12.41,1.074H7.294
			c0.489,0.488,1.03,1.254,1.03,2.392c0,1.036-0.419,1.724-0.938,2.247c0.794-0.059,1.6-0.096,2.417-0.096
			c1.76,0,3.47,0.148,5.114,0.418V3.438C14.918,2.138,13.791,1.074,12.41,1.074L12.41,1.074z"/>
	</g>
	<g>
		<path fill="#36A9E1" d="M1.104,5.759c0.318,0.571,0.76,1.004,1.294,1.264c0.444,0.272,0.91,0.416,1.379,0.42
			C3.768,7.519,3.76,7.607,3.76,7.709c0,0.46,0.123,0.801,0.255,1.061C3.193,8.854,2.07,9.052,1.19,9.692
			C1.16,9.714,1.132,9.736,1.104,9.758V5.759z"/>
		<g>
			<path fill="#36A9E1" d="M1.198,6.097c0.308,0.454,0.7,0.802,1.152,1.021c0.43,0.263,0.875,0.408,1.323,0.433
				C3.669,7.599,3.667,7.652,3.667,7.709c0,0.4,0.088,0.715,0.196,0.966C3.065,8.767,2.032,8.973,1.198,9.558V6.097 M1.011,5.349
				v4.628c0.075-0.063,0.143-0.13,0.229-0.19c0.929-0.676,2.138-0.849,2.94-0.923C4.004,8.564,3.854,8.207,3.854,7.709
				c0-0.147,0.017-0.268,0.039-0.38C3.864,7.33,3.833,7.333,3.806,7.333c-0.497,0-0.961-0.161-1.372-0.412
				C1.771,6.597,1.298,6.019,1.011,5.349L1.011,5.349z"/>
		</g>
	</g>
	<g>
		<path fill="#F9B233" d="M4.698,13.329c-1.26-0.01-2.106-0.677-2.106-1.666c0-0.947,0.752-1.27,0.999-1.375
			c0.567-0.226,1.327-0.24,1.334-0.24c0.108,0,0.167,0.001,0.236,0.007c0.939,0.82,1.247,1.183,1.247,1.811
			C6.408,12.757,5.769,13.304,4.698,13.329L4.698,13.329z"/>
		<path fill="#F9B233" d="M4.937,10.158c0.069,0,0.118,0,0.167,0.004c0.922,0.787,1.211,1.132,1.211,1.703
			c0,0.824-0.605,1.33-1.614,1.353c-1.205-0.008-2.015-0.632-2.015-1.555c0-0.779,0.534-1.098,0.933-1.27
			c0.561-0.224,1.301-0.235,1.307-0.235H4.937 M4.937,9.937c-0.004,0-0.007,0-0.012,0c-0.007,0-0.777,0.014-1.366,0.248
			c-0.262,0.111-1.061,0.454-1.061,1.479c0,1.057,0.884,1.768,2.201,1.775c1.11-0.024,1.802-0.619,1.802-1.573
			c0-0.702-0.372-1.103-1.333-1.921C5.097,9.938,5.037,9.937,4.937,9.937L4.937,9.937z"/>
	</g>
</g>
</svg>
