<?xml version="1.0" encoding="UTF-8" standalone="no"?>
<svg
   xmlns:dc="http://purl.org/dc/elements/1.1/"
   xmlns:cc="http://creativecommons.org/ns#"
   xmlns:rdf="http://www.w3.org/1999/02/22-rdf-syntax-ns#"
   xmlns:svg="http://www.w3.org/2000/svg"
   xmlns="http://www.w3.org/2000/svg"
   xml:space="preserve"
   width="16px"
   viewBox="0 0 16 16"
   version="1.1"
   id="Layer_1"
   height="16px"
   enable-background="new 0 0 16 16"><g
     transform="scale(0.12552966,0.12552966)"
     id="g3"><circle
       style="fill:#d95032"
       id="circle5"
       r="64"
       cy="64"
       cx="64" /><g
       id="g7"><g
         id="g9"><path
           style="fill:#ffffff"
           id="path11"
           d="m 49.424,97.875 c -19.018,0 -34.491,-15.193 -34.491,-33.874 0,-18.68 15.473,-33.875 34.491,-33.875 8.318,0 16.354,2.952 22.624,8.309 l -8.771,9.899 c -3.838,-3.279 -8.758,-5.086 -13.853,-5.086 -11.652,0 -21.13,9.31 -21.13,20.752 0,11.441 9.479,20.75 21.13,20.75 9.858,0 16.311,-4.723 18.407,-13.197 l -18.244,0 0,-13.121 32.347,0 0,6.562 c 0,19.665 -13.065,32.881 -32.51,32.881 z" /></g><polygon
         style="fill:#ffffff"
         id="polygon13"
         points="99.934,48.438 99.934,58.438 89.934,58.438 89.934,66.438 99.934,66.438 99.934,76.438 107.934,76.438 107.934,66.438 117.934,66.438 117.934,58.438 107.934,58.438 107.934,48.438 " /></g></g></svg>