<?xml version="1.0" encoding="utf-8"?>
<!-- Generator: Adobe Illustrator 15.0.0, SVG Export Plug-In . SVG Version: 6.00 Build 0)  -->
<!DOCTYPE svg PUBLIC "-//W3C//DTD SVG 1.1//EN" "http://www.w3.org/Graphics/SVG/1.1/DTD/svg11.dtd">
<svg version="1.1" id="Слой_1" xmlns="http://www.w3.org/2000/svg" xmlns:xlink="http://www.w3.org/1999/xlink" x="0px" y="0px"
	 width="16px" height="16px" viewBox="0 0 16 16" enable-background="new 0 0 16 16" xml:space="preserve">
<g>
	<g>
		<ellipse fill="#95C11F" cx="3.846" cy="5.123" rx="2.572" ry="2.654"/>
		<path fill="#95C11F" d="M4.97,3.452c0.085,0.606,0.525,1.466,0.974,1.892C5.848,6.451,4.947,7.323,3.85,7.323
			c-1.566,0-2.058-1.425-2.103-2.201c0.003-0.279,0.058-0.545,0.155-0.789C2.481,4.279,4.861,3.787,4.97,3.452z"/>
		<path fill="#95C11F" d="M5.783,7.322C5.272,7.801,4.599,8.095,3.859,8.101V8.099c-0.006,0-0.011,0.002-0.016,0.002
			c-0.005,0-0.009-0.002-0.015-0.002v0.002c-0.742-0.006-1.415-0.3-1.924-0.779C0.972,7.501,0.266,8.344,0.266,9.358v2.303h3.563
			h0.031h3.562V9.358C7.421,8.344,6.715,7.501,5.783,7.322z"/>
	</g>
	<g>
		<ellipse fill="#95C11F" cx="12.16" cy="4.946" rx="2.571" ry="2.654"/>
		<path fill="#95C11F" d="M13.283,3.275c0.086,0.606,0.525,1.466,0.975,1.892c-0.096,1.107-0.996,1.979-2.094,1.979
			c-1.566,0-2.058-1.425-2.103-2.202c0.003-0.278,0.058-0.545,0.155-0.789C10.795,4.103,13.176,3.61,13.283,3.275z"/>
		<path fill="#95C11F" d="M14.097,7.145c-0.511,0.479-1.183,0.773-1.923,0.779V7.922c-0.006,0-0.012,0.002-0.017,0.002
			s-0.009-0.002-0.015-0.002v0.002c-0.741-0.006-1.414-0.3-1.924-0.779C9.286,7.324,8.58,8.167,8.58,9.182v2.303h3.563h0.031h3.562
			V9.182C15.735,8.167,15.029,7.324,14.097,7.145z"/>
	</g>
	<path fill="#36A9E1" d="M8.386,9.276c2.08,0,3.772-2.061,3.772-4.595c0-2.538-1.692-4.598-3.772-4.598
		c-2.081,0-3.772,2.06-3.772,4.598C4.613,7.216,6.305,9.276,8.386,9.276z"/>
	<path fill="#FFFFFF" d="M10.034,1.788c0.124,1.05,0.77,2.539,1.429,3.274C11.322,6.98,10.001,8.49,8.392,8.49
		c-2.296,0-3.017-2.467-3.083-3.813c0.005-0.481,0.085-0.942,0.227-1.364C6.385,3.221,9.875,2.367,10.034,1.788z"/>
	<path fill="#36A9E1" d="M11.227,8.489C10.478,9.317,9.49,9.827,8.406,9.837V9.833c-0.009,0-0.016,0.004-0.024,0.004
		c-0.006,0-0.013-0.004-0.021-0.004v0.004c-1.087-0.01-2.075-0.52-2.821-1.348C4.171,8.8,3.136,10.257,3.136,12.014V16h5.225h0.045
		h5.223v-3.986C13.629,10.257,12.593,8.8,11.227,8.489z"/>
</g>
</svg>
