<?xml version="1.0" encoding="utf-8"?>
<!-- Generator: Adobe Illustrator 15.0.0, SVG Export Plug-In . SVG Version: 6.00 Build 0)  -->
<!DOCTYPE svg PUBLIC "-//W3C//DTD SVG 1.1//EN" "http://www.w3.org/Graphics/SVG/1.1/DTD/svg11.dtd">
<svg version="1.1" id="Слой_1" xmlns="http://www.w3.org/2000/svg" xmlns:xlink="http://www.w3.org/1999/xlink" x="0px" y="0px"
	 width="16px" height="16px" viewBox="0 0 16 16" enable-background="new 0 0 16 16" xml:space="preserve">
<g>
	<polyline fill="#FFFFFF" stroke="#95C11F" stroke-miterlimit="10" points="7.981,14.66 9.888,11.529 11.879,14.66 	"/>
	<rect x="4.328" y="1.855" fill="#FFFFFF" stroke="#95C11F" stroke-miterlimit="10" width="11.12" height="9.674"/>
	<g>
		<g>
			<ellipse fill="#808184" cx="5.75" cy="4.273" rx="1.754" ry="1.309"/>
			<path fill="#808184" d="M0.217,3.355c0.289-0.217,0.76-0.217,1.05,0l3.515,2.624c0.27-0.119,0.583-0.188,0.918-0.188
				c0.343,0,0.663,0.073,0.936,0.198h5.371c0.411,0,0.743,0.247,0.743,0.554c0,0.305-0.332,0.554-0.743,0.554H7.5
				c0.001,0.013,0.003,0.026,0.003,0.04v3.165c0,0.068-0.009,0.135-0.022,0.199c0.013,0.039,0.022,0.084,0.022,0.127v4.908
				c0,0.305-0.333,0.553-0.743,0.553c-0.41,0-0.742-0.246-0.742-0.553v-3.912c-0.103,0.014-0.21,0.021-0.317,0.021
				c-0.11,0-0.215-0.008-0.319-0.021v3.912c0,0.305-0.332,0.553-0.742,0.553c-0.409,0-0.741-0.246-0.741-0.553v-4.908
				c0-0.043,0.008-0.088,0.021-0.127c-0.013-0.064-0.021-0.131-0.021-0.199V7.136c0-0.079,0.011-0.155,0.028-0.23L0.217,4.138
				C-0.072,3.921-0.072,3.57,0.217,3.355z"/>
		</g>
	</g>
	<rect x="9.023" y="0.86" fill="#FFFFFF" stroke="#95C11F" stroke-miterlimit="10" width="1.623" height="0.892"/>
</g>
</svg>
