<?xml version="1.0" encoding="utf-8"?>
<!-- Generator: Adobe Illustrator 15.0.0, SVG Export Plug-In . SVG Version: 6.00 Build 0)  -->
<!DOCTYPE svg PUBLIC "-//W3C//DTD SVG 1.1//EN" "http://www.w3.org/Graphics/SVG/1.1/DTD/svg11.dtd">
<svg version="1.1" id="Слой_1" xmlns="http://www.w3.org/2000/svg" xmlns:xlink="http://www.w3.org/1999/xlink" x="0px" y="0px"
	 width="16px" height="16px" viewBox="0 0 16 16" enable-background="new 0 0 16 16" xml:space="preserve">
<g>
	<rect x="1.257" y="5.15" fill-rule="evenodd" clip-rule="evenodd" fill="#0071BC" width="1.27" height="2.094"/>
	<polygon fill-rule="evenodd" clip-rule="evenodd" fill="#0071BC" points="1.257,1.384 1.257,3.476 2.527,3.476 2.527,2.64 
		3.366,2.64 3.366,1.384 	"/>
	<rect x="5.053" y="1.384" fill-rule="evenodd" clip-rule="evenodd" fill="#0071BC" width="2.109" height="1.256"/>
	<g>
		<rect x="8.836" y="1.384" fill-rule="evenodd" clip-rule="evenodd" fill="#0071BC" width="2.11" height="1.261"/>
		<polygon fill-rule="evenodd" clip-rule="evenodd" fill="#0071BC" points="14.743,1.384 12.634,1.384 12.634,2.645 13.478,2.645 
			13.478,3.476 14.743,3.476 		"/>
		<rect x="13.478" y="5.15" fill-rule="evenodd" clip-rule="evenodd" fill="#0071BC" width="1.266" height="2.092"/>
	</g>
	<g>
		<rect x="13.471" y="8.755" fill-rule="evenodd" clip-rule="evenodd" fill="#0071BC" width="1.271" height="2.094"/>
		<polygon fill-rule="evenodd" clip-rule="evenodd" fill="#0071BC" points="14.741,14.616 14.741,12.524 13.471,12.524 
			13.471,13.36 12.632,13.36 12.632,14.616 		"/>
		<rect x="8.836" y="13.36" fill-rule="evenodd" clip-rule="evenodd" fill="#0071BC" width="2.108" height="1.256"/>
	</g>
	<rect x="5.053" y="13.354" fill-rule="evenodd" clip-rule="evenodd" fill="#0071BC" width="2.111" height="1.261"/>
	<polygon fill-rule="evenodd" clip-rule="evenodd" fill="#0071BC" points="1.257,14.614 3.367,14.614 3.367,13.354 2.523,13.354 
		2.523,12.522 1.257,12.522 	"/>
	<rect x="1.257" y="8.755" fill-rule="evenodd" clip-rule="evenodd" fill="#0071BC" width="1.266" height="2.092"/>
</g>
<g>
	<rect x="4.601" y="6.472" fill-rule="evenodd" clip-rule="evenodd" fill="#0071BC" width="0.64" height="1.165"/>
	<polygon fill-rule="evenodd" clip-rule="evenodd" fill="#0071BC" points="4.601,4.373 4.601,5.539 5.241,5.539 5.241,5.073 
		5.664,5.073 5.664,4.373 	"/>
	<rect x="6.514" y="4.373" fill-rule="evenodd" clip-rule="evenodd" fill="#0071BC" width="1.063" height="0.7"/>
	<g>
		<rect x="8.421" y="4.373" fill-rule="evenodd" clip-rule="evenodd" fill="#0071BC" width="1.064" height="0.703"/>
		<polygon fill-rule="evenodd" clip-rule="evenodd" fill="#0071BC" points="11.398,4.373 10.335,4.373 10.335,5.076 10.761,5.076 
			10.761,5.539 11.398,5.539 		"/>
		<rect x="10.761" y="6.472" fill-rule="evenodd" clip-rule="evenodd" fill="#0071BC" width="0.638" height="1.164"/>
	</g>
	<g>
		<rect x="10.757" y="8.479" fill-rule="evenodd" clip-rule="evenodd" fill="#0071BC" width="0.641" height="1.166"/>
		<polygon fill-rule="evenodd" clip-rule="evenodd" fill="#0071BC" points="11.397,11.743 11.397,10.578 10.757,10.578 
			10.757,11.044 10.335,11.044 10.335,11.743 		"/>
		<rect x="8.421" y="11.044" fill-rule="evenodd" clip-rule="evenodd" fill="#0071BC" width="1.063" height="0.699"/>
	</g>
	<rect x="6.514" y="11.04" fill-rule="evenodd" clip-rule="evenodd" fill="#0071BC" width="1.064" height="0.702"/>
	<polygon fill-rule="evenodd" clip-rule="evenodd" fill="#0071BC" points="4.601,11.742 5.664,11.742 5.664,11.04 5.239,11.04 
		5.239,10.577 4.601,10.577 	"/>
	<rect x="4.601" y="8.479" fill-rule="evenodd" clip-rule="evenodd" fill="#0071BC" width="0.638" height="1.166"/>
</g>
</svg>
