<?xml version="1.0" encoding="utf-8"?>
<!-- Generator: Adobe Illustrator 15.0.0, SVG Export Plug-In . SVG Version: 6.00 Build 0)  -->
<!DOCTYPE svg PUBLIC "-//W3C//DTD SVG 1.1//EN" "http://www.w3.org/Graphics/SVG/1.1/DTD/svg11.dtd">
<svg version="1.1" id="Слой_1" xmlns="http://www.w3.org/2000/svg" xmlns:xlink="http://www.w3.org/1999/xlink" x="0px" y="0px"
	 width="16px" height="16px" viewBox="0 0 16 16" enable-background="new 0 0 16 16" xml:space="preserve">
<g>
	<g>
		<g>
			<g id="_x32_25._iPhone">
				<g>
					<path fill="#808184" d="M10.45-0.021H3.642c-0.94,0-1.702,0.634-1.702,1.419v11.357c0,0.784,0.762,1.42,1.702,1.42h6.809
						c0.94,0,1.702-0.636,1.702-1.42V1.397C12.152,0.613,11.391-0.021,10.45-0.021z M7.046,13.465c-0.471,0-0.851-0.318-0.851-0.71
						s0.38-0.709,0.851-0.709c0.47,0,0.85,0.317,0.85,0.709S7.517,13.465,7.046,13.465z M10.45,11.335H3.642V1.397h6.809V11.335z"/>
				</g>
			</g>
		</g>
		<rect x="4.379" y="3.927" fill="#808184" width="4.926" height="0.455"/>
		<rect x="4.379" y="5.708" fill="#808184" width="4.926" height="0.454"/>
	</g>
	<path fill="#95C11F" stroke="#FFFFFF" stroke-width="0.5" stroke-miterlimit="10" d="M14.917,16h-2.702l-2.01-2.133
		c0,0-1.821-1.501-1.633-2.556c0.189-1.057,1.088-1.255,1.446-0.999c0.308,0.221,0.606,0.824,1.192,1.166
		c0.587,0.342,1.288,0.37,1.288-0.167c0-0.5-0.032-3.614-0.032-3.614l2.451,2.956V16z"/>
</g>
</svg>
