<?xml version="1.0" encoding="utf-8"?>
<!-- Generator: Adobe Illustrator 15.0.0, SVG Export Plug-In . SVG Version: 6.00 Build 0)  -->
<!DOCTYPE svg PUBLIC "-//W3C//DTD SVG 1.1//EN" "http://www.w3.org/Graphics/SVG/1.1/DTD/svg11.dtd">
<svg version="1.1" id="Слой_1" xmlns="http://www.w3.org/2000/svg" xmlns:xlink="http://www.w3.org/1999/xlink" x="0px" y="0px"
	 width="16px" height="16px" viewBox="0 0 16 16" enable-background="new 0 0 16 16" xml:space="preserve">
<g>
	<g>
		<g>
			<path fill="none" stroke="#878787" stroke-miterlimit="10" d="M10.706,0.923c-2.491,0-4.51,1.918-4.51,4.284
				c0,0.267,0.034,0.525,0.083,0.777l-5.494,5.22v3.428h5.412V12.92H8v-1.715h1.803V9.492l0.083-0.08
				c0.267,0.047,0.539,0.08,0.819,0.08c2.49,0,4.51-1.918,4.51-4.285S13.196,0.923,10.706,0.923z M10.71,6.064
				c-0.499,0-0.902-0.384-0.902-0.856c0-0.474,0.403-0.857,0.902-0.857c0.498,0,0.9,0.384,0.9,0.857
				C11.61,5.68,11.208,6.064,10.71,6.064z"/>
		</g>
	</g>
	<g>
		<ellipse fill="#36A9E1" cx="10.863" cy="5.046" rx="4.349" ry="4.127"/>
		<path fill="#FFFFFF" stroke="#878787" stroke-miterlimit="10" d="M13.556,3.333c0.174,0.764-0.281,1.515-1.016,1.679
			c-0.734,0.163-1.471-0.323-1.644-1.087c-0.173-0.766,0.282-1.517,1.015-1.68C12.646,2.083,13.382,2.569,13.556,3.333z"/>
	</g>
</g>
</svg>
