<?xml version="1.0" encoding="UTF-8" standalone="no"?>
<svg
   xmlns:dc="http://purl.org/dc/elements/1.1/"
   xmlns:cc="http://creativecommons.org/ns#"
   xmlns:rdf="http://www.w3.org/1999/02/22-rdf-syntax-ns#"
   xmlns:svg="http://www.w3.org/2000/svg"
   xmlns="http://www.w3.org/2000/svg"
   xml:space="preserve"
   width="16px"
   viewBox="0 0 16 16"
   version="1.1"
   id="Layer_1"
   height="16px"
   enable-background="new 0 0 16 16"><metadata
     id="metadata19"><rdf:RDF><cc:Work
         rdf:about=""><dc:format>image/svg+xml</dc:format><dc:type
           rdf:resource="http://purl.org/dc/dcmitype/StillImage" /><dc:title></dc:title></cc:Work></rdf:RDF></metadata><defs
     id="defs17" /><path
     style="fill:#2c3e50"
     id="path3"
     d="M 15.960455,4.9311134 C 15.933706,4.636875 15.70634,4.2490151 15.425476,4.075147 L 12.362721,2.2562184 c -0.26749,-0.1604937 -0.655349,-0.254115 -1.003085,-0.254115 -0.187244,0 -0.361112,0.026749 -0.508231,0.080247 L 0.48618753,6.241812 C 0.07157878,6.4023057 -0.08891491,6.9640337 0.11170221,7.4455148 L 2.5592311,13.544275 c 0.1604938,0.38786 0.5082301,0.641975 0.8559665,0.641975 0.080247,0 0.1738681,-0.01338 0.254115,-0.05349 L 14.021156,9.9599197 c 0.414608,-0.1604932 0.842592,-0.6954723 0.976337,-1.1635789 l 0.949587,-3.3569933 0,0 c 0,0.02675 0.0535,-0.2273661 0.01338,-0.5082301 z M 15.425476,5.3323477 14.475888,8.662592 c -0.09362,0.3477364 -0.427983,0.7222217 -0.655349,0.8024686 L 3.4686955,13.637897 c -0.013374,0 -0.026749,0.01338 -0.053498,0.01338 -0.1203703,0 -0.2808641,-0.12037 -0.3611109,-0.307613 L 0.60655777,7.2448977 C 0.51293647,7.0175316 0.59318335,6.7901655 0.68680465,6.7500421 L 11.038648,2.5772058 c 0.06687,-0.026749 0.187242,-0.040124 0.307613,-0.040124 0.267489,0 0.548354,0.066872 0.735596,0.1738682 l 3.062755,1.8189286 c 0.133745,0.080247 0.267489,0.307613 0.280864,0.4547322 0.02675,0.1604938 0,0.307613 0,0.3477364 z" /><path
     style="fill:#3b97d3"
     id="path5"
     d="m 12.362721,4.5165047 c -0.829217,0 -1.497941,0.6687238 -1.497941,1.4979412 0,0.8292175 0.668724,1.4979413 1.497941,1.4979413 0.829218,0 1.497941,-0.6687238 1.497941,-1.4979413 0.01338,-0.8158429 -0.655349,-1.4979412 -1.497941,-1.4979412 z m 0,2.4742779 c -0.534979,0 -0.962962,-0.4413576 -0.962962,-0.9629622 0,-0.5216046 0.441358,-0.9629622 0.962962,-0.9629622 0.521605,0 0.962962,0.4413576 0.962962,0.9629622 0,0.5216046 -0.427983,0.9629622 -0.962962,0.9629622 z" /><path
     style="fill:#3b97d3"
     id="path7"
     d="m 3.2413294,9.3848137 c -0.053498,0 -0.1069959,-0.026749 -0.1203703,-0.080246 -0.026749,-0.066872 0,-0.1471193 0.080246,-0.1738681 L 8.95223,6.8570383 c 0.066872,-0.026749 0.1471192,0 0.1738681,0.080246 0.026749,0.066872 0,0.1471192 -0.080246,0.1738682 L 3.2948274,9.3848136 c -0.026749,-0.013374 -0.040124,0 -0.053498,0 z" /><path
     style="fill:#3b97d3"
     id="path9"
     d="m 3.6425636,10.401274 c -0.053498,0 -0.1069958,-0.02675 -0.1203702,-0.08025 -0.026749,-0.06687 0,-0.147118 0.080246,-0.173867 L 9.3534646,7.873498 c 0.066872,-0.026749 0.1471193,0 0.1738682,0.080246 0.026749,0.066872 0,0.1471192 -0.080247,0.1738682 L 3.696061,10.401274 c -0.026748,0 -0.040124,0 -0.053498,0 z" /><path
     style="fill:#3b97d3"
     id="path11"
     d="m 4.0437979,11.431108 c -0.053498,0 -0.1069958,-0.02675 -0.1203703,-0.08025 -0.026749,-0.06687 0,-0.14712 0.080246,-0.173868 L 9.7546985,8.9033297 c 0.066872,-0.026749 0.1471192,0 0.1738678,0.080246 0.026753,0.066872 0,0.1471193 -0.080246,0.1738682 L 4.0972959,11.431108 c -0.02675,0 -0.040124,0 -0.053498,0 z" /><path
     style="fill:#3b97d3"
     id="path13"
     d="m 2.7063503,8.3549791 c -0.053498,0 -0.1069957,-0.026749 -0.1203702,-0.080246 -0.02675,-0.066872 0,-0.1471192 0.080247,-0.1738681 L 8.4172514,5.827204 c 0.066872,-0.026748 0.1471193,0 0.1738682,0.080247 0.026749,0.066872 0,0.1471193 -0.080246,0.1738682 L 2.7598493,8.35498 c -0.026749,0 -0.040124,0 -0.053498,0 z" /></svg>