<?xml version="1.0" encoding="UTF-8" standalone="no"?>
<svg
   xmlns:dc="http://purl.org/dc/elements/1.1/"
   xmlns:cc="http://creativecommons.org/ns#"
   xmlns:rdf="http://www.w3.org/1999/02/22-rdf-syntax-ns#"
   xmlns:svg="http://www.w3.org/2000/svg"
   xmlns="http://www.w3.org/2000/svg"
   xml:space="preserve"
   width="16px"
   viewBox="0 0 16 16"
   version="1.0"
   id="Layer_1"
   height="16px"
   enable-background="new 0 0 16 16"><g
     transform="scale(0.5,0.5)"
     id="g3"><path
       style="fill:#007bb5"
       id="path5"
       d="m 32,30 c 0,1.104 -0.896,2 -2,2 L 2,32 C 0.896,32 0,31.104 0,30 L 0,2 C 0,0.896 0.896,0 2,0 l 28,0 c 1.104,0 2,0.896 2,2 l 0,28 z" /><g
       id="g7"><rect
         style="fill:#ffffff"
         id="rect9"
         y="11"
         x="7"
         width="4"
         height="14" /><path
         style="fill:#ffffff"
         id="path11"
         d="M 20.499,11 C 17.708,11 17.228,12.018 17,13 l 0,-2 -4,0 0,14 4,0 0,-8 c 0,-1.297 0.703,-2 2,-2 1.266,0 2,0.688 2,2 l 0,8 4,0 0,-7 c 0,-4 -0.521,-7 -4.501,-7 z" /><circle
         style="fill:#ffffff"
         id="circle13"
         r="2"
         cy="8"
         cx="9" /></g></g><g
     id="g15" /><g
     id="g17" /><g
     id="g19" /><g
     id="g21" /><g
     id="g23" /><g
     id="g25" /></svg>