<?xml version="1.0" encoding="utf-8"?>
<!-- Generator: Adobe Illustrator 15.0.0, SVG Export Plug-In . SVG Version: 6.00 Build 0)  -->
<!DOCTYPE svg PUBLIC "-//W3C//DTD SVG 1.1//EN" "http://www.w3.org/Graphics/SVG/1.1/DTD/svg11.dtd">
<svg version="1.1" id="Слой_1" xmlns="http://www.w3.org/2000/svg" xmlns:xlink="http://www.w3.org/1999/xlink" x="0px" y="0px"
	 width="16px" height="16px" viewBox="0 0 16 16" enable-background="new 0 0 16 16" xml:space="preserve">
<g>
	<path fill="#95C11F" d="M14.349,14.994l0.065-0.06c1.456-1.378,1.507-3.687,0.116-5.131L11.306,6.46
		C9.911,5.016,7.583,4.963,6.125,6.341l-0.062,0.06C5.94,6.516,5.832,6.638,5.729,6.764L6.91,7.989
		c0.086-0.138,0.188-0.269,0.314-0.386l0.062-0.058c0.791-0.749,2.05-0.72,2.803,0.063l3.229,3.344
		c0.755,0.783,0.726,2.029-0.063,2.778l-0.063,0.06c-0.791,0.748-2.051,0.719-2.806-0.064l-1.459-1.513
		c-0.647,0.242-1.333,0.349-2.011,0.323l2.256,2.339C10.562,16.318,12.893,16.373,14.349,14.994z"/>
	<path fill="#36A9E1" d="M9.704,10.055c0.121-0.116,0.232-0.238,0.333-0.363L8.855,8.467C8.77,8.603,8.667,8.734,8.546,8.851
		L8.483,8.911C7.69,9.658,6.433,9.63,5.678,8.846L2.449,5.503C1.694,4.718,1.723,3.472,2.513,2.723l0.065-0.059
		c0.79-0.748,2.048-0.719,2.804,0.064l1.458,1.513c0.646-0.242,1.332-0.348,2.012-0.322l-2.257-2.34
		C5.203,0.136,2.873,0.083,1.418,1.461L1.354,1.52c-1.456,1.379-1.508,3.688-0.116,5.131l3.225,3.344
		c1.392,1.442,3.722,1.496,5.18,0.117L9.704,10.055z"/>
</g>
</svg>
