<?xml version="1.0" encoding="utf-8"?>
<!-- Generator: Adobe Illustrator 15.0.0, SVG Export Plug-In . SVG Version: 6.00 Build 0)  -->
<!DOCTYPE svg PUBLIC "-//W3C//DTD SVG 1.1//EN" "http://www.w3.org/Graphics/SVG/1.1/DTD/svg11.dtd">
<svg version="1.1" id="Слой_1" xmlns="http://www.w3.org/2000/svg" xmlns:xlink="http://www.w3.org/1999/xlink" x="0px" y="0px"
	 width="16px" height="16px" viewBox="0 0 16 16" enable-background="new 0 0 16 16" xml:space="preserve">
<g>
	<path fill="#36A9E1" stroke="#FFFFFF" stroke-width="0.5" stroke-miterlimit="10" d="M9.105,0.372c-3.04,0-5.516,2.138-5.516,4.767
		v0.953h-2.21v6.674c0,1.575,1.487,2.861,3.31,2.861h6.623c1.828,0,3.31-1.286,3.31-2.861V5.139
		C14.621,2.51,12.146,0.372,9.105,0.372 M5.798,5.139c0-1.579,1.485-2.86,3.308-2.86c1.826,0,3.309,1.281,3.309,2.86v0.953H5.798
		V5.139z M11.312,13.72H4.688c-0.607,0-1.104-0.428-1.104-0.953V8h8.83v4.767C12.414,13.292,11.921,13.72,11.312,13.72"/>
	<path fill="#36A9E1" stroke="#FFFFFF" stroke-width="0.5" stroke-miterlimit="10" d="M9.105,10.86c0,0.523-0.495,0.953-1.103,0.953
		c-0.612,0-1.104-0.43-1.104-0.953c0-0.529,0.492-0.953,1.104-0.953C8.61,9.907,9.105,10.331,9.105,10.86"/>
</g>
</svg>
