<?xml version="1.0" encoding="utf-8"?>
<!-- Generator: Adobe Illustrator 15.0.0, SVG Export Plug-In . SVG Version: 6.00 Build 0)  -->
<!DOCTYPE svg PUBLIC "-//W3C//DTD SVG 1.1//EN" "http://www.w3.org/Graphics/SVG/1.1/DTD/svg11.dtd">
<svg version="1.1" id="Слой_1" xmlns="http://www.w3.org/2000/svg" xmlns:xlink="http://www.w3.org/1999/xlink" x="0px" y="0px"
	 width="16px" height="16px" viewBox="0 0 16 16" enable-background="new 0 0 16 16" xml:space="preserve">
<g>
	<polygon fill="#36A9E1" points="15.883,0.138 15.883,9.96 11.692,12.226 11.692,9.96 7.5,9.96 7.5,6.938 8.198,6.938 8.198,9.204 
		11.692,9.204 11.692,2.405 14.486,0.894 8.198,0.894 8.198,3.916 7.5,3.916 7.5,0.138 	"/>
	<g>
		<g>
			<ellipse fill="#808184" cx="7.359" cy="4.533" rx="0.986" ry="1.244"/>
			<path fill="#808184" d="M1.776,11.111c1.034,0.763,1.654-0.355,2.12-1.434C3.917,9.573,3.948,9.47,3.991,9.363
				c0.362-0.888,0.739-1.767,1.135-2.63C4.353,6.423,3.648,6.706,3.093,7.687c-0.45,0.797-1.506,0.032-1.05-0.774
				C3.117,5.015,4.717,4.544,6.32,5.745c0.066,0.049,0.12,0.108,0.164,0.171c0.023,0.012,0.047,0.025,0.072,0.04
				C6.62,5.972,6.688,6.003,6.754,6.055c0.997,0.746,1.923,0.604,2.614-0.617c0.451-0.797,1.506-0.033,1.05,0.774
				C9.535,7.77,8.297,8.362,6.995,7.86c-0.408,0.885-0.797,1.787-1.171,2.697c0.551,0.355,1.063,0.798,1.537,1.318
				c0.02,0.023,0.039,0.047,0.056,0.07c0.102,0.066,0.194,0.18,0.259,0.347c0.318,0.831,0.638,1.663,0.957,2.493
				c0.342,0.894-0.76,1.54-1.101,0.652c-0.304-0.79-0.607-1.581-0.91-2.37c-0.042-0.029-0.083-0.064-0.121-0.107
				c-0.549-0.604-1.181-1.095-1.87-1.397c-0.035-0.015-0.066-0.033-0.094-0.053c-0.845,1.354-2.025,2.098-3.437,1.057
				C0.356,12.021,1.031,10.562,1.776,11.111z"/>
		</g>
	</g>
</g>
</svg>
