<?xml version="1.0" encoding="utf-8"?>
<!-- Generator: Adobe Illustrator 15.0.0, SVG Export Plug-In . SVG Version: 6.00 Build 0)  -->
<!DOCTYPE svg PUBLIC "-//W3C//DTD SVG 1.1//EN" "http://www.w3.org/Graphics/SVG/1.1/DTD/svg11.dtd">
<svg version="1.1" id="Слой_1" xmlns="http://www.w3.org/2000/svg" xmlns:xlink="http://www.w3.org/1999/xlink" x="0px" y="0px"
	 width="16px" height="16px" viewBox="0 0 16 16" enable-background="new 0 0 16 16" xml:space="preserve">
<g>
	<g>
		<path fill="#36A9E1" d="M14.355,1.937v13.136H2.622c-0.54,0-0.978-0.452-0.978-1.01c0-0.559,0.438-1.011,0.978-1.011h10.755
			V-0.084H2.622c-1.08,0-1.956,0.905-1.956,2.021v12.126c0,1.115,0.875,2.021,1.956,2.021h12.712V1.937H14.355z"/>
	</g>
	<g>
		<path fill="#F5F5F5" d="M9.235,10.043c-0.895,0.361-1.805,0.498-2.894,0.498c-2.667,0-4.927-1.496-4.927-3.9
			c0-2.568,2.325-4.799,5.935-4.799c2.829,0,4.715,1.533,4.715,3.614c0,1.87-1.365,2.966-2.879,2.966
			c-0.649,0-1.251-0.324-1.219-1.096H7.918C7.349,8.061,6.601,8.422,5.626,8.422c-0.943,0-1.756-0.586-1.756-1.57
			c0-1.545,1.594-2.954,3.854-2.954c0.683,0,1.317,0.112,1.74,0.262L8.91,6.416C8.666,7.363,8.861,7.799,9.398,7.812
			c0.828,0.024,1.756-0.835,1.756-2.268c0-1.82-1.414-3.128-3.936-3.128c-2.65,0-4.877,1.62-4.877,4.15
			c0,2.081,1.772,3.377,4.179,3.377c0.926,0,1.788-0.149,2.455-0.437L9.235,10.043z M8.341,4.658c-0.163-0.049-0.438-0.1-0.813-0.1
			c-1.431,0-2.585,1.034-2.585,2.243c0,0.549,0.358,0.947,1.073,0.947c0.943,0,1.805-0.923,1.984-1.694L8.341,4.658z"/>
	</g>
</g>
</svg>
