<?xml version="1.0" encoding="utf-8"?>
<!-- Generator: Adobe Illustrator 15.0.0, SVG Export Plug-In . SVG Version: 6.00 Build 0)  -->
<!DOCTYPE svg PUBLIC "-//W3C//DTD SVG 1.1//EN" "http://www.w3.org/Graphics/SVG/1.1/DTD/svg11.dtd">
<svg version="1.1" id="Слой_1" xmlns="http://www.w3.org/2000/svg" xmlns:xlink="http://www.w3.org/1999/xlink" x="0px" y="0px"
	 width="16px" height="16px" viewBox="0 0 16 16" enable-background="new 0 0 16 16" xml:space="preserve">
<g>
	<g>
		<path fill="#808184" d="M13.524,5.365L11.763,3.6C11.378,3.215,10.619,2.9,10.077,2.9H4.154c-0.542,0-0.987,0.445-0.987,0.989
			v10.68c0,0.544,0.445,0.988,0.987,0.988h9.081c0.543,0,0.987-0.444,0.987-0.988V7.054C14.223,6.51,13.909,5.75,13.524,5.365z
			 M12.966,5.924c0.039,0.039,0.078,0.087,0.115,0.141h-2.017V4.044c0.054,0.038,0.101,0.076,0.139,0.115L12.966,5.924z
			 M13.433,14.569c0,0.107-0.09,0.197-0.197,0.197H4.154c-0.106,0-0.198-0.09-0.198-0.197V3.89c0-0.108,0.092-0.198,0.198-0.198
			h5.923c0.06,0,0.127,0.008,0.197,0.021v3.144h3.138c0.014,0.07,0.021,0.138,0.021,0.197V14.569z"/>
	</g>
	<rect x="5.188" y="8.845" fill="#808184" width="7.012" height="0.77"/>
	<rect x="5.188" y="11.283" fill="#808184" width="7.012" height="0.771"/>
</g>
<path fill="#FBB03B" stroke="#F9B233" stroke-width="0.5" stroke-miterlimit="10" d="M9.202,4.058
	C9.166,4.016,9.118,3.993,9.062,3.986L8.03,3.88c-0.068-0.254-0.169-0.5-0.299-0.735l0.657-0.833
	c0.039-0.047,0.058-0.099,0.056-0.154C8.44,2.101,8.42,2.052,8.38,2.011L7.748,1.355c-0.04-0.041-0.091-0.062-0.153-0.062
	c-0.051,0-0.096,0.017-0.137,0.053L6.657,2.029c-0.229-0.136-0.464-0.24-0.709-0.311L5.847,0.646C5.841,0.587,5.817,0.538,5.778,0.5
	C5.738,0.462,5.69,0.443,5.633,0.443H4.746c-0.058,0-0.104,0.019-0.145,0.057S4.539,0.587,4.532,0.646L4.431,1.718
	C4.187,1.789,3.95,1.893,3.722,2.029L2.921,1.346C2.875,1.311,2.829,1.293,2.784,1.293c-0.063,0-0.113,0.021-0.153,0.062L2,2.011
	c-0.04,0.041-0.062,0.09-0.063,0.146C1.933,2.213,1.952,2.265,1.991,2.312l0.656,0.833C2.518,3.381,2.417,3.626,2.35,3.88
	L1.317,3.986c-0.057,0.007-0.104,0.03-0.141,0.072C1.14,4.099,1.122,4.149,1.122,4.208v0.921c0,0.059,0.018,0.109,0.055,0.151
	s0.084,0.064,0.141,0.071L2.35,5.458c0.067,0.254,0.168,0.5,0.298,0.735L1.991,7.025C1.952,7.073,1.933,7.124,1.937,7.181
	C1.938,7.237,1.96,7.286,2,7.327l0.631,0.655c0.04,0.041,0.091,0.062,0.153,0.062c0.045,0,0.091-0.018,0.137-0.053L3.722,7.31
	C3.95,7.444,4.187,7.548,4.431,7.618L4.532,8.69c0.007,0.06,0.029,0.108,0.069,0.146s0.087,0.059,0.145,0.059h0.887
	c0.058,0,0.105-0.021,0.146-0.059C5.817,8.799,5.841,8.75,5.847,8.69l0.102-1.072c0.245-0.07,0.48-0.174,0.709-0.309l0.801,0.682
	c0.041,0.035,0.086,0.053,0.137,0.053c0.063,0,0.113-0.021,0.153-0.062L8.38,7.327c0.04-0.041,0.061-0.09,0.064-0.146
	c0.002-0.057-0.017-0.107-0.056-0.155L7.731,6.193c0.13-0.236,0.23-0.481,0.299-0.735l1.031-0.106
	c0.057-0.007,0.104-0.03,0.141-0.071c0.037-0.042,0.056-0.092,0.056-0.151V4.208C9.258,4.149,9.239,4.099,9.202,4.058z"/>
</svg>
