<?xml version="1.0" encoding="utf-8"?>
<!-- Generator: Adobe Illustrator 15.0.0, SVG Export Plug-In . SVG Version: 6.00 Build 0)  -->
<!DOCTYPE svg PUBLIC "-//W3C//DTD SVG 1.1//EN" "http://www.w3.org/Graphics/SVG/1.1/DTD/svg11.dtd">
<svg version="1.1" id="Слой_1" xmlns="http://www.w3.org/2000/svg" xmlns:xlink="http://www.w3.org/1999/xlink" x="0px" y="0px"
	 width="16px" height="16px" viewBox="0 0 16 16" enable-background="new 0 0 16 16" xml:space="preserve">
<g>
	<ellipse fill="#36A9E1" cx="8.149" cy="7.981" rx="7.866" ry="7.7"/>
	<g>
		<path fill="#FFFFFF" d="M10.252,7.013C8.916,6.431,7.213,6.314,5.961,7.136c1.522-0.135,3.193,0.098,4.296,1.16
			c1.057-1.119,2.732-1.328,4.25-1.213C13.24,6.308,11.574,6.412,10.252,7.013z"/>
		<path fill="#FFFFFF" d="M9.711,9.735c-1.506-0.032-2.96,0.471-4.208,1.221c-1.715-0.673-3.757-0.757-5.519-0.164
			c0.072,0.236,0.131,0.477,0.17,0.722c2.011-0.126,4.113,0.362,5.625,1.636c0.656-0.885,1.578-1.59,2.635-2.029
			c1.389-0.62,2.955-0.684,4.467-0.701C11.963,9.837,10.797,9.729,9.711,9.735z"/>
	</g>
</g>
</svg>
