<?xml version="1.0" encoding="utf-8"?>
<!-- Generator: Adobe Illustrator 15.0.0, SVG Export Plug-In . SVG Version: 6.00 Build 0)  -->
<!DOCTYPE svg PUBLIC "-//W3C//DTD SVG 1.1//EN" "http://www.w3.org/Graphics/SVG/1.1/DTD/svg11.dtd">
<svg version="1.1" id="Слой_1" xmlns="http://www.w3.org/2000/svg" xmlns:xlink="http://www.w3.org/1999/xlink" x="0px" y="0px"
	 width="16px" height="16px" viewBox="0 0 16 16" enable-background="new 0 0 16 16" xml:space="preserve">
<g>
	<path fill="#F9B233" d="M13.82,7.503l-0.227,7.385c-0.175,0.504-0.354,0.669-1.81,0.666L1.01,15.557
		c-0.437,0-0.791-0.481-0.791-1.076l0.014-9.233L0.226,2.52c0-0.13,0.037-0.255,0.104-0.349c0.068-0.092,0.161-0.145,0.256-0.145
		h2.803c0.149,0,0.284,0.127,0.337,0.315l0.514,1.83c0,0,6.197,0.023,8.807,0.12c0.127,0.004,0.431-0.066,0.628,0.152
		c0.161,0.178,0.087,0.105,0.13,0.512c0.048,0.447,0.097,1.711,0,2.375L13.14,7.376c0,0,0.011-2.156-0.034-2.208
		C13.063,5.118,3.99,5.153,3.99,5.153c-0.15,0-0.283-0.125-0.338-0.316l-0.512-1.83H0.939v2.237v9.236
		c0,0.053,0.032,0.095,0.07,0.095h0.848l0.009-6.844c0.101-0.319,0.376-0.629,0.658-0.629l2.938-0.137h2.999h0.62
		c1.427,0.014,4.081,0.107,4.081,0.107C13.446,7.073,13.835,6.991,13.82,7.503z"/>
	<path fill="#95C11F" stroke="#FFFFFF" stroke-width="0.25" stroke-miterlimit="10" d="M6.255,8.479l4.643-3.771
		c0,0-1.375-1.486-0.952-2.229c0.276-0.487,2.663-0.452,2.663-0.452s2.719,0.135,3.047,0.535c0.294,0.362-0.02,2.457-0.02,2.457
		s-0.455,3.055-1.144,3.188C13.757,8.347,12.598,6.8,12.598,6.8l-4.643,3.771c0,0-0.689,0.155-1.303-0.6
		C6.114,9.312,6.255,8.479,6.255,8.479z"/>
</g>
</svg>
