<?xml version="1.0" encoding="utf-8"?>
<!-- Generator: Adobe Illustrator 15.0.0, SVG Export Plug-In . SVG Version: 6.00 Build 0)  -->
<!DOCTYPE svg PUBLIC "-//W3C//DTD SVG 1.1//EN" "http://www.w3.org/Graphics/SVG/1.1/DTD/svg11.dtd">
<svg version="1.1" id="Слой_1" xmlns="http://www.w3.org/2000/svg" xmlns:xlink="http://www.w3.org/1999/xlink" x="0px" y="0px"
	 width="16px" height="16px" viewBox="0 0 16 16" enable-background="new 0 0 16 16" xml:space="preserve">
<g>
	<path fill="#36A9E1" d="M6.204,9.766c2.458,0,4.455-1.91,4.455-4.261c0-2.353-1.997-4.263-4.455-4.263
		c-2.458,0-4.458,1.91-4.458,4.263C1.746,7.855,3.746,9.766,6.204,9.766z M8.151,2.822c0.146,0.974,0.91,2.354,1.686,3.036
		C9.673,7.636,8.11,9.036,6.211,9.036c-2.715,0-3.566-2.288-3.644-3.534c0.007-0.446,0.101-0.874,0.268-1.265
		C3.839,4.15,7.963,3.359,8.151,2.822z"/>
	<path fill="#36A9E1" d="M9.561,9.034c-0.888,0.77-2.052,1.242-3.334,1.25v-0.002c-0.011,0-0.019,0.002-0.028,0.002
		c-0.007,0-0.016-0.002-0.025-0.002v0.002c-1.284-0.008-2.452-0.48-3.333-1.25C1.223,9.323,0,10.674,0,12.304V16h6.174h0.053h6.171
		v-3.696C12.397,10.674,11.174,9.323,9.561,9.034z"/>
</g>
<g>
	<g>
		<g>
			<path fill="#FFFFFF" stroke="#878787" stroke-miterlimit="10" d="M12.445,0.737c-1.569,0-2.837,1.264-2.837,2.823
				c0,0.176,0.021,0.345,0.052,0.512L6.204,7.51v2.256h3.405V8.638h1.135V7.51h1.134V6.38l0.053-0.053
				c0.167,0.031,0.338,0.053,0.516,0.053c1.564,0,2.835-1.263,2.835-2.821C15.28,2.001,14.01,0.737,12.445,0.737z M12.447,4.123
				c-0.314,0-0.568-0.251-0.568-0.563c0-0.311,0.254-0.564,0.568-0.564c0.313,0,0.567,0.253,0.567,0.564
				C13.015,3.872,12.761,4.123,12.447,4.123z"/>
		</g>
	</g>
	<ellipse fill="#95C11F" cx="12.544" cy="3.454" rx="2.734" ry="2.718"/>
	<path fill="#FFFFFF" stroke="#878787" stroke-miterlimit="10" d="M14.235,2.324c0.109,0.504-0.176,0.998-0.64,1.107
		c-0.462,0.107-0.923-0.214-1.03-0.718c-0.11-0.503,0.174-0.998,0.636-1.105C13.664,1.5,14.127,1.821,14.235,2.324z"/>
</g>
</svg>
