<?xml version="1.0" encoding="utf-8"?>
<!-- Generator: Adobe Illustrator 15.0.0, SVG Export Plug-In . SVG Version: 6.00 Build 0)  -->
<!DOCTYPE svg PUBLIC "-//W3C//DTD SVG 1.1//EN" "http://www.w3.org/Graphics/SVG/1.1/DTD/svg11.dtd">
<svg version="1.1" id="Слой_1" xmlns="http://www.w3.org/2000/svg" xmlns:xlink="http://www.w3.org/1999/xlink" x="0px" y="0px"
	 width="16px" height="16px" viewBox="0 0 16 16" enable-background="new 0 0 16 16" xml:space="preserve">
<g>
	<g>
		<rect x="0.2" y="1.124" fill="#F9B233" width="11.888" height="13.335"/>
		
			<rect x="2.515" y="0.679" fill="#808184" stroke="#FFFFFF" stroke-width="0.5" stroke-miterlimit="10" width="7.461" height="1.632"/>
		
			<rect x="5.088" y="0.239" fill="#808184" stroke="#FFFFFF" stroke-width="0.5" stroke-miterlimit="10" width="2.11" height="1.204"/>
	</g>
	<g>
		<path fill="#808184" d="M15.137,6.187L13.461,4.52c-0.365-0.361-1.086-0.659-1.602-0.659h-5.63c-0.518,0-0.939,0.42-0.939,0.934
			v10.079c0,0.514,0.422,0.936,0.939,0.936h8.632c0.518,0,0.939-0.422,0.939-0.936V7.781C15.801,7.267,15.502,6.55,15.137,6.187z"/>
		<path fill="#FFFFFF" d="M14.607,6.714c0.035,0.036,0.072,0.083,0.107,0.133h-1.918V4.94c0.051,0.036,0.098,0.072,0.135,0.109
			L14.607,6.714z"/>
		<path fill="#FFFFFF" d="M15.049,14.873c0,0.102-0.086,0.188-0.188,0.188H6.229c-0.102,0-0.189-0.086-0.189-0.188V4.794
			c0-0.103,0.088-0.187,0.189-0.187h5.63c0.057,0,0.121,0.006,0.188,0.02v2.966h2.982c0.014,0.067,0.02,0.131,0.02,0.188V14.873z"/>
		<rect x="7.211" y="9.471" fill="#808184" width="6.666" height="0.727"/>
		<rect x="7.211" y="11.773" fill="#808184" width="6.666" height="0.727"/>
	</g>
</g>
</svg>
