<?xml version="1.0" encoding="utf-8"?>
<!-- Generator: Adobe Illustrator 15.0.0, SVG Export Plug-In . SVG Version: 6.00 Build 0)  -->
<!DOCTYPE svg PUBLIC "-//W3C//DTD SVG 1.1//EN" "http://www.w3.org/Graphics/SVG/1.1/DTD/svg11.dtd">
<svg version="1.1" id="Слой_1" xmlns="http://www.w3.org/2000/svg" xmlns:xlink="http://www.w3.org/1999/xlink" x="0px" y="0px"
	 width="16px" height="16px" viewBox="0 0 16 16" enable-background="new 0 0 16 16" xml:space="preserve">
<g>
	<path fill="#808184" d="M11.959,9.238l0.026-7.268c0,0,2.075-0.084,4.104,2.344c0,0,0.007-1.253-1.553-2.171
		c-3.046-1.623-3.037-2.005-3.037-2.005c-0.583,0.051-0.642,0.389-0.642,0.389v7.651c-0.436-0.116-0.955-0.136-1.491-0.034
		c-1.182,0.221-1.956,0.968-1.729,1.66c0.134,0.639,1.369,1.068,2.55,0.843c1.039-0.197,1.765-0.795,1.77-1.408H11.959z"/>
	<g>
		<path fill="#36A9E1" d="M9.284,12.451c-2.303-0.53-3.61-2.553-2.918-4.513c0.248-0.703,0.721-1.299,1.33-1.755
			C7.654,6.14,7.617,6.098,7.582,6.052c-1.34,0.381-2.456,1.294-2.89,2.524C4,10.536,5.307,12.558,7.609,13.089
			c1.328,0.306,2.694,0.051,3.747-0.598C10.689,12.616,9.981,12.611,9.284,12.451z"/>
		<path fill="#36A9E1" d="M7.282,14.977c-3.491-0.807-5.473-3.868-4.424-6.841c0.375-1.064,1.093-1.971,2.014-2.661
			C4.811,5.411,4.753,5.346,4.7,5.279C2.667,5.854,0.976,7.238,0.319,9.102c-1.048,2.972,0.933,6.035,4.423,6.84
			c2.013,0.467,4.084,0.077,5.682-0.903C9.41,15.227,8.338,15.222,7.282,14.977z"/>
	</g>
</g>
</svg>
