<?xml version="1.0" encoding="utf-8"?>
<!-- Generator: Adobe Illustrator 15.0.0, SVG Export Plug-In . SVG Version: 6.00 Build 0)  -->
<!DOCTYPE svg PUBLIC "-//W3C//DTD SVG 1.1//EN" "http://www.w3.org/Graphics/SVG/1.1/DTD/svg11.dtd">
<svg version="1.1" id="Слой_1" xmlns="http://www.w3.org/2000/svg" xmlns:xlink="http://www.w3.org/1999/xlink" x="0px" y="0px"
	 width="16px" height="16px" viewBox="0 0 16 16" enable-background="new 0 0 16 16" xml:space="preserve">
<g>
	<g>
		<path fill="#36A9E1" d="M12.766,4.205c-0.082,0.083-0.195,0.136-0.32,0.136s-0.238-0.053-0.32-0.136
			c-0.139-0.144-0.197-0.329-0.277-0.329s-0.145,0.31-0.145,0.69c0,0.382-0.32,0.691-0.715,0.691H2.695
			c-0.395,0-0.714-0.309-0.714-0.691c0-0.381-0.106-0.69-0.237-0.69c-0.132,0-0.232,0.186-0.371,0.329
			C1.291,4.288,1.177,4.34,1.052,4.34c-0.125,0-0.238-0.053-0.32-0.136C0.593,4.061,0.543,3.875,0.474,3.875S0.35,4.204,0.35,4.608
			v10.261c0,0.404,0.084,0.732,0.189,0.732s0.13-0.059,0.093-0.15c-0.021-0.055-0.033-0.113-0.033-0.176
			c0-0.258,0.203-0.465,0.453-0.465c0.251,0,0.454,0.207,0.454,0.465c0,0.063-0.012,0.121-0.034,0.176
			c-0.037,0.092,0.039,0.15,0.207,0.15c0.167,0,0.302-0.297,0.302-0.664s0.32-0.662,0.714-0.662h8.293
			c0.395,0,0.714,0.295,0.714,0.662s0.094,0.664,0.21,0.664c0.115,0,0.15-0.059,0.113-0.15c-0.021-0.055-0.033-0.113-0.033-0.176
			c0-0.258,0.203-0.465,0.453-0.465s0.453,0.207,0.453,0.465c0,0.063-0.012,0.121-0.034,0.176c-0.036,0.092,0.03,0.15,0.187,0.15
			s0.283-0.328,0.283-0.732V4.608c0-0.404-0.098-0.732-0.219-0.732C12.996,3.875,12.905,4.061,12.766,4.205z M1.052,14.113
			c-0.25,0-0.453-0.209-0.453-0.467c0-0.256,0.203-0.465,0.453-0.465c0.25,0,0.453,0.209,0.453,0.465
			C1.505,13.904,1.303,14.113,1.052,14.113z M1.052,12.484c-0.25,0-0.453-0.209-0.453-0.467c0-0.256,0.203-0.465,0.453-0.465
			c0.25,0,0.453,0.209,0.453,0.465C1.505,12.275,1.303,12.484,1.052,12.484z M1.052,10.855c-0.25,0-0.453-0.209-0.453-0.465
			c0-0.258,0.203-0.467,0.453-0.467c0.25,0,0.453,0.209,0.453,0.467C1.505,10.646,1.303,10.855,1.052,10.855z M1.052,9.227
			c-0.25,0-0.453-0.209-0.453-0.465c0-0.258,0.203-0.465,0.453-0.465c0.25,0,0.453,0.208,0.453,0.465
			C1.505,9.018,1.303,9.227,1.052,9.227z M1.052,7.598c-0.25,0-0.453-0.209-0.453-0.466s0.203-0.466,0.453-0.466
			c0.25,0,0.453,0.209,0.453,0.466S1.303,7.598,1.052,7.598z M1.052,5.968c-0.25,0-0.453-0.207-0.453-0.465
			c0-0.257,0.203-0.465,0.453-0.465c0.25,0,0.453,0.209,0.453,0.465C1.505,5.761,1.303,5.968,1.052,5.968z M11.211,12.344
			c0,0.463-0.366,0.838-0.816,0.838H3.29c-0.45,0-0.816-0.375-0.816-0.838v-5.13c0-0.463,0.365-0.838,0.816-0.838h7.105
			c0.449,0,0.816,0.375,0.816,0.838V12.344z M12.445,14.113c-0.25,0-0.453-0.209-0.453-0.467c0-0.256,0.203-0.465,0.453-0.465
			s0.453,0.209,0.453,0.465C12.898,13.904,12.695,14.113,12.445,14.113z M12.445,12.484c-0.25,0-0.453-0.209-0.453-0.467
			c0-0.256,0.203-0.465,0.453-0.465s0.453,0.209,0.453,0.465C12.898,12.275,12.695,12.484,12.445,12.484z M12.445,10.855
			c-0.25,0-0.453-0.209-0.453-0.465c0-0.258,0.203-0.467,0.453-0.467s0.453,0.209,0.453,0.467
			C12.898,10.646,12.695,10.855,12.445,10.855z M12.445,9.227c-0.25,0-0.453-0.209-0.453-0.465c0-0.258,0.203-0.465,0.453-0.465
			s0.453,0.208,0.453,0.465C12.898,9.018,12.695,9.227,12.445,9.227z M12.445,7.598c-0.25,0-0.453-0.209-0.453-0.466
			s0.203-0.466,0.453-0.466s0.453,0.209,0.453,0.466S12.695,7.598,12.445,7.598z M12.445,5.968c-0.25,0-0.453-0.207-0.453-0.465
			c0-0.257,0.203-0.465,0.453-0.465s0.453,0.209,0.453,0.465C12.898,5.761,12.695,5.968,12.445,5.968z"/>
	</g>
	<path fill="#808184" stroke="#FFFFFF" stroke-width="0.5" stroke-miterlimit="10" d="M7.799,1.482l7.852-1.084v9.063
		c0,0.75-0.656,1.35-1.681,1.57c-1.126,0.236-2.212-0.166-2.429-0.898c-0.216-0.736,0.521-1.525,1.646-1.765
		c0.508-0.106,1.01-0.084,1.428,0.041V2.948L8.861,3.844l-0.027,6.791c-0.005,0.643-0.687,1.277-1.667,1.482
		c-1.111,0.236-2.278-0.213-2.402-0.887c-0.213-0.727,0.515-1.508,1.63-1.746c0.501-0.105,0.992-0.086,1.403,0.037V1.482z"/>
</g>
</svg>
