<?xml version="1.0" encoding="utf-8"?>
<!-- Generator: Adobe Illustrator 15.0.0, SVG Export Plug-In . SVG Version: 6.00 Build 0)  -->
<!DOCTYPE svg PUBLIC "-//W3C//DTD SVG 1.1//EN" "http://www.w3.org/Graphics/SVG/1.1/DTD/svg11.dtd">
<svg version="1.1" id="Слой_1" xmlns="http://www.w3.org/2000/svg" xmlns:xlink="http://www.w3.org/1999/xlink" x="0px" y="0px"
	 width="16px" height="16px" viewBox="0 0 16 16" enable-background="new 0 0 16 16" xml:space="preserve">
<g>
	<path fill="#808184" d="M1.002,1.007c-0.454,0-0.823,0.354-0.823,0.791v7.909c0,0.437,0.369,0.792,0.823,0.792H11.13
		c0.453,0,0.822-0.355,0.822-0.792V1.798c0-0.437-0.369-0.791-0.822-0.791H1.002z"/>
	<path fill="#FFFFFF" d="M1.003,1.8h10.125v4.852l-1.98-1.797c-0.1-0.091-0.256-0.089-0.354,0.004L6.638,6.876L3.62,3.924
		C3.571,3.876,3.505,3.848,3.436,3.848C3.366,3.85,3.3,3.877,3.251,3.925c0,0-2.219,2.246-2.238,2.266
		c-0.004-0.003-0.007-0.006-0.01-0.007C1.003,6.148,1.003,1.8,1.003,1.8z"/>
	<path fill="#36A9E1" d="M1.003,7.135l2.439-2.468l3.494,3.421C6.985,8.135,7.05,8.161,7.118,8.161c0.067,0,0.135-0.025,0.183-0.071
		l0.108-0.104C7.511,7.89,7.513,7.733,7.413,7.636l-0.307-0.3l1.871-1.751l2.15,1.952v2.169H1.003V7.135z"/>
	<ellipse fill="#F9B233" cx="6.456" cy="3.624" rx="1.197" ry="1.152"/>
	<g>
		<path fill="#808184" d="M4.872,5.5C4.418,5.5,4.05,5.854,4.05,6.291V14.2c0,0.437,0.368,0.792,0.822,0.792h10.127
			c0.453,0,0.822-0.355,0.822-0.792V6.291c0-0.437-0.369-0.791-0.822-0.791H4.872z"/>
		<path fill="#FFFFFF" d="M4.872,6.293h10.126v4.852l-1.979-1.797c-0.1-0.091-0.258-0.089-0.355,0.004l-2.155,2.018L7.491,8.416
			c-0.05-0.047-0.116-0.075-0.186-0.075C7.235,8.343,7.169,8.37,7.121,8.418c0,0-2.22,2.246-2.238,2.266
			c-0.005-0.003-0.007-0.006-0.011-0.007C4.872,10.642,4.872,6.293,4.872,6.293z"/>
		<path fill="#95C11F" d="M4.872,11.628L7.312,9.16l3.494,3.421c0.049,0.047,0.115,0.073,0.183,0.073s0.135-0.025,0.183-0.071
			l0.109-0.104c0.102-0.097,0.102-0.253,0.003-0.351l-0.307-0.3l1.871-1.751l2.15,1.952v2.169H4.872V11.628z"/>
		<ellipse fill="#F9B233" cx="10.326" cy="8.117" rx="1.196" ry="1.152"/>
	</g>
</g>
</svg>
