<?xml version="1.0" encoding="utf-8"?>
<!-- Generator: Adobe Illustrator 15.0.0, SVG Export Plug-In . SVG Version: 6.00 Build 0)  -->
<!DOCTYPE svg PUBLIC "-//W3C//DTD SVG 1.1//EN" "http://www.w3.org/Graphics/SVG/1.1/DTD/svg11.dtd">
<svg version="1.1" id="Слой_1" xmlns="http://www.w3.org/2000/svg" xmlns:xlink="http://www.w3.org/1999/xlink" x="0px" y="0px"
	 width="16px" height="16px" viewBox="0 0 16 16" enable-background="new 0 0 16 16" xml:space="preserve">
<g>
	<g>
		<path fill="#36A9E1" d="M13.659,1.748c-0.088,0.102-0.21,0.167-0.345,0.167S13.058,1.85,12.97,1.748
			c-0.149-0.176-0.212-0.405-0.298-0.405c-0.087,0-0.156,0.381-0.156,0.85c0,0.47-0.343,0.851-0.767,0.851H2.833
			c-0.424,0-0.768-0.379-0.768-0.851c0-0.469-0.114-0.85-0.255-0.85c-0.142,0-0.25,0.229-0.398,0.405
			C1.324,1.85,1.202,1.915,1.067,1.915c-0.134,0-0.256-0.065-0.344-0.167C0.574,1.571,0.521,1.343,0.446,1.343
			S0.312,1.747,0.312,2.244V14.87c0,0.498,0.091,0.901,0.204,0.901s0.14-0.071,0.101-0.184c-0.023-0.067-0.036-0.141-0.036-0.217
			c0-0.317,0.218-0.573,0.487-0.573c0.27,0,0.488,0.256,0.488,0.573c0,0.076-0.013,0.149-0.037,0.217
			C1.479,15.7,1.56,15.771,1.74,15.771c0.18,0,0.325-0.365,0.325-0.816s0.344-0.815,0.768-0.815h8.915
			c0.424,0,0.768,0.364,0.768,0.815s0.102,0.816,0.225,0.816c0.125,0,0.162-0.071,0.122-0.184c-0.022-0.067-0.035-0.141-0.035-0.217
			c0-0.317,0.218-0.573,0.486-0.573c0.27,0,0.487,0.256,0.487,0.573c0,0.076-0.013,0.149-0.035,0.217
			c-0.04,0.112,0.032,0.184,0.2,0.184c0.167,0,0.304-0.403,0.304-0.901V2.244c0-0.498-0.105-0.901-0.234-0.901
			S13.81,1.571,13.659,1.748z M1.067,13.94c-0.27,0-0.487-0.258-0.487-0.575c0-0.314,0.219-0.571,0.487-0.571
			c0.269,0,0.487,0.257,0.487,0.571C1.555,13.683,1.336,13.94,1.067,13.94z M1.067,11.936c-0.27,0-0.487-0.257-0.487-0.573
			c0-0.315,0.219-0.572,0.487-0.572c0.269,0,0.487,0.257,0.487,0.572C1.555,11.68,1.336,11.936,1.067,11.936z M1.067,9.932
			c-0.27,0-0.487-0.257-0.487-0.572c0-0.317,0.219-0.573,0.487-0.573c0.269,0,0.487,0.256,0.487,0.573
			C1.555,9.675,1.336,9.932,1.067,9.932z M1.067,7.927c-0.27,0-0.487-0.256-0.487-0.572c0-0.316,0.219-0.572,0.487-0.572
			c0.269,0,0.487,0.256,0.487,0.572C1.555,7.671,1.336,7.927,1.067,7.927z M1.067,5.924c-0.27,0-0.487-0.257-0.487-0.573
			c0-0.316,0.219-0.573,0.487-0.573c0.269,0,0.487,0.257,0.487,0.573C1.555,5.667,1.336,5.924,1.067,5.924z M1.067,3.918
			c-0.27,0-0.487-0.255-0.487-0.572c0-0.316,0.219-0.572,0.487-0.572c0.269,0,0.487,0.257,0.487,0.572
			C1.555,3.663,1.336,3.918,1.067,3.918z M11.987,11.764c0,0.568-0.393,1.03-0.878,1.03H3.472c-0.484,0-0.877-0.462-0.877-1.03V5.45
			c0-0.57,0.393-1.031,0.877-1.031h7.637c0.484,0,0.878,0.461,0.878,1.031V11.764z M13.314,13.94c-0.27,0-0.487-0.258-0.487-0.575
			c0-0.314,0.219-0.571,0.487-0.571c0.27,0,0.487,0.257,0.487,0.571C13.802,13.683,13.584,13.94,13.314,13.94z M13.314,11.936
			c-0.27,0-0.487-0.257-0.487-0.573c0-0.315,0.219-0.572,0.487-0.572c0.27,0,0.487,0.257,0.487,0.572
			C13.802,11.68,13.584,11.936,13.314,11.936z M13.314,9.932c-0.27,0-0.487-0.257-0.487-0.572c0-0.317,0.219-0.573,0.487-0.573
			c0.27,0,0.487,0.256,0.487,0.573C13.802,9.675,13.584,9.932,13.314,9.932z M13.314,7.927c-0.27,0-0.487-0.256-0.487-0.572
			c0-0.316,0.219-0.572,0.487-0.572c0.27,0,0.487,0.256,0.487,0.572C13.802,7.671,13.584,7.927,13.314,7.927z M13.314,5.924
			c-0.27,0-0.487-0.257-0.487-0.573c0-0.316,0.219-0.573,0.487-0.573c0.27,0,0.487,0.257,0.487,0.573
			C13.802,5.667,13.584,5.924,13.314,5.924z M13.314,3.918c-0.27,0-0.487-0.255-0.487-0.572c0-0.316,0.219-0.572,0.487-0.572
			c0.27,0,0.487,0.257,0.487,0.572C13.802,3.663,13.584,3.918,13.314,3.918z"/>
	</g>
	<g>
		<path fill="#95C11F" d="M5.543,10.524l1.513-1.655l1.42,1.689l-1.515,1.656l0.291,0.348l2.805-0.782l0.067-3.031l0.014,0.021
			l5.968-6.483L16.1,2.279c0.387-0.435,0.399-1.144,0.021-1.592c-0.373-0.451-0.997-0.469-1.396-0.047l-0.004-0.01l-5.93,6.441
			L6.059,7.009l-0.807,3.169L5.543,10.524z M15.124,1.08c0.174-0.191,0.452-0.185,0.62,0.017c0.169,0.2,0.164,0.521-0.013,0.711
			c-0.175,0.19-0.452,0.183-0.621-0.017C14.943,1.591,14.947,1.272,15.124,1.08z"/>
	</g>
</g>
</svg>
