<?xml version="1.0" encoding="UTF-8" standalone="no"?>
<svg
   xmlns:dc="http://purl.org/dc/elements/1.1/"
   xmlns:cc="http://creativecommons.org/ns#"
   xmlns:rdf="http://www.w3.org/1999/02/22-rdf-syntax-ns#"
   xmlns:svg="http://www.w3.org/2000/svg"
   xmlns="http://www.w3.org/2000/svg"
   version="1.1"
   id="svg2"
   width="16"
   viewBox="0 0 16 16"
   height="16">
  <path
     d="m 4.3878551,11.661404 0,1.453211 -1.4532102,0 0,-1.453211 1.4532102,0 z m 0,-8.7192602 0,1.4532102 -1.4532102,0 0,-1.4532102 1.4532102,0 z m 8.7192609,0 0,1.4532102 -1.45321,0 0,-1.4532102 1.45321,0 z M 1.4814347,14.556471 l 4.3596306,0 0,-4.348276 -4.3596306,0 0,4.348276 z m 0,-8.707907 4.3596306,0 0,-4.3596304 -4.3596306,0 0,4.3596304 z m 8.7192613,0 4.359631,0 0,-4.3596304 -4.359631,0 0,4.3596304 z m -2.9064205,2.9064205 0,7.2660505 -7.26605097,0 0,-7.2660505 7.26605097,0 z m 5.8128405,5.8128405 0,1.45321 -1.45321,0 0,-1.45321 1.45321,0 z m 2.90642,0 0,1.45321 -1.453209,0 0,-1.45321 1.453209,0 z m 0,-5.8128405 0,4.3596305 -4.35963,0 0,-1.453211 -1.45321,0 0,4.359631 -1.4532102,0 0,-7.2660505 4.3596302,0 0,1.4532105 1.453211,0 0,-1.4532105 1.453209,0 z m -8.7192605,-8.71926114 0,7.26605084 -7.26605097,0 0,-7.26605084 7.26605097,0 z m 8.7192605,0 0,7.26605084 -7.2660502,0 0,-7.26605084 7.2660502,0 z" />
</svg>
