<?xml version="1.0" encoding="utf-8"?>
<!-- Generator: Adobe Illustrator 15.0.0, SVG Export Plug-In . SVG Version: 6.00 Build 0)  -->
<!DOCTYPE svg PUBLIC "-//W3C//DTD SVG 1.1//EN" "http://www.w3.org/Graphics/SVG/1.1/DTD/svg11.dtd">
<svg version="1.1" id="Слой_1" xmlns="http://www.w3.org/2000/svg" xmlns:xlink="http://www.w3.org/1999/xlink" x="0px" y="0px"
	 width="16px" height="16px" viewBox="0 0 16 16" enable-background="new 0 0 16 16" xml:space="preserve">
<g>
	<path fill="#808184" stroke="#878787" stroke-width="0.5" stroke-miterlimit="10" d="M15.75,9.969V2.911
		c0-1.115-0.857-2.016-1.917-2.016H2.339c-1.058,0-1.916,0.901-1.916,2.016v7.058c0,1.113,0.858,2.018,1.916,2.018h0.958v3.023
		c0,0.557,0.258,0.646,0.576,0.201l2.299-3.227h7.662C14.893,11.984,15.75,11.082,15.75,9.969z"/>
	<path fill="#FFFFFF" d="M14.279,8.98V3.692c0-0.834-0.699-1.511-1.561-1.511H3.35c-0.863,0-1.563,0.677-1.563,1.511V8.98
		c0,0.834,0.7,1.51,1.563,1.51h0.78v2.266c0,0.417,0.209,0.485,0.468,0.152l1.874-2.418h6.249C13.58,10.49,14.279,9.814,14.279,8.98
		z"/>
</g>
<g>
	<path fill="#36A9E1" d="M6.859,8.013L6.822,7.734c-0.114-0.573,0.227-1.22,1.171-1.869c0.85-0.571,1.323-0.993,1.323-1.478
		c0-0.55-0.605-0.917-1.796-0.928c-0.68,0-1.434,0.13-1.908,0.335L5.159,3.114c0.643-0.258,1.7-0.432,2.702-0.432
		c2.171,0,3.154,0.766,3.154,1.586c0,0.735-0.717,1.262-1.624,1.878C8.56,6.708,8.257,7.194,8.313,7.744l0.039,0.269H6.859z
		 M6.462,9.535c0-0.398,0.473-0.68,1.114-0.68c0.681,0,1.116,0.279,1.116,0.68c0,0.377-0.436,0.668-1.133,0.668
		C6.917,10.203,6.462,9.912,6.462,9.535z"/>
</g>
</svg>
