<?xml version="1.0" encoding="UTF-8" standalone="no"?>
<svg
   xmlns:dc="http://purl.org/dc/elements/1.1/"
   xmlns:cc="http://creativecommons.org/ns#"
   xmlns:rdf="http://www.w3.org/1999/02/22-rdf-syntax-ns#"
   xmlns:svg="http://www.w3.org/2000/svg"
   xmlns="http://www.w3.org/2000/svg"
   version="1.1"
   viewBox="0 0 16 16"
   style="shape-rendering:geometricPrecision; text-rendering:geometricPrecision; image-rendering:optimizeQuality; fill-rule:evenodd; clip-rule:evenodd"
   height="16px"
   width="16px"
   xml:space="preserve"><g
     transform="matrix(0.53061328,0,0,0.53061328,-86.462415,-34.808518)"><path
       style="fill:#878787"
       d="m 176.014,74.7539 c 0.0739,-0.7298 0.5726,-1.4346 1.5558,-1.4064 0.8277,-0.0263 1.5443,0.3812 1.6311,1.4178 -0.007,2.3486 0.0159,2.7874 0.007,5.3147 l 5.1742,5.1515 c 0.5025,1.2212 -0.4564,2.461 -1.9312,1.9397 -0.7596,-0.7263 -4.589,-4.3648 -6.4738,-6.3359 0.004,-1.8913 0.0326,-4.19 0.0365,-6.0814 z" /><path
       style="fill:#878787"
       d="m 178.09,65.7593 c 8.2622,0 14.9624,6.7002 14.9624,14.9623 0,8.2622 -6.7002,14.9624 -14.9624,14.9624 -8.2621,0 -14.9623,-6.7002 -14.9623,-14.9624 0,-8.2621 6.7002,-14.9623 14.9623,-14.9623 z m 0,3.3653 c 6.4037,0 11.5971,5.1934 11.5971,11.5971 0,6.4037 -5.1934,11.5971 -11.5971,11.5971 -6.4037,0 -11.5971,-5.1934 -11.5971,-11.5971 0,-6.4037 5.1934,-11.5971 11.5971,-11.5971 z" /></g></svg>