<?xml version="1.0" encoding="utf-8"?>
<!-- Generator: Adobe Illustrator 15.0.0, SVG Export Plug-In . SVG Version: 6.00 Build 0)  -->
<!DOCTYPE svg PUBLIC "-//W3C//DTD SVG 1.1//EN" "http://www.w3.org/Graphics/SVG/1.1/DTD/svg11.dtd">
<svg version="1.1" id="Слой_1" xmlns="http://www.w3.org/2000/svg" xmlns:xlink="http://www.w3.org/1999/xlink" x="0px" y="0px"
	 width="16px" height="16px" viewBox="0 0 16 16" enable-background="new 0 0 16 16" xml:space="preserve">
<g>
	<g>
		<g>
			<path fill="#808184" d="M14.926,6.563l-1.685-1.639c-0.367-0.356-1.092-0.649-1.61-0.649H5.969c-0.519,0-0.943,0.413-0.943,0.918
				v9.908c0,0.504,0.425,0.917,0.943,0.917h8.681c0.52,0,0.943-0.413,0.943-0.917V8.129C15.593,7.624,15.293,6.919,14.926,6.563z
				 M14.393,7.082c0.037,0.036,0.072,0.08,0.109,0.13h-1.929V5.337c0.052,0.035,0.097,0.071,0.134,0.106L14.393,7.082z
				 M14.838,15.102c0,0.099-0.086,0.183-0.188,0.183H5.969c-0.102,0-0.189-0.084-0.189-0.183V5.193c0-0.1,0.087-0.184,0.189-0.184
				h5.662c0.056,0,0.12,0.007,0.188,0.02v2.917h3c0.013,0.065,0.02,0.127,0.02,0.184V15.102z"/>
		</g>
		<rect x="6.958" y="9.79" fill="#808184" width="6.702" height="0.715"/>
		<rect x="6.958" y="12.053" fill="#808184" width="6.702" height="0.715"/>
	</g>
	<g>
		<path fill="#E6332A" d="M-0.116,9.897c0,3.254,2.069,5.899,4.612,5.899h1.633c0.271,0,0.489-0.28,0.489-0.627v-0.207
			c0-0.349-0.219-0.627-0.489-0.627H4.496c-1.913,0-3.469-1.991-3.469-4.438c0-2.447,1.557-4.437,3.469-4.437h3.012L5.434,8.114
			c-0.223,0.285-0.223,0.748,0,1.032c0.216,0.277,0.593,0.275,0.809,0l3.049-3.901c0.108-0.138,0.168-0.321,0.168-0.516
			c0-0.196-0.06-0.38-0.168-0.518l-3.049-3.9c-0.216-0.277-0.593-0.277-0.809,0c-0.223,0.284-0.223,0.748,0,1.033l2.074,2.654H4.496
			C1.953,3.999-0.116,6.644-0.116,9.897z"/>
	</g>
</g>
</svg>
