<?xml version="1.0" encoding="utf-8"?>
<!-- Generator: Adobe Illustrator 15.0.0, SVG Export Plug-In . SVG Version: 6.00 Build 0)  -->
<!DOCTYPE svg PUBLIC "-//W3C//DTD SVG 1.1//EN" "http://www.w3.org/Graphics/SVG/1.1/DTD/svg11.dtd">
<svg version="1.1" id="Слой_1" xmlns="http://www.w3.org/2000/svg" xmlns:xlink="http://www.w3.org/1999/xlink" x="0px" y="0px"
	 width="16px" height="16px" viewBox="0 0 16 16" enable-background="new 0 0 16 16" xml:space="preserve">
<g id="XMLID_2_">
	<g>
		<path fill="#36A9E1" d="M11.307,14.13H4.694c-1.042,0-1.888-0.846-1.888-1.894v-1.893c0-1.048,0.846-1.895,1.888-1.895h6.612
			c1.043,0,1.889,0.847,1.889,1.895v1.893C13.195,13.284,12.35,14.13,11.307,14.13z"/>
		<path fill="#36A9E1" d="M2.805,16.023c-1.044,0-1.889-0.849-1.889-1.895V3.715c0-1.045,0.844-1.893,1.889-1.893h10.39
			c1.041,0,1.889,0.848,1.889,1.893V14.13c0,1.046-0.848,1.896-1.889,1.896H2.805V16.023z M11.307,7.503H4.694
			c-1.042,0-1.888-0.848-1.888-1.894v-2.84c-0.52,0-0.947,0.423-0.947,0.946V14.13c0,0.522,0.427,0.947,0.946,0.947h10.39
			c0.521,0,0.943-0.425,0.943-0.947V3.715c0-0.523-0.422-0.947-0.943-0.947V5.61C13.195,6.656,12.35,7.503,11.307,7.503z
			 M6.585,3.715c0-0.523-0.426-0.947-0.946-0.947H4.694c-0.521,0-0.941,0.424-0.941,0.947V5.61c0,0.522,0.42,0.947,0.941,0.947
			h0.945c0.52,0,0.946-0.424,0.946-0.947V3.715z"/>
	</g>
</g>
<g>
	<path fill="#808184" stroke="#FFFFFF" stroke-width="0.25" stroke-miterlimit="10" d="M15.646,0.456
		c0.324,0.434,0.443,1.073,0.311,1.66L15.49,2.738l-1.551-2.076l0.465-0.622C14.843-0.138,15.32,0.021,15.646,0.456z"/>
	<polygon fill="#95C11F" stroke="#FFFFFF" stroke-width="0.25" stroke-miterlimit="10" points="15.18,3.152 11.768,7.717 
		8.99,9.355 10.217,5.641 13.628,1.078 	"/>
</g>
</svg>
