<?xml version="1.0" encoding="utf-8"?>
<!-- Generator: Adobe Illustrator 15.0.0, SVG Export Plug-In . SVG Version: 6.00 Build 0)  -->
<!DOCTYPE svg PUBLIC "-//W3C//DTD SVG 1.1//EN" "http://www.w3.org/Graphics/SVG/1.1/DTD/svg11.dtd">
<svg version="1.1" id="Слой_1" xmlns="http://www.w3.org/2000/svg" xmlns:xlink="http://www.w3.org/1999/xlink" x="0px" y="0px"
	 width="16px" height="16px" viewBox="0 0 16 16" enable-background="new 0 0 16 16" xml:space="preserve">
<g id="XMLID_1_">
	<g>
		<path fill="#36A9E1" d="M15.359,2.701v11.252c0,1.131-0.881,2.047-1.963,2.047H2.601c-1.083,0-1.961-0.916-1.961-2.047V2.701
			c0-1.129,0.878-2.045,1.961-2.045h10.795C14.479,0.656,15.359,1.572,15.359,2.701z M14.379,13.953V2.701
			c0-0.567-0.439-1.023-0.98-1.023v3.068c0,1.13-0.879,2.048-1.963,2.048h-6.87c-1.085,0-1.965-0.918-1.965-2.048V1.678
			c-0.54,0-0.981,0.456-0.981,1.023v11.252c0,0.564,0.442,1.023,0.981,1.023h10.795C13.939,14.977,14.379,14.518,14.379,13.953z
			 M6.528,4.746V2.701c0-0.567-0.44-1.023-0.982-1.023h-0.98c-0.543,0-0.98,0.456-0.98,1.023v2.045c0,0.566,0.438,1.023,0.98,1.023
			h0.98C6.088,5.769,6.528,5.312,6.528,4.746z"/>
		<path fill="#36A9E1" d="M13.396,9.861v2.047c0,1.131-0.877,2.045-1.963,2.045H4.566c-1.085,0-1.965-0.914-1.965-2.045V9.861
			c0-1.129,0.879-2.045,1.965-2.045h6.87C12.52,7.816,13.396,8.732,13.396,9.861z"/>
	</g>
</g>
</svg>
