<?xml version="1.0" encoding="UTF-8" standalone="no"?>
<!-- Generator: Adobe Illustrator 15.0.0, SVG Export Plug-In . SVG Version: 6.00 Build 0)  -->

<svg
   xmlns:dc="http://purl.org/dc/elements/1.1/"
   xmlns:cc="http://creativecommons.org/ns#"
   xmlns:rdf="http://www.w3.org/1999/02/22-rdf-syntax-ns#"
   xmlns:svg="http://www.w3.org/2000/svg"
   xmlns="http://www.w3.org/2000/svg"
   xmlns:sodipodi="http://sodipodi.sourceforge.net/DTD/sodipodi-0.dtd"
   xmlns:inkscape="http://www.inkscape.org/namespaces/inkscape"
   version="1.1"
   id="Слой_1"
   x="0px"
   y="0px"
   width="16px"
   height="16px"
   viewBox="0 0 16 16"
   enable-background="new 0 0 16 16"
   xml:space="preserve"
   inkscape:version="0.48.4 r9939"
   sodipodi:docname="search.svg"><metadata
   id="metadata17"><rdf:RDF><cc:Work
       rdf:about=""><dc:format>image/svg+xml</dc:format><dc:type
         rdf:resource="http://purl.org/dc/dcmitype/StillImage" /></cc:Work></rdf:RDF></metadata><defs
   id="defs15" /><sodipodi:namedview
   pagecolor="#ffffff"
   bordercolor="#666666"
   borderopacity="1"
   objecttolerance="10"
   gridtolerance="10"
   guidetolerance="10"
   inkscape:pageopacity="0"
   inkscape:pageshadow="2"
   inkscape:window-width="1280"
   inkscape:window-height="962"
   id="namedview13"
   showgrid="false"
   inkscape:zoom="14.75"
   inkscape:cx="-1.1864407"
   inkscape:cy="8"
   inkscape:window-x="-8"
   inkscape:window-y="-8"
   inkscape:window-maximized="1"
   inkscape:current-layer="g3" />
<g
   id="g3">
	
	<path
   d="m 15.456544,6.5712949 -0.249831,8.1857431 c -0.192027,0.560241 -0.388952,0.741968 -1.98787,0.737952 l -11.848844,0.005 c -0.48006735,0 -0.86999955,-0.534137 -0.86999955,-1.192771 L 0.51567515,4.0712952 0.50881705,1.0471989 C 0.50783735,0.9036245 0.54898595,0.7640663 0.62344535,0.6606526 0.69888455,0.558243 0.79979665,0.5000101 0.90560735,0.5000101 H 3.9868556 c 0.1645945,0 0.3115539,0.1405622 0.3703376,0.3493975 l 0.5643239,2.0291166 c 0,0 6.8159749,0.026104 9.6836429,0.1325301 0.140101,0.00502 0.473209,-0.073293 0.689729,0.1676707 0.17929,0.1977911 0.09601,0.1174698 0.14402,0.567269 0.05291,0.496988 0.105811,1.8975899 0,2.6325299 l -0.730878,0.0502 c 0,0 0.01078,-2.391566 -0.03821,-2.4477909 C 14.623771,3.926716 4.6471931,3.963865 4.6471931,3.963865 c -0.164595,0 -0.3115539,-0.1385542 -0.3703377,-0.3504016 L 3.7135111,1.5883635 h -2.419931 l 0,2.4799197 V 14.307239 c 0,0.05823 0.034291,0.105422 0.076419,0.105422 h 0.9317223 l 0.0098,-7.5883541 c 0.1116864,-0.353413 0.413443,-0.696787 0.7240172,-0.696787 l 3.2311465,-0.150602 h 3.295809 0.6828709 c 1.568546,0.01406 4.48716,0.118474 4.48716,0.118474 0.313513,0 0.740675,-0.09036 0.724019,0.475903 z"
   id="path3"
   inkscape:connector-curvature="0"
   style="fill:#f9b233" /><g
   id="g7"
   transform="matrix(0.9341429,0,0,1.1152416,-0.44838859,-1.5951667)">
		<path
   d="m 8.564,5.017 c -2.626,0 -4.763,1.789 -4.763,3.989 0,0.525 0.128,1.026 0.349,1.486 L 0.48,13.567 3.118,15.777 6.79,12.7 c 0.549,0.188 1.145,0.294 1.774,0.294 2.622,0 4.762,-1.787 4.762,-3.988 C 13.327,6.805 11.188,5.017 8.564,5.017 z"
   id="path9"
   inkscape:connector-curvature="0"
   style="fill:#36a9e1" />
		<path
   d="m 8.5331601,11.626 c -1.742,0 -3.161,-1.185 -3.161,-2.644 0,-1.458 1.418,-2.646 3.161,-2.646 1.7399999,0 3.1549999,1.187 3.1549999,2.646 0,1.459 -1.415,2.644 -3.1549999,2.644 z"
   id="path11"
   inkscape:connector-curvature="0"
   style="fill:#f9b233" />
	</g>
</g>
</svg>