<?xml version="1.0" encoding="utf-8"?>
<!-- Generator: Adobe Illustrator 15.0.0, SVG Export Plug-In . SVG Version: 6.00 Build 0)  -->
<!DOCTYPE svg PUBLIC "-//W3C//DTD SVG 1.1//EN" "http://www.w3.org/Graphics/SVG/1.1/DTD/svg11.dtd">
<svg version="1.1" id="layer_1" xmlns="http://www.w3.org/2000/svg" xmlns:xlink="http://www.w3.org/1999/xlink" x="0px" y="0px"
	 width="16px" height="16px" viewBox="0 0 16 16" enable-background="new 0 0 16 16" xml:space="preserve">
<g>
	<rect x="3.887" y="6.606" fill-rule="evenodd" clip-rule="evenodd" fill="#0071BC" width="0.775" height="1.32"/>
	<polygon fill-rule="evenodd" clip-rule="evenodd" fill="#0071BC" points="3.887,4.232 3.887,5.551 4.662,5.551 4.662,5.024 
		5.173,5.024 5.173,4.232 	"/>
	<rect x="6.203" y="4.232" fill-rule="evenodd" clip-rule="evenodd" fill="#0071BC" width="1.286" height="0.792"/>
	<g>
		<rect x="8.51" y="4.232" fill-rule="evenodd" clip-rule="evenodd" fill="#0071BC" width="1.287" height="0.795"/>
		<polygon fill-rule="evenodd" clip-rule="evenodd" fill="#0071BC" points="12.113,4.232 10.826,4.232 10.826,5.027 11.341,5.027 
			11.341,5.551 12.113,5.551 		"/>
		<rect x="11.341" y="6.606" fill-rule="evenodd" clip-rule="evenodd" fill="#0071BC" width="0.772" height="1.318"/>
	</g>
	<g>
		<rect x="11.337" y="8.878" fill-rule="evenodd" clip-rule="evenodd" fill="#0071BC" width="0.774" height="1.32"/>
		<polygon fill-rule="evenodd" clip-rule="evenodd" fill="#0071BC" points="12.111,12.572 12.111,11.254 11.337,11.254 
			11.337,11.78 10.825,11.78 10.825,12.572 		"/>
		<rect x="8.51" y="11.78" fill-rule="evenodd" clip-rule="evenodd" fill="#0071BC" width="1.286" height="0.792"/>
	</g>
	<rect x="6.203" y="11.776" fill-rule="evenodd" clip-rule="evenodd" fill="#0071BC" width="1.288" height="0.795"/>
	<polygon fill-rule="evenodd" clip-rule="evenodd" fill="#0071BC" points="3.887,12.571 5.174,12.571 5.174,11.776 4.659,11.776 
		4.659,11.252 3.887,11.252 	"/>
	<rect x="3.887" y="8.878" fill-rule="evenodd" clip-rule="evenodd" fill="#0071BC" width="0.772" height="1.318"/>
</g>
</svg>
