<?xml version="1.0" encoding="utf-8"?>
<!-- Generator: Adobe Illustrator 15.0.0, SVG Export Plug-In . SVG Version: 6.00 Build 0)  -->
<!DOCTYPE svg PUBLIC "-//W3C//DTD SVG 1.1//EN" "http://www.w3.org/Graphics/SVG/1.1/DTD/svg11.dtd">
<svg version="1.1" id="Слой_1" xmlns="http://www.w3.org/2000/svg" xmlns:xlink="http://www.w3.org/1999/xlink" x="0px" y="0px"
	 width="16px" height="16px" viewBox="0 0 16 16" enable-background="new 0 0 16 16" xml:space="preserve">
<g>
	<path fill="#808184" d="M13.773,0.79H2.226c-1.063,0-1.925,0.916-1.925,2.045v8.176c0,1.129,0.862,2.043,1.925,2.043h11.548
		c1.063,0,1.925-0.914,1.925-2.043V2.835C15.698,1.706,14.837,0.79,13.773,0.79z M10.606,6.245l4.073-3.709
		c0.028,0.098,0.057,0.192,0.057,0.299v8.176c0,0.07-0.026,0.133-0.038,0.2L10.606,6.245z M13.773,1.813
		c0.063,0,0.12,0.025,0.181,0.039L8,7.271l-5.954-5.42c0.059-0.014,0.115-0.039,0.18-0.039H13.773z M1.302,11.21
		c-0.014-0.067-0.039-0.129-0.039-0.199V2.835c0-0.106,0.029-0.201,0.057-0.299l4.073,3.707L1.302,11.21z M2.226,12.032
		c-0.098,0-0.186-0.03-0.274-0.059l4.173-5.064l1.563,1.422C7.776,8.415,7.889,8.455,8,8.455c0.11,0,0.223-0.04,0.313-0.124
		l1.563-1.422l4.172,5.064c-0.088,0.028-0.176,0.059-0.274,0.059H2.226z"/>
</g>
<path fill="#36A9E1" stroke="#FFFFFF" stroke-width="0.25" stroke-miterlimit="10" d="M4.689,10.942l6.151,0.13
	c0,0-0.093-1.979,0.731-2.267c0.541-0.186,2.391,1.352,2.391,1.352S16.01,11.981,16,12.488c-0.01,0.458-1.646,1.822-1.646,1.822
	s-2.387,1.989-3.015,1.65c-0.672-0.359-0.554-2.249-0.554-2.249l-6.151-0.129c0,0-0.644-0.32-0.625-1.272
	C4.025,11.477,4.689,10.942,4.689,10.942z"/>
</svg>
