<?xml version="1.0" encoding="utf-8"?>
<!-- Generator: Adobe Illustrator 15.0.0, SVG Export Plug-In . SVG Version: 6.00 Build 0)  -->
<!DOCTYPE svg PUBLIC "-//W3C//DTD SVG 1.1//EN" "http://www.w3.org/Graphics/SVG/1.1/DTD/svg11.dtd">
<svg version="1.1" id="Слой_1" xmlns="http://www.w3.org/2000/svg" xmlns:xlink="http://www.w3.org/1999/xlink" x="0px" y="0px"
	 width="16px" height="16px" viewBox="0 0 16 16" enable-background="new 0 0 16 16" xml:space="preserve">
<g>
	<g>
		<path fill="#36A9E1" d="M6.067,8.344l1.407-1.346l1.321,1.373L7.387,9.717L7.657,10l2.609-0.636L10.329,6.9l0.013,0.017
			l5.552-5.268l-0.006-0.006c0.359-0.354,0.371-0.93,0.02-1.294c-0.347-0.367-0.928-0.381-1.299-0.038l-0.004-0.007L9.089,5.537
			l-2.542-0.05L5.796,8.062L6.067,8.344z M14.979,0.668c0.162-0.155,0.421-0.15,0.577,0.014c0.157,0.163,0.152,0.423-0.012,0.578
			c-0.163,0.154-0.421,0.149-0.578-0.013C14.812,1.084,14.815,0.825,14.979,0.668z"/>
	</g>
	<path fill="#95C11F" d="M10.283,9.748c-0.109,0.156-0.619,0.576-0.758,0.707c-0.271,0.254-0.593,0.456-0.962,0.604
		c-0.372,0.148-0.763,0.223-1.177,0.223c-0.413,0-0.805-0.074-1.176-0.223c-0.371-0.147-0.691-0.35-0.963-0.604
		C4.978,10.2,4.764,9.896,4.606,9.547C4.45,9.197,4.371,8.828,4.371,8.439S4.45,7.681,4.606,7.331
		c0.157-0.349,0.371-0.652,0.642-0.907c0.073-0.068,0.526-0.957,0.607-1.018c-0.846-1.124-2.951-3.12-2.951-3.12L1.189,3.988
		l0.949,0.941C1.66,5.611,1.315,6.392,1.146,7.236h-1.312v2.406h1.312c0.168,0.844,0.513,1.625,0.991,2.306l-0.949,0.942
		l1.716,1.701l0.98-0.975c0.684,0.436,1.458,0.738,2.29,0.879v1.44h2.424v-1.502c0.787-0.178,1.518-0.502,2.16-0.946l1.11,1.104
		l1.714-1.701l-1.145-1.138C12.45,11.736,10.869,10.17,10.283,9.748z"/>
</g>
</svg>
