<?xml version="1.0" encoding="UTF-8" standalone="no"?>
<svg
   xmlns:dc="http://purl.org/dc/elements/1.1/"
   xmlns:cc="http://creativecommons.org/ns#"
   xmlns:rdf="http://www.w3.org/1999/02/22-rdf-syntax-ns#"
   xmlns:svg="http://www.w3.org/2000/svg"
   xmlns="http://www.w3.org/2000/svg"
   width="16px"
   height="16px"
   viewBox="0 0 16 16"
   version="1.1">
  <g
     transform="matrix(0.09914599,0,0,0.09914599,-0.46980835,2.079948)">
    <path
       style="clip-rule:evenodd;fill:#0093dd;fill-rule:evenodd;image-rendering:optimizeQuality;shape-rendering:geometricPrecision;text-rendering:geometricPrecision"
       d="m 59.889934,4.0649756 c 19.16114,0 34.69996,15.5391734 34.69996,34.7003134 0,19.16079 -15.53882,34.69996 -34.69996,34.69996 -19.16114,0 -34.69996,-15.53917 -34.69996,-34.69996 0,-19.16114 15.53882,-34.7003134 34.69996,-34.7003134 z m 0,10.7762604 c 13.20945,0 23.92405,10.714606 23.92405,23.924053 0,13.20945 -10.7146,23.92406 -23.92405,23.92406 -13.20945,0 -23.92406,-10.71461 -23.92406,-23.92406 0,-13.209447 10.71461,-23.924053 23.92406,-23.924053 z" />
    <path
       style="clip-rule:evenodd;fill:#0093dd;fill-rule:evenodd;image-rendering:optimizeQuality;shape-rendering:geometricPrecision;text-rendering:geometricPrecision"
       d="m 124.29663,29.993479 c 14.54633,0 26.34307,11.79673 26.34307,26.34272 0,14.54634 -11.79674,26.34307 -26.34307,26.34307 -14.54599,0 -26.342716,-11.79673 -26.342716,-26.34307 0,-14.54599 11.796726,-26.34272 26.342716,-26.34272 z m 3.5e-4,9.65764 c 9.21118,0 16.68543,7.47425 16.68543,16.68543 0,9.21118 -7.47425,16.68543 -16.68543,16.68543 -9.21118,0 -16.68543,-7.47425 -16.68543,-16.68543 0,-9.21118 7.47425,-16.68543 16.68543,-16.68543 z" />
    <path
       style="clip-rule:evenodd;fill:#0093dd;fill-rule:evenodd;image-rendering:optimizeQuality;shape-rendering:geometricPrecision;text-rendering:geometricPrecision"
       d="M 5.5628843,104.00112 C 8.9750943,78.452809 28.885994,66.468989 35.354304,63.300919 c 0.35433,3.6e-4 8.19213,4.03654 8.79768,6.39673 -19.08461,10.1491 -26.00115,23.66894 -26.6354,31.790201 30.34382,0 54.33024,-0.30614 84.674056,-0.30614 C 98.984654,87.369539 90.465484,75.436749 74.909304,70.054109 c -2.54799,-1.4237 5.93504,-6.7174 9.51591,-6.75319 8.14641,3.69532 25.362636,15.35103 29.546566,40.557761 0.42237,2.33823 0.73807,5.16862 0.90851,8.11524 L 5.4208043,112.08801 c 0,-2.67661 -0.14174,-6.00732 0.14208,-8.08689 z" />
    <path
       style="clip-rule:evenodd;fill:#0093dd;fill-rule:evenodd;image-rendering:optimizeQuality;shape-rendering:geometricPrecision;text-rendering:geometricPrecision"
       d="m 106.60419,99.972379 c 1.53779,-11.51575 -13.116976,-16.35166 -10.447096,-18.52299 4.480516,-3.64394 7.518546,-5.50949 9.513076,-6.48674 0.26929,3.6e-4 8.02842,3.9026 8.48799,5.69445 -4.14992,2.08028 -6.72342,5.13744 -9.50918,7.69855 -2.64685,2.43389 -0.41811,2.58519 1.10623,5.07189 2.91012,4.74909 3.94866,4.90393 3.75803,7.875001 22.01067,-0.0418 20.25815,-0.36886 43.27902,-0.0719 -2.12315,-10.010911 -9.44008,-16.551851 -19.04315,-20.298901 -1.93394,-1.08071 6.45519,-5.94177 9.17362,-5.96906 6.18449,2.80559 19.25433,11.65394 22.43055,30.789931 0.32067,1.77484 0.56055,3.9235 0.68988,6.16075 l -55.35744,0.0577 c 0,-2.03208 -4.29697,-10.4198 -4.08153,-11.998701 z" />
  </g>
</svg>
