<?xml version="1.0" encoding="UTF-8" standalone="no"?>
<!-- Generator: Adobe Illustrator 15.0.0, SVG Export Plug-In . SVG Version: 6.00 Build 0)  -->

<svg
   xmlns:dc="http://purl.org/dc/elements/1.1/"
   xmlns:cc="http://creativecommons.org/ns#"
   xmlns:rdf="http://www.w3.org/1999/02/22-rdf-syntax-ns#"
   xmlns:svg="http://www.w3.org/2000/svg"
   xmlns="http://www.w3.org/2000/svg"
   xmlns:sodipodi="http://sodipodi.sourceforge.net/DTD/sodipodi-0.dtd"
   xmlns:inkscape="http://www.inkscape.org/namespaces/inkscape"
   version="1.1"
   id="Слой_1"
   x="0px"
   y="0px"
   width="16px"
   height="16px"
   viewBox="0 0 16 16"
   enable-background="new 0 0 16 16"
   xml:space="preserve"
   inkscape:version="0.48.4 r9939"
   sodipodi:docname="sharefolder.svg"><metadata
   id="metadata17"><rdf:RDF><cc:Work
       rdf:about=""><dc:format>image/svg+xml</dc:format><dc:type
         rdf:resource="http://purl.org/dc/dcmitype/StillImage" /></cc:Work></rdf:RDF></metadata><defs
   id="defs15" /><sodipodi:namedview
   pagecolor="#ffffff"
   bordercolor="#666666"
   borderopacity="1"
   objecttolerance="10"
   gridtolerance="10"
   guidetolerance="10"
   inkscape:pageopacity="0"
   inkscape:pageshadow="2"
   inkscape:window-width="1280"
   inkscape:window-height="962"
   id="namedview13"
   showgrid="false"
   inkscape:zoom="8"
   inkscape:cx="3.9144827"
   inkscape:cy="9.0594296"
   inkscape:window-x="-8"
   inkscape:window-y="-8"
   inkscape:window-maximized="1"
   inkscape:current-layer="g7" />
<g
   id="g3">
	
<path
   style="fill:#36a9e1;fill-opacity:1;fill-rule:evenodd"
   inkscape:connector-curvature="0"
   clip-rule="evenodd"
   d="M 0,8.0000003 C 0,12.419993 3.5800803,16 8.0000001,16 12.419994,16 16,12.419993 16,8.0000003 16,3.5800797 12.419994,0 8.0000001,0 3.5800802,0 0,3.5800797 0,8.0000003 z m 1.6666192,0 c 0,-0.5133482 0.0601,-1.0133412 0.1766199,-1.4899276 l 1.490036,1.4899276 -0.3332798,2.0000077 1.33334,1.333268 v 1.83014 C 2.7200611,12.016675 1.6666192,10.130254 1.6666192,8.0000003 z m 4.8766582,-6.163439 c 0.4666805,-0.1132566 0.953465,-0.1699047 1.4567227,-0.1699047 0.556677,0 1.096662,0.073378 1.610009,0.2067036 l -0.276706,0.4600382 0.333354,0.3332811 h 1.0000599 l 0.276741,-0.2766699 c 0.232973,0.123345 0.453105,0.2566741 0.666598,0.4066569 l -0.609951,0.2033285 -0.666743,0.6666323 0.666743,0.3333552 v 0.3333524 h -0.666743 v 0.6666336 c 0,0 0.459929,0.3333524 0.999913,0.3333524 0.530079,0 0.293436,-0.7299936 0.66678,-0.999986 0.376683,-0.270065 0.833383,-0.2100061 0.833383,-0.2100061 l 0.216682,0.056648 c 0.406695,0.5366083 0.729812,1.1367616 0.949909,1.7866278 v 0.033355 c 0,0 -0.470057,-0.3333538 -1.333268,-0.3333538 -0.863284,0 -1.666656,0.3333538 -1.666656,0.3333538 0,0 -0.94022,0.2734401 -1.000096,1.0000228 -0.1034589,1.2499456 0.333353,1.6666922 0.333353,1.6666922 l 1.666693,0.9999464 v 3.243574 c -1.089837,0.889919 -2.4833819,1.423152 -4.0000539,1.423152 -0.7166035,0 -1.4033057,-0.116452 -2.0466776,-0.336582 L 7.6666478,9.999975 7.3333673,8.3333198 c 0,0 -1.3233969,-1.6666936 -2.000009,-1.6666936 -0.676576,0 -0.9999861,0.999986 -0.9999861,0.999986 L 3.6666652,6.3333465 5.6666384,4.9999711 6.6666615,2.3333284 6.5432767,1.836564 z"
   id="path3" /></g>
<g
   id="g7"
   transform="matrix(1.2581846,0,0,1.2219372,0.12156257,-3.6855261)">
	
	
</g>
</svg>