<?xml version="1.0" encoding="utf-8"?>
<!-- Generator: Adobe Illustrator 15.0.0, SVG Export Plug-In . SVG Version: 6.00 Build 0)  -->
<!DOCTYPE svg PUBLIC "-//W3C//DTD SVG 1.1//EN" "http://www.w3.org/Graphics/SVG/1.1/DTD/svg11.dtd">
<svg version="1.1" id="Слой_1" xmlns="http://www.w3.org/2000/svg" xmlns:xlink="http://www.w3.org/1999/xlink" x="0px" y="0px"
	 width="16px" height="16px" viewBox="0 0 16 16" enable-background="new 0 0 16 16" xml:space="preserve">
<g>
	<rect y="-0.041" fill="#36A9E1" width="16.246" height="16.041"/>
	<path fill="#F5F5F5" d="M9.832,5.741C9.799,4.184,8.736,2.935,7.431,2.935c-0.766,0-1.446,0.43-1.887,1.096
		C5.298,3.65,4.912,3.404,4.477,3.404c-0.744,0-1.348,0.724-1.348,1.617c0,0.077,0.005,0.153,0.013,0.228
		C3.028,5.225,2.913,5.211,2.793,5.211c-1.08,0-1.956,1.05-1.956,2.344c0,1.295,0.876,2.345,1.956,2.345H3.8h4.412h1.207l0,0
		c0.969-0.002,1.755-0.946,1.755-2.11C11.174,6.798,10.602,5.965,9.832,5.741z"/>
	<path fill="#36A9E1" d="M13.92,8.356c-0.042-1.719-1.394-3.099-3.053-3.099c-0.974,0-1.839,0.475-2.4,1.21
		C8.154,6.048,7.663,5.776,7.11,5.776c-0.947,0-1.715,0.799-1.715,1.786c0,0.084,0.007,0.169,0.017,0.251
		C5.267,7.787,5.12,7.772,4.968,7.772c-1.374,0-2.487,1.16-2.487,2.589c0,1.429,1.114,2.588,2.487,2.588h1.28h5.611h1.534l0,0
		c1.233-0.001,2.233-1.044,2.233-2.329C15.627,9.524,14.899,8.604,13.92,8.356z"/>
	<path fill="#F5F5F5" d="M13.771,9.152c-0.041-1.719-1.352-3.099-2.96-3.099c-0.945,0-1.783,0.475-2.327,1.21
		c-0.304-0.42-0.78-0.691-1.315-0.691c-0.918,0-1.663,0.798-1.663,1.785c0,0.084,0.007,0.169,0.017,0.251
		c-0.14-0.026-0.283-0.041-0.43-0.041c-1.332,0-2.411,1.159-2.411,2.589s1.08,2.589,2.411,2.589h1.241h5.44h1.488l0,0
		c1.196-0.002,2.164-1.045,2.164-2.33C15.426,10.32,14.72,9.4,13.771,9.152z"/>
</g>
</svg>
