<?xml version="1.0" encoding="UTF-8" standalone="no"?>
<svg
   xmlns:dc="http://purl.org/dc/elements/1.1/"
   xmlns:cc="http://creativecommons.org/ns#"
   xmlns:rdf="http://www.w3.org/1999/02/22-rdf-syntax-ns#"
   xmlns:svg="http://www.w3.org/2000/svg"
   xmlns="http://www.w3.org/2000/svg"
   version="1.1"
   viewBox="0 0 16 16"
   style="shape-rendering:geometricPrecision; text-rendering:geometricPrecision; image-rendering:optimizeQuality; fill-rule:evenodd; clip-rule:evenodd"
   height="16px"
   width="16px"
   xml:space="preserve"><g
     transform="matrix(0.39486468,0,0,0.39486468,-5.5493265,-23.544254)"><path
       style="fill:#0093dd"
       d="M 34.5653,65.4147 C 42.0571,65.5203 53.0488,73.7353 54.5936,80.15 51.3172,89.1221 40.0484,95.1052 34.3538,94.6824 23.7687,94.9467 14.484,82.3778 14.167,80.0971 18.1128,70.8696 27.7658,65.3941 34.5653,65.4147 Z m -0.185,3.9515 c 5.9262,0 10.732,4.7936 10.732,10.7045 0,5.911 -4.8058,10.7045 -10.732,10.7045 -5.9262,0 -10.732,-4.7935 -10.732,-10.7045 0,-5.9109 4.8058,-10.7045 10.732,-10.7045 z" /><path
       style="fill:#0093dd"
       d="m 34.3803,74.1895 c 3.2559,0 5.8963,2.6337 5.8963,5.8812 0,3.2476 -2.6404,5.8812 -5.8963,5.8812 -3.2559,0 -5.8963,-2.6336 -5.8963,-5.8812 0,-0.8626 0.1863,-1.682 0.521,-2.4201 1.076,0.3533 4.053,1.7758 5.3753,2.4084 -0.3557,-1.1607 -1.8463,-5.0051 -2.0207,-5.5149 0.6303,-0.2294 1.3109,-0.3546 2.0207,-0.3546 z" /><polygon
       style="fill:#da251d"
       points="20.9605,95.3247 17.6327,91.9322 45.4237,64.2006 48.9317,67.4019 " /></g></svg>