<?xml version="1.0" encoding="UTF-8" standalone="no"?>
<!-- Generator: Adobe Illustrator 15.0.0, SVG Export Plug-In . SVG Version: 6.00 Build 0)  -->

<svg
   xmlns:dc="http://purl.org/dc/elements/1.1/"
   xmlns:cc="http://creativecommons.org/ns#"
   xmlns:rdf="http://www.w3.org/1999/02/22-rdf-syntax-ns#"
   xmlns:svg="http://www.w3.org/2000/svg"
   xmlns="http://www.w3.org/2000/svg"
   xmlns:sodipodi="http://sodipodi.sourceforge.net/DTD/sodipodi-0.dtd"
   xmlns:inkscape="http://www.inkscape.org/namespaces/inkscape"
   version="1.1"
   id="Слой_1"
   x="0px"
   y="0px"
   width="16px"
   height="16px"
   viewBox="0 0 16 16"
   enable-background="new 0 0 16 16"
   xml:space="preserve"
   inkscape:version="0.48.4 r9939"
   sodipodi:docname="syncwebfolders.svg"><metadata
   id="metadata15"><rdf:RDF><cc:Work
       rdf:about=""><dc:format>image/svg+xml</dc:format><dc:type
         rdf:resource="http://purl.org/dc/dcmitype/StillImage" /></cc:Work></rdf:RDF></metadata><defs
   id="defs13" /><sodipodi:namedview
   pagecolor="#ffffff"
   bordercolor="#666666"
   borderopacity="1"
   objecttolerance="10"
   gridtolerance="10"
   guidetolerance="10"
   inkscape:pageopacity="0"
   inkscape:pageshadow="2"
   inkscape:window-width="1280"
   inkscape:window-height="962"
   id="namedview11"
   showgrid="false"
   inkscape:zoom="14.75"
   inkscape:cx="8"
   inkscape:cy="8"
   inkscape:window-x="-8"
   inkscape:window-y="-8"
   inkscape:window-maximized="1"
   inkscape:current-layer="g5" />
<path
   fill="#F9B233"
   d="M14.383,6.142l-0.234,7.691c-0.184,0.524-0.369,0.696-1.885,0.694L1.04,14.529  c-0.454,0-0.823-0.502-0.823-1.12l0.015-9.615L0.224,0.952c0-0.136,0.039-0.267,0.109-0.362C0.404,0.492,0.5,0.438,0.6,0.438h2.919  c0.155,0,0.295,0.132,0.35,0.327l0.536,1.907c0,0,6.455,0.023,9.173,0.125c0.131,0.005,0.447-0.069,0.652,0.157  c0.17,0.187,0.09,0.11,0.137,0.533c0.049,0.468,0.101,1.784,0,2.475l-0.691,0.046c0,0,0.012-2.246-0.035-2.299  c-0.045-0.051-9.495-0.016-9.495-0.016c-0.155,0-0.295-0.13-0.352-0.329L3.26,1.46H0.968v2.329v9.62  c0,0.055,0.033,0.099,0.072,0.099h0.884l0.01-7.129c0.104-0.331,0.391-0.654,0.685-0.654L5.68,5.583h3.123h0.646  c1.486,0.014,4.25,0.111,4.25,0.111C13.994,5.694,14.398,5.609,14.383,6.142z"
   id="path3" />
<g
   id="g5">
	<path
   fill="#95C11F"
   d="M8.804,11.999c0.029-0.706-0.388-0.89-0.921-0.409l-1.063,0.949c-0.196-0.151-0.382-0.311-0.548-0.487   c-0.058-0.062-0.109-0.124-0.162-0.191c-0.064-0.074-0.121-0.154-0.175-0.233c-0.051-0.07-0.099-0.142-0.142-0.213   c-0.074-0.119-0.14-0.238-0.199-0.365c-0.025-0.055-0.047-0.111-0.074-0.167c-0.055-0.131-0.103-0.265-0.145-0.404   c-0.006-0.027-0.018-0.052-0.025-0.081c-0.045-0.165-0.074-0.337-0.098-0.508C5.246,9.846,5.24,9.801,5.238,9.756   c-0.021-0.179-0.029-0.36-0.021-0.543c0-0.007,0.002-0.014,0.002-0.017c0.005-0.131,0.017-0.257,0.035-0.385   C5.262,8.749,5.278,8.689,5.29,8.63c0.015-0.073,0.024-0.143,0.042-0.216c0.013-0.049,0.03-0.099,0.044-0.151   C5.4,8.184,5.425,8.102,5.452,8.024c0.015-0.035,0.034-0.069,0.045-0.103C5.535,7.828,5.574,7.733,5.62,7.644   c0.222-0.453,0.535-0.87,0.93-1.219c0.419-0.378,0.904-0.662,1.444-0.84C8.581,5.386,8.89,4.766,8.687,4.199   c-0.203-0.571-0.843-0.871-1.428-0.67C6.424,3.804,5.675,4.244,5.025,4.823c-0.591,0.529-1.061,1.15-1.405,1.83   C3.614,6.661,3.61,6.668,3.604,6.68C3.599,6.687,3.599,6.693,3.592,6.703C3.518,6.854,3.452,7.01,3.391,7.166   C3.374,7.207,3.355,7.242,3.344,7.282c-0.057,0.15-0.104,0.304-0.147,0.456C3.185,7.787,3.167,7.836,3.154,7.883   C3.114,8.039,3.087,8.194,3.061,8.35C3.054,8.402,3.038,8.449,3.029,8.496c-0.027,0.209-0.047,0.42-0.056,0.632   c0,0.009,0,0.021,0,0.035C2.965,9.338,2.971,9.508,2.979,9.68c0.001,0.058,0.004,0.118,0.01,0.178   c0.012,0.13,0.027,0.26,0.044,0.386c0.011,0.06,0.018,0.115,0.027,0.174c0.027,0.162,0.063,0.324,0.103,0.483   c0.005,0.015,0.005,0.03,0.011,0.045c0.05,0.187,0.109,0.37,0.176,0.549c0.008,0.02,0.017,0.034,0.02,0.054   c0.069,0.167,0.143,0.337,0.222,0.501c0.007,0.007,0.012,0.02,0.018,0.031c0.37,0.738,0.887,1.405,1.534,1.952l-1.042,0.934   c-0.534,0.475-0.38,0.891,0.349,0.918l2.862,0.113c0.727,0.027,1.346-0.522,1.374-1.228L8.804,11.999z"
   id="path7"
   style="stroke:none;stroke-opacity:1;stroke-width:0.29999999999999999;stroke-miterlimit:4;stroke-dasharray:none;fill:#36a9e1;fill-opacity:1" />
	<path
   fill="#95C11F"
   d="M10.067,3.981L9.952,6.754c-0.028,0.705,0.384,0.888,0.919,0.412l1.063-0.951   c0.193,0.147,0.377,0.307,0.544,0.484c0.058,0.063,0.112,0.128,0.168,0.195c0.059,0.073,0.115,0.149,0.168,0.223   c0.055,0.073,0.107,0.15,0.153,0.229c0.071,0.117,0.134,0.235,0.19,0.355c0.026,0.057,0.053,0.114,0.073,0.17   c0.057,0.13,0.104,0.264,0.143,0.396c0.011,0.03,0.021,0.058,0.027,0.086c0.046,0.167,0.074,0.334,0.098,0.508   c0.008,0.045,0.011,0.09,0.018,0.135c0.015,0.178,0.024,0.357,0.018,0.543c-0.006,0.134-0.018,0.266-0.038,0.402   c-0.007,0.055-0.023,0.111-0.03,0.168c-0.014,0.076-0.027,0.151-0.048,0.229c-0.012,0.048-0.03,0.095-0.042,0.142   c-0.024,0.084-0.048,0.166-0.076,0.248c-0.016,0.032-0.031,0.071-0.046,0.107c-0.034,0.092-0.075,0.181-0.119,0.271   c-0.226,0.452-0.536,0.869-0.929,1.221c-0.423,0.378-0.91,0.661-1.445,0.842c-0.586,0.197-0.898,0.818-0.692,1.385   c0.201,0.567,0.844,0.869,1.432,0.673c0.825-0.279,1.578-0.715,2.231-1.299c0.588-0.529,1.06-1.15,1.399-1.83   c0.007-0.007,0.015-0.018,0.018-0.026c0.004-0.007,0.009-0.016,0.012-0.021c0.076-0.155,0.145-0.316,0.207-0.479   c0.017-0.035,0.03-0.068,0.045-0.101c0.057-0.157,0.103-0.318,0.147-0.477c0.015-0.044,0.028-0.083,0.038-0.128   c0.042-0.162,0.073-0.328,0.1-0.496c0.009-0.04,0.02-0.076,0.024-0.118c0.027-0.208,0.05-0.416,0.061-0.628   c0-0.011-0.004-0.021-0.004-0.033c0.007-0.176,0.006-0.35-0.004-0.521c-0.003-0.059-0.007-0.115-0.012-0.174   c-0.011-0.132-0.024-0.265-0.044-0.396C15.71,8.449,15.7,8.393,15.693,8.336c-0.027-0.167-0.064-0.333-0.106-0.496   c-0.001-0.012-0.004-0.021-0.008-0.035c-0.049-0.186-0.113-0.372-0.18-0.554l-0.016-0.043c-0.066-0.17-0.141-0.342-0.224-0.509   c-0.005-0.007-0.009-0.019-0.015-0.029c-0.368-0.737-0.888-1.405-1.537-1.954l1.043-0.932c0.537-0.476,0.379-0.888-0.35-0.919   l-2.86-0.111C10.715,2.726,10.097,3.277,10.067,3.981z"
   id="path9"
   style="stroke-width:0.40000000000000002;stroke-miterlimit:4;stroke-dasharray:none;stroke:none;stroke-opacity:1;fill:#36a9e1;fill-opacity:1" />
</g>
</svg>