<?xml version="1.0" encoding="utf-8"?>
<!-- Generator: Adobe Illustrator 15.0.0, SVG Export Plug-In . SVG Version: 6.00 Build 0)  -->
<!DOCTYPE svg PUBLIC "-//W3C//DTD SVG 1.1//EN" "http://www.w3.org/Graphics/SVG/1.1/DTD/svg11.dtd">
<svg version="1.1" id="Слой_1" xmlns="http://www.w3.org/2000/svg" xmlns:xlink="http://www.w3.org/1999/xlink" x="0px" y="0px"
	 width="16px" height="16px" viewBox="0 0 16 16" enable-background="new 0 0 16 16" xml:space="preserve">
<g>
	<g>
		<g>
			<path fill="#808184" d="M11.092,4.265L9.255,2.233c-0.4-0.442-1.192-0.804-1.756-0.804H1.327c-0.564,0-1.028,0.511-1.028,1.136
				v12.296C0.299,15.487,0.762,16,1.327,16h9.463c0.565,0,1.028-0.513,1.028-1.139V6.208C11.818,5.583,11.49,4.708,11.092,4.265z
				 M10.509,4.91c0.041,0.043,0.08,0.099,0.12,0.16H8.527V2.744c0.055,0.043,0.106,0.088,0.146,0.131L10.509,4.91z M10.995,14.861
				c0,0.123-0.094,0.229-0.205,0.229H1.327c-0.111,0-0.206-0.105-0.206-0.229V2.565c0-0.122,0.094-0.227,0.206-0.227h6.172
				c0.061,0,0.131,0.009,0.205,0.024v3.619h3.269c0.015,0.083,0.022,0.158,0.022,0.227V14.861z"/>
		</g>
		<rect x="2.405" y="8.27" fill="#808184" width="7.306" height="0.887"/>
		<rect x="2.405" y="11.078" fill="#808184" width="7.306" height="0.887"/>
	</g>
	<g>
		<path fill="#808184" stroke="#FFFFFF" stroke-width="0.25" stroke-miterlimit="10" d="M15.671,1.047
			c0.398,0.55,0.544,1.361,0.38,2.107l-0.569,0.789l-1.899-2.632L14.15,0.52C14.689,0.292,15.273,0.495,15.671,1.047z"/>
		<polygon fill="#95C11F" stroke="#FFFFFF" stroke-width="0.25" stroke-miterlimit="10" points="15.102,4.469 10.922,10.264 
			7.521,12.346 9.022,7.629 13.201,1.836 		"/>
	</g>
</g>
</svg>
