<?xml version="1.0" encoding="utf-8"?>
<!-- Generator: Adobe Illustrator 15.0.0, SVG Export Plug-In . SVG Version: 6.00 Build 0)  -->
<!DOCTYPE svg PUBLIC "-//W3C//DTD SVG 1.1//EN" "http://www.w3.org/Graphics/SVG/1.1/DTD/svg11.dtd">
<svg version="1.1" id="Слой_1" xmlns="http://www.w3.org/2000/svg" xmlns:xlink="http://www.w3.org/1999/xlink" x="0px" y="0px"
	 width="16px" height="16px" viewBox="0 0 16 16" enable-background="new 0 0 16 16" xml:space="preserve">
<g>
	<path fill="#36A9E1" stroke="#36A9E1" stroke-width="0.5" stroke-miterlimit="10" d="M3.738,7.441l5.26-0.068
		c0,0-0.13-1.103,0.567-1.282c0.457-0.116,2.075,0.702,2.075,0.702s1.795,0.971,1.799,1.253c0.003,0.255-1.361,1.054-1.361,1.054
		s-1.987,1.165-2.534,0.99c-0.58-0.187-0.53-1.244-0.53-1.244L3.755,8.916c0,0-0.556-0.165-0.564-0.698
		C3.184,7.753,3.738,7.441,3.738,7.441z"/>
	<g>
		<g>
			<rect x="0.032" y="5.843" fill-rule="evenodd" clip-rule="evenodd" fill="#878787" width="0.978" height="1.665"/>
			<polygon fill-rule="evenodd" clip-rule="evenodd" fill="#878787" points="0.032,2.85 0.032,4.512 1.009,4.512 1.009,3.848 
				1.653,3.848 1.653,2.85 			"/>
			<rect x="2.952" y="2.85" fill-rule="evenodd" clip-rule="evenodd" fill="#878787" width="1.622" height="0.999"/>
			<rect x="5.861" y="2.85" fill-rule="evenodd" clip-rule="evenodd" fill="#878787" width="1.624" height="1.003"/>
			<rect x="2.952" y="12.363" fill-rule="evenodd" clip-rule="evenodd" fill="#878787" width="1.624" height="1.002"/>
			<polygon fill-rule="evenodd" clip-rule="evenodd" fill="#878787" points="0.032,13.365 1.654,13.365 1.654,12.363 1.005,12.363 
				1.005,11.701 0.032,11.701 			"/>
			<rect x="0.032" y="8.708" fill-rule="evenodd" clip-rule="evenodd" fill="#878787" width="0.974" height="1.662"/>
		</g>
		<path fill="#878787" d="M8.323,2.85c0,0-0.157,0.501-0.039,1.003l6.424-0.004l-0.039,8.515H5.15c-0.057,0.169,0.061,0.501,0,1.002
			h10.819V2.85H8.323z"/>
	</g>
	<line fill="none" stroke="#878787" stroke-miterlimit="10" x1="9.506" y1="0.755" x2="5.134" y2="14.941"/>
</g>
</svg>
