<?xml version="1.0" encoding="UTF-8" standalone="no"?>
<svg
   xmlns:dc="http://purl.org/dc/elements/1.1/"
   xmlns:cc="http://creativecommons.org/ns#"
   xmlns:rdf="http://www.w3.org/1999/02/22-rdf-syntax-ns#"
   xmlns:svg="http://www.w3.org/2000/svg"
   xmlns="http://www.w3.org/2000/svg"
   version="1.1"
   viewBox="0 0 16 16"
   style="shape-rendering:geometricPrecision; text-rendering:geometricPrecision; image-rendering:optimizeQuality; fill-rule:evenodd; clip-rule:evenodd"
   height="16px"
   width="16px"
   xml:space="preserve"><g
     transform="matrix(0.53307856,0,0,0.53307856,-7.2983011,-7.6677362)"><path
       style="fill:#878787"
       d="m 25.2923,26.9251 c 0,4.2665 0,8.533 0,12.7996 -0.3866,1.1214 -1.8796,1.2239 -2.3711,-0.0324 0,-4.3366 0,-8.374 0,-12.7106 0.1866,-1.1279 2.0562,-1.1738 2.3711,-0.0566 z" /><path
       style="fill:#878787"
       d="m 30.0817,26.9575 c 0,4.2665 0,8.533 0,12.7996 -0.3866,1.1214 -1.8796,1.2239 -2.3711,-0.0324 0,-4.3366 0,-8.374 0,-12.7106 0.1866,-1.1279 2.0562,-1.1738 2.3711,-0.0566 z" /><path
       style="fill:#878787"
       d="m 34.871,27.0061 c 0,4.2665 0,8.533 0,12.7996 -0.3866,1.1214 -1.8796,1.2239 -2.3711,-0.0324 0,-4.3366 0,-8.374 0,-12.7106 0.1866,-1.1279 2.0562,-1.1738 2.3711,-0.0566 z" /><path
       style="fill:#878787"
       d="m 16.9245,19.8165 c 0.0081,-0.8219 0.5131,-1.2823 1.0865,-1.457 l 6.0195,-0.0359 c 0.0235,-0.6871 0.0471,-1.3742 0.0707,-2.0613 0.0821,-1.1128 0.8425,-1.6434 1.7483,-1.8828 1.9284,0.0071 3.8569,0.0143 5.7854,0.0215 1.3448,0.2692 1.737,1.0722 1.9514,1.9238 l -0.0257,1.9905 c 1.9639,7e-4 3.9278,0.0014 5.8917,0.0021 0.8685,0.1276 1.2606,0.8418 1.2853,1.4021 l 0.074,5.0892 -23.9195,0.0166 c 0.0108,-1.6696 0.0216,-3.3392 0.0324,-5.0088 z m 9.476,-2.9674 4.861,0 0,1.4234 -4.861,0 0,-1.4234 z m -7.1218,3.9629 19.121,0 0,1.4234 -19.121,0 0,-1.4234 z" /><path
       style="fill:#878787"
       d="m 17.9866,24.5647 2.4433,0 c 0,4.9171 0,9.8343 0,14.7515 0.0405,0.9978 0.5557,2 1.5537,2.4258 4.4397,0.1096 8.8551,0.0853 13.2878,0.0774 0.5493,0.0294 1.8894,-0.5836 2.0186,-2.478 -0.0095,-1.0184 -0.083,-10.1953 -0.0358,-14.7243 1.19,-0.1068 1.8778,-0.0925 2.3775,0.0308 -0.0198,1.1754 0.1072,9.9222 -0.1395,15.8242 -0.189,2.5976 -2.5907,3.8261 -3.362,3.8692 -2.5511,0.1424 -12.408,0.0891 -14.3485,0.0607 -2.4386,-0.4715 -3.9081,-2.7706 -3.7951,-4.5197 l 0,-15.3176 z" /></g></svg>