<?xml version="1.0" encoding="UTF-8" standalone="no"?>
<svg
   xmlns:dc="http://purl.org/dc/elements/1.1/"
   xmlns:cc="http://creativecommons.org/ns#"
   xmlns:rdf="http://www.w3.org/1999/02/22-rdf-syntax-ns#"
   xmlns:svg="http://www.w3.org/2000/svg"
   xmlns="http://www.w3.org/2000/svg"
   xml:space="preserve"
   width="16px"
   viewBox="0 0 16 16"
   version="1.0"
   id="Layer_1"
   height="16px"
   enable-background="new 0 0 16 16"><path
     style="fill:#55acee"
     id="path3"
     d="M 15.993,2.9109967 C 15.404647,3.1724313 14.772805,3.3488871 14.108471,3.4273675 14.785802,3.021469 15.306172,2.3786298 15.55161,1.6128213 14.917269,1.9882275 14.215445,2.2621589 13.468132,2.4086223 12.869281,1.7712817 12.016495,1.3728814 11.072231,1.3728814 c -1.812047,0 -3.2801797,1.4686326 -3.2801797,3.2806794 0,0.2569357 0.028493,0.507873 0.084479,0.7478129 C 5.1497122,5.264408 2.7323168,3.9582347 1.1137217,1.9732312 0.8317922,2.4581099 0.66983271,3.021469 0.66983271,3.6228186 c 0,1.1387152 0.57935509,2.1424641 1.45913499,2.7313168 -0.5373655,-0.017496 -1.043239,-0.1644588 -1.48562837,-0.4103973 -4.9987e-4,0.013497 -4.9987e-4,0.027993 -4.9987e-4,0.04099 0,1.5901022 1.13071714,2.9162705 2.63184174,3.2176951 -0.2749313,0.074481 -0.5648587,0.1149713 -0.8642839,0.1149713 -0.2119469,0 -0.4168957,-0.020495 -0.6168457,-0.058485 0.4168958,1.3026745 1.6290926,2.2514365 3.0642336,2.2784305 -1.1222193,0.87978 -2.5368655,1.405148 -4.073981,1.405148 -0.26493373,0 -0.52636834,-0.0155 -0.7828042,-0.04599 1.4516369,0.929767 3.1762056,1.473131 5.0292421,1.473131 6.0344909,0 9.3351649,-4.9992494 9.3351649,-9.3351648 0,-0.1419645 -0.004,-0.283929 -0.01,-0.4248937 0.641339,-0.4623843 1.1972,-1.0397399 1.63759,-1.6985751 z" /><g
     id="g5" /><g
     id="g7" /><g
     id="g9" /><g
     id="g11" /><g
     id="g13" /><g
     id="g15" /></svg>