<?xml version="1.0" encoding="utf-8"?>
<!-- Generator: Adobe Illustrator 15.0.0, SVG Export Plug-In . SVG Version: 6.00 Build 0)  -->
<!DOCTYPE svg PUBLIC "-//W3C//DTD SVG 1.1//EN" "http://www.w3.org/Graphics/SVG/1.1/DTD/svg11.dtd">
<svg version="1.1" id="Слой_1" xmlns="http://www.w3.org/2000/svg" xmlns:xlink="http://www.w3.org/1999/xlink" x="0px" y="0px"
	 width="16px" height="16px" viewBox="0 0 16 16" enable-background="new 0 0 16 16" xml:space="preserve">
<g>
	<g>
		<g>
			<path fill="#808184" d="M15.326,6.729l-1.702-1.606c-0.372-0.35-1.105-0.636-1.63-0.636H6.272c-0.525,0-0.955,0.405-0.955,0.899
				v9.715C5.317,15.595,5.747,16,6.272,16h8.775C15.571,16,16,15.595,16,15.101V8.264C16,7.77,15.697,7.079,15.326,6.729z
				 M14.786,7.237c0.038,0.036,0.074,0.079,0.111,0.127h-1.949V5.527C13,5.561,13.045,5.596,13.082,5.632L14.786,7.237z
				 M15.237,15.101c0,0.098-0.087,0.18-0.19,0.18H6.272c-0.104,0-0.192-0.082-0.192-0.18V5.386c0-0.097,0.088-0.18,0.192-0.18h5.722
				c0.058,0,0.122,0.007,0.191,0.019v2.859h3.03c0.014,0.063,0.021,0.126,0.021,0.18V15.101z"/>
		</g>
		<path fill="#95C11F" stroke="#FFFFFF" stroke-width="0.5" stroke-miterlimit="10" d="M6.75,8.469l3.589,3.462
			c0,0-1.52,1.266-1.264,1.934c0.169,0.437,2.357,0.477,2.357,0.477s2.514-0.037,2.883-0.38c0.332-0.309,0.415-2.165,0.415-2.165
			s0.118-2.703-0.489-2.84c-0.647-0.147-1.979,1.18-1.979,1.18l-3.59-3.46c0,0-0.602-0.157-1.297,0.489
			C6.769,7.731,6.75,8.469,6.75,8.469z"/>
	</g>
	<g>
		<path fill="#E6332A" d="M0.066,9.799c0,3.189,2.326,5.784,5.183,5.784h1.835c0.304,0,0.551-0.275,0.551-0.614v-0.204
			c0-0.341-0.248-0.614-0.551-0.614H5.25c-2.15,0-3.899-1.952-3.899-4.352c0-2.398,1.749-4.351,3.899-4.351h3.385L6.303,8.051
			c-0.25,0.279-0.25,0.732,0,1.013c0.244,0.271,0.666,0.271,0.908,0l3.429-3.826c0.121-0.136,0.188-0.315,0.188-0.506
			c0-0.191-0.066-0.372-0.188-0.507L7.211,0.4c-0.242-0.271-0.666-0.271-0.908,0c-0.25,0.278-0.25,0.734,0,1.013l2.332,2.603H5.25
			C2.392,4.016,0.066,6.609,0.066,9.799z"/>
	</g>
</g>
</svg>
