<?xml version="1.0" encoding="utf-8"?>
<!-- Generator: Adobe Illustrator 15.0.0, SVG Export Plug-In . SVG Version: 6.00 Build 0)  -->
<!DOCTYPE svg PUBLIC "-//W3C//DTD SVG 1.1//EN" "http://www.w3.org/Graphics/SVG/1.1/DTD/svg11.dtd">
<svg version="1.1" id="Слой_1" xmlns="http://www.w3.org/2000/svg" xmlns:xlink="http://www.w3.org/1999/xlink" x="0px" y="0px"
	 width="16px" height="16px" viewBox="0 0 16 16" enable-background="new 0 0 16 16" xml:space="preserve">
<g>
	<path fill="#36A9E1" stroke="#FFFFFF" stroke-width="0.5" stroke-miterlimit="10" d="M9.064-0.052
		c-2.933,0-5.115,1.325-4.987,3.277h1.997c0.096-0.71,1.231-1.27,2.99-1.27c1.762,0,3.195,1.351,3.195,3.009v1.004H1.613v7.022
		c0,1.661,1.432,3.01,3.193,3.01h6.387c1.762,0,3.193-1.349,3.193-3.01V4.964C14.387,2.2,12-0.052,9.064-0.052 M11.193,13.993H4.806
		c-0.586,0-1.065-0.449-1.065-1.003V7.974h8.519v5.017C12.26,13.544,11.779,13.993,11.193,13.993"/>
	<path fill="#36A9E1" stroke="#FFFFFF" stroke-width="0.5" stroke-miterlimit="10" d="M9.064,10.983
		c0,0.557-0.478,1.004-1.064,1.004c-0.587,0-1.064-0.447-1.064-1.004c0-0.552,0.478-1.002,1.064-1.002
		C8.586,9.981,9.064,10.432,9.064,10.983"/>
</g>
</svg>
