<?xml version="1.0" encoding="utf-8"?>
<!-- Generator: Adobe Illustrator 15.0.0, SVG Export Plug-In . SVG Version: 6.00 Build 0)  -->
<!DOCTYPE svg PUBLIC "-//W3C//DTD SVG 1.1//EN" "http://www.w3.org/Graphics/SVG/1.1/DTD/svg11.dtd">
<svg version="1.1" id="Слой_1" xmlns="http://www.w3.org/2000/svg" xmlns:xlink="http://www.w3.org/1999/xlink" x="0px" y="0px"
	 width="16px" height="16px" viewBox="0 0 16 16" enable-background="new 0 0 16 16" xml:space="preserve">
<g>
	<g>
		<line fill="none" stroke="#878787" stroke-miterlimit="10" x1="11.932" y1="12.228" x2="11.932" y2="15.354"/>
		<g>
			<polygon fill="#DADADA" stroke="#878787" stroke-miterlimit="10" points="2.301,1.099 10.842,1.099 10.842,11.729 3.884,11.729 
				3.846,9.21 8.024,9.131 8.024,3.477 2.301,3.391 			"/>
			<polyline fill="none" stroke="#878787" stroke-miterlimit="10" points="7.844,13.726 7.844,11.729 7.901,13.726 			"/>
			<path fill="none" d="M3.346,13.726"/>
			<line fill="none" stroke="#878787" stroke-miterlimit="10" x1="13.636" y1="13.726" x2="2.301" y2="13.726"/>
			<line fill="none" stroke="#878787" stroke-miterlimit="10" x1="2.301" y1="10.344" x2="3.884" y2="10.344"/>
			<line fill="none" stroke="#878787" stroke-miterlimit="10" x1="3.884" y1="11.818" x2="3.884" y2="15.354"/>
			<polygon fill="#F9B233" stroke="#F9B233" stroke-miterlimit="10" points="1.072,8.514 5.989,8.514 5.989,4.426 2.255,4.426 
				2.255,2.827 1.072,2.827 			"/>
		</g>
	</g>
	<path fill="#95C11F" stroke="#FFFFFF" stroke-width="0.25" stroke-miterlimit="10" d="M6.643,10.262l5.188,0.095
		c0,0-0.072-2.062,0.624-2.366c0.456-0.2,2.013,1.393,2.013,1.393s1.721,1.886,1.71,2.414c-0.009,0.476-1.394,1.907-1.394,1.907
		s-2.02,2.09-2.549,1.741c-0.564-0.37-0.46-2.339-0.46-2.339l-5.187-0.095c0,0-0.542-0.329-0.524-1.321
		C6.082,10.823,6.643,10.262,6.643,10.262z"/>
</g>
</svg>
