<?xml version="1.0" encoding="utf-8"?>
<!-- Generator: Adobe Illustrator 15.0.0, SVG Export Plug-In . SVG Version: 6.00 Build 0)  -->
<!DOCTYPE svg PUBLIC "-//W3C//DTD SVG 1.1//EN" "http://www.w3.org/Graphics/SVG/1.1/DTD/svg11.dtd">
<svg version="1.1" id="Слой_1" xmlns="http://www.w3.org/2000/svg" xmlns:xlink="http://www.w3.org/1999/xlink" x="0px" y="0px"
	 width="16px" height="16px" viewBox="0 0 16 16" enable-background="new 0 0 16 16" xml:space="preserve">
<g>
	<path fill="none" stroke="#878787" stroke-miterlimit="10" d="M13.422,4.572c-0.048-2.041-1.549-3.677-3.394-3.677
		c-1.083,0-2.045,0.563-2.668,1.437c-0.349-0.5-0.895-0.822-1.509-0.822c-1.053,0-1.907,0.948-1.907,2.119
		c0,0.102,0.007,0.203,0.02,0.301c-0.161-0.033-0.326-0.05-0.494-0.05c-1.527,0-2.765,1.376-2.765,3.071
		c0,1.698,1.238,3.074,2.765,3.074h1.423h6.238h1.704l0,0c1.374-0.004,2.485-1.24,2.485-2.765
		C15.321,5.957,14.512,4.866,13.422,4.572z"/>
	<path fill="#36A9E1" stroke="#FFFFFF" stroke-width="0.25" stroke-miterlimit="10" d="M6.636,5.259l0.042,5.499
		c0,0-2.025-0.099-2.329,0.637c-0.2,0.481,1.348,2.149,1.348,2.149s1.835,1.844,2.355,1.84c0.466-0.005,1.888-1.458,1.888-1.458
		s2.071-2.116,1.734-2.681c-0.359-0.604-2.295-0.515-2.295-0.515L9.338,5.232c0,0-0.32-0.579-1.293-0.57
		C7.191,4.67,6.636,5.259,6.636,5.259z"/>
</g>
</svg>
