<?xml version="1.0" encoding="utf-8"?>
<!-- Generator: Adobe Illustrator 15.0.0, SVG Export Plug-In . SVG Version: 6.00 Build 0)  -->
<!DOCTYPE svg PUBLIC "-//W3C//DTD SVG 1.1//EN" "http://www.w3.org/Graphics/SVG/1.1/DTD/svg11.dtd">
<svg version="1.1" id="Слой_1" xmlns="http://www.w3.org/2000/svg" xmlns:xlink="http://www.w3.org/1999/xlink" x="0px" y="0px"
	 width="16px" height="16px" viewBox="0 0 16 16" enable-background="new 0 0 16 16" xml:space="preserve">
<g>
	<g>
		<g>
			<path fill="#808184" d="M3.581,0.944c-0.516,0-0.935,0.399-0.935,0.893v8.91c0,0.494,0.418,0.893,0.935,0.893h11.489
				c0.512,0,0.931-0.398,0.931-0.893v-8.91c0-0.494-0.419-0.893-0.931-0.893H3.581z"/>
			<path fill="#FFFFFF" d="M4.346,2.351c-0.446,0-0.811,0.292-0.811,0.653v6.532c0,0.36,0.364,0.654,0.811,0.654h9.958
				c0.445,0,0.807-0.294,0.807-0.654V3.004c0-0.361-0.361-0.653-0.807-0.653H4.346z"/>
		</g>
		<rect x="7.301" y="11.961" fill="#808184" width="4.044" height="1.056"/>
		<path fill="#808184" d="M12.973,13.776c0,0.445-0.442,0.808-0.986,0.808H6.661c-0.545,0-0.987-0.362-0.987-0.808l0,0
			c0-0.445,0.441-0.808,0.987-0.808h5.326C12.53,12.969,12.973,13.331,12.973,13.776L12.973,13.776z"/>
	</g>
	<path fill="#95C11F" d="M2.477,7.594c0,0-2.274,0.187-2.625-0.964C-0.375,5.88,1.35,3.244,1.35,3.244S3.4,0.326,3.983,0.326
		c0.526,0,2.132,2.255,2.132,2.255S8.46,5.866,8.086,6.756c-0.399,0.95-2.574,0.84-2.574,0.84s0.15,4.214,3.785,6.444
		c0.774,0.472-2.266,0.47-3.537-0.59C3.228,11.338,2.477,7.594,2.477,7.594z"/>
</g>
</svg>
