<?xml version="1.0" encoding="utf-8"?>
<!-- Generator: Adobe Illustrator 15.0.0, SVG Export Plug-In . SVG Version: 6.00 Build 0)  -->
<!DOCTYPE svg PUBLIC "-//W3C//DTD SVG 1.1//EN" "http://www.w3.org/Graphics/SVG/1.1/DTD/svg11.dtd">
<svg version="1.1" id="Слой_1" xmlns="http://www.w3.org/2000/svg" xmlns:xlink="http://www.w3.org/1999/xlink" x="0px" y="0px"
	 width="16px" height="16px" viewBox="0 0 16 16" enable-background="new 0 0 16 16" xml:space="preserve">
<g>
	<g>
		<path fill="#36A9E1" d="M9.395,0.541c3.627,0,6.566,3.419,6.566,7.639c0,4.22-2.939,7.639-6.566,7.639
			c-3.625,0-6.565-3.421-6.565-7.639C2.83,3.96,5.77,0.541,9.395,0.541L9.395,0.541z M14.75,5.34h-2.039
			c0.139,0.74,0.225,1.537,0.248,2.37h2.305C15.215,6.869,15.037,6.069,14.75,5.34L14.75,5.34z M12.309,5.34H9.857v2.37h2.73
			C12.561,6.869,12.463,6.069,12.309,5.34L12.309,5.34z M9.029,5.34H6.483C6.328,6.069,6.23,6.87,6.204,7.709h2.826V5.34L9.029,5.34
			z M6.08,5.34H4.041c-0.287,0.729-0.465,1.53-0.515,2.37h2.305C5.855,6.877,5.942,6.08,6.08,5.34L6.08,5.34z M4.496,4.391h1.799
			c0.295-1.1,0.713-2.029,1.213-2.697C6.266,2.184,5.208,3.143,4.496,4.391L4.496,4.391z M6.732,4.391h2.297V1.379
			C8.069,1.614,7.241,2.754,6.732,4.391L6.732,4.391z M9.857,4.391h2.203c-0.492-1.583-1.285-2.702-2.203-2.986V4.391L9.857,4.391z
			 M12.496,4.391h1.799c-0.713-1.249-1.77-2.208-3.014-2.697C11.783,2.362,12.201,3.292,12.496,4.391L12.496,4.391z M15.264,8.657
			h-2.305c-0.023,0.835-0.111,1.632-0.25,2.375h2.037C15.033,10.3,15.215,9.5,15.264,8.657L15.264,8.657z M12.588,8.657h-2.73v2.375
			h2.447C12.461,10.3,12.559,9.5,12.588,8.657L12.588,8.657z M9.029,8.657H6.204C6.231,9.5,6.33,10.3,6.487,11.032h2.542V8.657
			L9.029,8.657z M5.832,8.657H3.527c0.05,0.843,0.23,1.643,0.52,2.375h2.037C5.944,10.289,5.855,9.492,5.832,8.657L5.832,8.657z
			 M9.857,11.979v2.975c0.916-0.285,1.707-1.397,2.199-2.975H9.857L9.857,11.979z M9.029,14.979v-3H6.736
			C7.244,13.61,8.073,14.746,9.029,14.979L9.029,14.979z M14.289,11.979h-1.795c-0.295,1.094-0.713,2.018-1.213,2.686
			C12.52,14.177,13.576,13.223,14.289,11.979L14.289,11.979z M6.297,11.979H4.501c0.715,1.243,1.769,2.197,3.006,2.686
			C7.009,13.997,6.592,13.073,6.297,11.979z"/>
	</g>
	<path fill="#95C11F" d="M2.659,9.716c0,0-2.252,0.161-2.599-0.826c-0.226-0.646,1.483-2.911,1.483-2.911S3.575,3.47,4.151,3.47
		c0.521,0,2.113,1.938,2.113,1.938s2.322,2.825,1.952,3.589C7.821,9.814,5.667,9.72,5.667,9.72s0.148,3.621,3.75,5.538
		c0.766,0.406-2.247,0.4-3.504-0.51C3.405,12.937,2.659,9.716,2.659,9.716z"/>
</g>
</svg>
