<?xml version="1.0" encoding="utf-8"?>
<!-- Generator: Adobe Illustrator 15.0.0, SVG Export Plug-In . SVG Version: 6.00 Build 0)  -->
<!DOCTYPE svg PUBLIC "-//W3C//DTD SVG 1.1//EN" "http://www.w3.org/Graphics/SVG/1.1/DTD/svg11.dtd">
<svg version="1.1" id="Слой_1" xmlns="http://www.w3.org/2000/svg" xmlns:xlink="http://www.w3.org/1999/xlink" x="0px" y="0px"
	 width="16px" height="16px" viewBox="0 0 16 16" enable-background="new 0 0 16 16" xml:space="preserve">
<g>
	<path fill="#36A9E1" d="M8.005,9.239c2.556,0,4.632-2.07,4.632-4.618C12.637,2.07,10.561,0,8.005,0S3.37,2.07,3.37,4.621
		C3.37,7.169,5.449,9.239,8.005,9.239z M10.029,1.712c0.152,1.057,0.946,2.552,1.755,3.292c-0.172,1.928-1.796,3.445-3.771,3.445
		c-2.822,0-3.707-2.479-3.789-3.832c0.007-0.484,0.105-0.947,0.278-1.372C5.547,3.152,9.835,2.295,10.029,1.712z"/>
	<path fill="#36A9E1" d="M11.495,8.447c-0.922,0.834-2.133,1.347-3.466,1.355V9.8C8.019,9.8,8.01,9.803,8,9.803
		C7.992,9.803,7.982,9.8,7.975,9.8v0.003c-1.335-0.009-2.55-0.521-3.466-1.355c-1.682,0.313-2.954,1.777-2.954,3.544V16h6.42h0.055
		h6.416v-4.009C14.445,10.225,13.173,8.76,11.495,8.447z"/>
</g>
</svg>
