<?xml version="1.0" encoding="utf-8"?>
<!-- Generator: Adobe Illustrator 15.0.0, SVG Export Plug-In . SVG Version: 6.00 Build 0)  -->
<!DOCTYPE svg PUBLIC "-//W3C//DTD SVG 1.1//EN" "http://www.w3.org/Graphics/SVG/1.1/DTD/svg11.dtd">
<svg version="1.1" id="Слой_1" xmlns="http://www.w3.org/2000/svg" xmlns:xlink="http://www.w3.org/1999/xlink" x="0px" y="0px"
	 width="16px" height="16px" viewBox="0 0 16 16" enable-background="new 0 0 16 16" xml:space="preserve">
<g>
	<g>
		<g>
			<path fill="#808184" d="M13.055,2.974l-2.158-2.059c-0.471-0.45-1.399-0.816-2.064-0.816H1.579c-0.664,0-1.208,0.52-1.208,1.153
				v12.459c0,0.635,0.544,1.153,1.208,1.153H12.7c0.665,0,1.209-0.519,1.209-1.153V4.943C13.909,4.31,13.525,3.423,13.055,2.974z
				 M12.371,3.626c0.047,0.046,0.094,0.101,0.141,0.164h-2.471V1.433c0.065,0.044,0.124,0.089,0.171,0.134L12.371,3.626z
				 M12.941,13.711c0,0.125-0.109,0.231-0.241,0.231H1.579c-0.13,0-0.242-0.106-0.242-0.231V1.252c0-0.125,0.111-0.23,0.242-0.23
				h7.253c0.073,0,0.154,0.009,0.242,0.024v3.667h3.842c0.017,0.083,0.025,0.161,0.025,0.23V13.711z"/>
		</g>
		<rect x="2.847" y="7.032" fill="#808184" width="8.585" height="0.9"/>
		<rect x="2.847" y="9.878" fill="#808184" width="8.585" height="0.899"/>
	</g>
	<g>
		<ellipse fill="#FFFFFF" cx="11.433" cy="10.777" rx="2.646" ry="2.991"/>
		<path fill="#36A9E1" d="M11.652,12.075l-0.967-1.093c-0.104-0.104-0.172-0.247-0.172-0.415V8.341h0.994v1.992l0.843,0.954
			L11.652,12.075z M11.433,5.933c-2.318,0-4.197,2.169-4.197,4.843c0,2.675,1.879,4.845,4.197,4.845c2.317,0,4.197-2.17,4.197-4.845
			C15.63,8.103,13.75,5.933,11.433,5.933z"/>
	</g>
</g>
</svg>
