<?xml version="1.0" encoding="utf-8"?>
<!-- Generator: Adobe Illustrator 15.0.0, SVG Export Plug-In . SVG Version: 6.00 Build 0)  -->
<!DOCTYPE svg PUBLIC "-//W3C//DTD SVG 1.1//EN" "http://www.w3.org/Graphics/SVG/1.1/DTD/svg11.dtd">
<svg version="1.1" id="Слой_1" xmlns="http://www.w3.org/2000/svg" xmlns:xlink="http://www.w3.org/1999/xlink" x="0px" y="0px"
	 width="16px" height="16px" viewBox="0 0 16 16" enable-background="new 0 0 16 16" xml:space="preserve">
<g>
	<path fill="#808184" stroke="#FFFFFF" stroke-width="0.25" stroke-miterlimit="10" d="M11.212,9.323L9.776,7.933V5.03H8.088v3.243
		c0,0.246,0.116,0.455,0.291,0.605l1.646,1.592L11.212,9.323z"/>
	<g>
		<path fill="#808184" stroke="#FFFFFF" stroke-width="0.25" stroke-miterlimit="10" d="M6.545,12.069
			c2.099,1.352,4.917,0.629,6.284-1.615c1.368-2.246,0.771-5.17-1.328-6.522C9.402,2.58,6.584,3.302,5.216,5.548L4.498,6.755
			l0.915-0.234l0.47,2.306l-4.728,1.211L0.163,5.14l2.222-0.57l0.192,0.959l0.735-1.207c2.053-3.37,6.273-4.457,9.427-2.425
			c3.155,2.032,4.046,6.413,1.993,9.784c-2.052,3.369-6.273,4.455-9.428,2.422L6.545,12.069z"/>
	</g>
</g>
</svg>
