<?xml version="1.0" encoding="UTF-8" standalone="no"?>
<!-- Generator: Adobe Illustrator 15.0.0, SVG Export Plug-In . SVG Version: 6.00 Build 0)  -->

<svg
   xmlns:dc="http://purl.org/dc/elements/1.1/"
   xmlns:cc="http://creativecommons.org/ns#"
   xmlns:rdf="http://www.w3.org/1999/02/22-rdf-syntax-ns#"
   xmlns:svg="http://www.w3.org/2000/svg"
   xmlns="http://www.w3.org/2000/svg"
   xmlns:sodipodi="http://sodipodi.sourceforge.net/DTD/sodipodi-0.dtd"
   xmlns:inkscape="http://www.inkscape.org/namespaces/inkscape"
   version="1.1"
   id="Слой_1"
   x="0px"
   y="0px"
   width="16px"
   height="16px"
   viewBox="0 0 16 16"
   enable-background="new 0 0 16 16"
   xml:space="preserve"
   inkscape:version="0.48.4 r9939"
   sodipodi:docname="viewd.svg"><metadata
   id="metadata27"><rdf:RDF><cc:Work
       rdf:about=""><dc:format>image/svg+xml</dc:format><dc:type
         rdf:resource="http://purl.org/dc/dcmitype/StillImage" /></cc:Work></rdf:RDF></metadata><defs
   id="defs25" /><sodipodi:namedview
   pagecolor="#ffffff"
   bordercolor="#666666"
   borderopacity="1"
   objecttolerance="10"
   gridtolerance="10"
   guidetolerance="10"
   inkscape:pageopacity="0"
   inkscape:pageshadow="2"
   inkscape:window-width="1280"
   inkscape:window-height="962"
   id="namedview23"
   showgrid="false"
   inkscape:zoom="14.75"
   inkscape:cx="-1.1864407"
   inkscape:cy="8"
   inkscape:window-x="-8"
   inkscape:window-y="-8"
   inkscape:window-maximized="1"
   inkscape:current-layer="Слой_1" />
<g
   id="g3"
   transform="matrix(1.0088908,0,0,1.0862481,-0.07062263,-0.69052792)">
	<g
   id="g5">
		<path
   d="M 14.688,1.096 H 1.313 C 0.628,1.096 0.07,1.581 0.07,2.179 v 11.643 c 0,0.597 0.558,1.083 1.243,1.083 h 13.375 c 0.684,0 1.241,-0.486 1.241,-1.083 V 2.178 C 15.93,1.581 15.372,1.096 14.688,1.096 z"
   id="path7"
   inkscape:connector-curvature="0"
   style="fill:#808184" />
		<ellipse
   cx="13.844"
   cy="2.793"
   rx="0.53299999"
   ry="0.46399999"
   id="ellipse9"
   sodipodi:cx="13.844"
   sodipodi:cy="2.793"
   sodipodi:rx="0.53299999"
   sodipodi:ry="0.46399999"
   style="fill:#f5f5f5"
   d="m 14.377,2.793 c 0,0.2562601 -0.238632,0.464 -0.533,0.464 -0.294368,0 -0.533,-0.2077399 -0.533,-0.464 0,-0.2562601 0.238632,-0.464 0.533,-0.464 0.294368,0 0.533,0.2077399 0.533,0.464 z" />
		<ellipse
   cx="11.936"
   cy="2.793"
   rx="0.53299999"
   ry="0.46399999"
   id="ellipse11"
   sodipodi:cx="11.936"
   sodipodi:cy="2.793"
   sodipodi:rx="0.53299999"
   sodipodi:ry="0.46399999"
   style="fill:#f5f5f5"
   d="m 12.469,2.793 c 0,0.2562601 -0.238632,0.464 -0.533,0.464 -0.294368,0 -0.533,-0.2077399 -0.533,-0.464 0,-0.2562601 0.238632,-0.464 0.533,-0.464 0.294368,0 0.533,0.2077399 0.533,0.464 z" />
		<polygon
   points="1.49,4.41 14.51,4.41 14.51,13.667 14.51,13.667 1.49,13.667 "
   id="polygon13"
   style="fill:#ffffff" />
	</g>
	<rect
   x="3.191"
   y="6.4819999"
   width="9.7019997"
   height="0.85000002"
   id="rect15"
   style="fill:#36a9e1" />
	<rect
   x="3.191"
   y="8.0979996"
   width="9.7019997"
   height="0.84899998"
   id="rect17"
   style="fill:#36a9e1" />
	<rect
   x="3.191"
   y="9.802"
   width="9.7019997"
   height="0.85000002"
   id="rect19"
   style="fill:#36a9e1" />
	<rect
   x="3.191"
   y="11.419"
   width="9.7019997"
   height="0.84899998"
   id="rect21"
   style="fill:#36a9e1" />
</g>
</svg>