<?xml version="1.0" encoding="utf-8"?>
<!-- Generator: Adobe Illustrator 15.0.0, SVG Export Plug-In . SVG Version: 6.00 Build 0)  -->
<!DOCTYPE svg PUBLIC "-//W3C//DTD SVG 1.1//EN" "http://www.w3.org/Graphics/SVG/1.1/DTD/svg11.dtd">
<svg version="1.1" id="Слой_1" xmlns="http://www.w3.org/2000/svg" xmlns:xlink="http://www.w3.org/1999/xlink" x="0px" y="0px"
	 width="16px" height="16px" viewBox="0 0 16 16" enable-background="new 0 0 16 16" xml:space="preserve">
<g>
	<g>
		<g>
			<path fill="#808184" d="M1.532,0.558c-0.417,0-0.756,0.377-0.756,0.841v8.402c0,0.464,0.339,0.841,0.756,0.841h9.302
				c0.415,0,0.754-0.377,0.754-0.841V1.398c0-0.464-0.339-0.841-0.754-0.841H1.532z"/>
			<path fill="#FFFFFF" d="M2.152,1.024c-0.361,0-0.655,0.34-0.655,0.758v7.568c0,0.418,0.294,0.758,0.655,0.758h8.063
				c0.36,0,0.653-0.34,0.653-0.758V1.782c0-0.418-0.293-0.758-0.653-0.758H2.152z"/>
			<rect x="2.289" y="2.495" fill="#808184" width="7.814" height="0.53"/>
			<rect x="2.346" y="4.62" fill="#808184" width="7.813" height="0.531"/>
			<rect x="2.346" y="6.677" fill="#808184" width="7.813" height="0.532"/>
			<rect x="2.346" y="8.405" fill="#808184" width="7.813" height="0.531"/>
		</g>
		<g>
			<path fill="#808184" d="M5.913,3.894c-0.417,0-0.755,0.376-0.755,0.839v8.404c0,0.463,0.339,0.841,0.755,0.841h9.301
				c0.416,0,0.755-0.378,0.755-0.841V4.733c0-0.463-0.339-0.839-0.755-0.839H5.913z"/>
			<path fill="#FFFFFF" d="M5.913,4.735h9.3V9.89l-1.818-1.908c-0.092-0.097-0.236-0.095-0.326,0.003l-1.979,2.144L8.318,6.991
				c-0.045-0.05-0.106-0.08-0.17-0.08C8.083,6.913,8.023,6.942,7.979,6.994c0,0-2.039,2.386-2.056,2.407
				c-0.004-0.003-0.006-0.007-0.01-0.008C5.913,9.355,5.913,4.735,5.913,4.735z"/>
			<path fill="#95C11F" d="M5.913,10.404l2.241-2.623l3.208,3.634c0.045,0.051,0.105,0.078,0.168,0.078
				c0.062,0,0.123-0.027,0.168-0.075l0.101-0.111c0.093-0.103,0.093-0.268,0.002-0.372l-0.281-0.318l1.718-1.86l1.976,2.074v2.305
				h-9.3V10.404z"/>
			<ellipse fill="#F9B233" cx="10.923" cy="6.673" rx="1.098" ry="1.224"/>
		</g>
	</g>
	<path fill="#36A9E1" d="M7.909,10.187c0,1.863-1.313,3.378-2.92,3.378c-0.385,0-0.751-0.091-1.088-0.248l-2.251,2.605L0.031,14.05
		l2.25-2.604c-0.135-0.391-0.214-0.813-0.214-1.26c0-1.863,1.311-3.378,2.921-3.378C6.598,6.808,7.91,8.323,7.909,10.187z
		 M6.924,10.187c0-1.236-0.868-2.241-1.936-2.241c-1.068,0-1.938,1.005-1.938,2.241c0,1.236,0.87,2.238,1.938,2.238
		C6.056,12.425,6.924,11.423,6.924,10.187z"/>
</g>
</svg>
