<?xml version="1.0" encoding="utf-8"?>
<!-- Generator: Adobe Illustrator 15.0.0, SVG Export Plug-In . SVG Version: 6.00 Build 0)  -->
<!DOCTYPE svg PUBLIC "-//W3C//DTD SVG 1.1//EN" "http://www.w3.org/Graphics/SVG/1.1/DTD/svg11.dtd">
<svg version="1.1" id="Слой_1" xmlns="http://www.w3.org/2000/svg" xmlns:xlink="http://www.w3.org/1999/xlink" x="0px" y="0px"
	 width="16px" height="16px" viewBox="0 0 16 16" enable-background="new 0 0 16 16" xml:space="preserve">
<g>
	<path fill="#F9B233" d="M15.572,5.532l-2.762,7.058c-0.174,0.494-0.525,0.686-0.687,0.686l-10.65,0.002
		c-0.431,0-0.782-0.473-0.782-1.057l0.014-9.06L0.701,0.484C0.7,0.357,0.737,0.233,0.803,0.142C0.871,0.051,0.962,0,1.057,0h2.77
		c0.148,0,0.28,0.124,0.333,0.309l0.506,1.796c0,0,6.126,0.022,8.705,0.118c0.125,0.005,0.425-0.065,0.62,0.148
		c0.159,0.175,0.132,0.174,0.129,0.502c-0.005,0.442,0.096,1.681,0,2.331L13.465,5.25c0,0,0.16-2.107,0.117-2.158
		C13.539,3.044,4.42,3.067,4.42,3.067c-0.148,0-0.28-0.122-0.333-0.309L3.582,0.962H1.406v2.195v9.064
		c0,0.051,0.031,0.094,0.069,0.094h0.838l2.483-6.783c0.14-0.379,0.405-0.685,0.685-0.685h0.396H8.84h0.613
		c1.41,0.013,5.611,0,5.611,0C15.346,4.847,15.736,5.102,15.572,5.532z"/>
	<path fill="#F9B233" d="M12.777,15.24c0,0.223-0.295,0.404-0.658,0.404H1.793c-0.363,0-0.658-0.183-0.658-0.404l0,0
		c0-0.223,0.295-0.403,0.658-0.403h10.326C12.482,14.837,12.777,15.018,12.777,15.24L12.777,15.24z"/>
	<path fill="#F9B233" d="M7.631,15.309c0,0.187-0.151,0.336-0.337,0.336l0,0c-0.187,0-0.337-0.149-0.337-0.336v-2.881
		c0-0.186,0.151-0.334,0.337-0.334l0,0c0.187,0,0.337,0.148,0.337,0.334V15.309z"/>
</g>
<polygon fill="#95C11F" points="2.142,8.117 4.659,11.679 8.323,5.861 10.027,7.021 4.789,15.645 0.365,9.346 "/>
</svg>
