<?xml version="1.0" encoding="utf-8"?>
<!-- Generator: Adobe Illustrator 15.0.0, SVG Export Plug-In . SVG Version: 6.00 Build 0)  -->
<!DOCTYPE svg PUBLIC "-//W3C//DTD SVG 1.1//EN" "http://www.w3.org/Graphics/SVG/1.1/DTD/svg11.dtd">
<svg version="1.1" id="Слой_1" xmlns="http://www.w3.org/2000/svg" xmlns:xlink="http://www.w3.org/1999/xlink" x="0px" y="0px"
	 width="16px" height="16px" viewBox="0 0 16 16" enable-background="new 0 0 16 16" xml:space="preserve">
<g>
	<g>
		<path fill="#808184" d="M14.3,0.491H1.509c-0.657,0-1.187,0.442-1.187,0.985v10.581c0,0.543,0.53,0.984,1.187,0.984H14.3
			c0.655,0,1.189-0.441,1.189-0.984V1.477C15.489,0.933,14.955,0.491,14.3,0.491z"/>
		<ellipse fill="#F5F5F5" cx="13.493" cy="2.033" rx="0.511" ry="0.422"/>
		<ellipse fill="#F5F5F5" cx="11.669" cy="2.033" rx="0.511" ry="0.422"/>
		<polygon fill="#FFFFFF" points="14.13,11.917 1.678,11.917 1.678,3.503 14.13,3.503 14.13,11.917 		"/>
	</g>
	<path fill="#36A9E1" d="M8.258,3.379c-2.427,0-4.4,2.095-4.4,4.67c0,0.615,0.121,1.201,0.322,1.738l-3.392,3.601l2.439,2.585
		l3.395-3.6c0.505,0.219,1.059,0.345,1.637,0.345c2.425,0,4.404-2.095,4.404-4.668C12.662,5.474,10.685,3.379,8.258,3.379z
		 M8.317,11.12c-1.609,0-2.921-1.388-2.921-3.095s1.312-3.097,2.921-3.097c1.61,0,2.918,1.39,2.918,3.097S9.928,11.12,8.317,11.12z"
		/>
</g>
</svg>
