<?xml version="1.0" encoding="UTF-8" standalone="no"?>
<!-- Generator: Adobe Illustrator 15.0.0, SVG Export Plug-In . SVG Version: 6.00 Build 0)  -->

<svg
   xmlns:dc="http://purl.org/dc/elements/1.1/"
   xmlns:cc="http://creativecommons.org/ns#"
   xmlns:rdf="http://www.w3.org/1999/02/22-rdf-syntax-ns#"
   xmlns:svg="http://www.w3.org/2000/svg"
   xmlns="http://www.w3.org/2000/svg"
   xmlns:sodipodi="http://sodipodi.sourceforge.net/DTD/sodipodi-0.dtd"
   xmlns:inkscape="http://www.inkscape.org/namespaces/inkscape"
   version="1.1"
   id="Слой_1"
   x="0px"
   y="0px"
   width="16px"
   height="16px"
   viewBox="0 0 16 16"
   enable-background="new 0 0 16 16"
   xml:space="preserve"
   inkscape:version="0.48.4 r9939"
   sodipodi:docname="viewg.svg"><metadata
   id="metadata27"><rdf:RDF><cc:Work
       rdf:about=""><dc:format>image/svg+xml</dc:format><dc:type
         rdf:resource="http://purl.org/dc/dcmitype/StillImage" /></cc:Work></rdf:RDF></metadata><defs
   id="defs25" /><sodipodi:namedview
   pagecolor="#ffffff"
   bordercolor="#666666"
   borderopacity="1"
   objecttolerance="10"
   gridtolerance="10"
   guidetolerance="10"
   inkscape:pageopacity="0"
   inkscape:pageshadow="2"
   inkscape:window-width="1280"
   inkscape:window-height="962"
   id="namedview23"
   showgrid="false"
   inkscape:zoom="14.75"
   inkscape:cx="-1.1864407"
   inkscape:cy="8"
   inkscape:window-x="-8"
   inkscape:window-y="-8"
   inkscape:window-maximized="1"
   inkscape:current-layer="Слой_1" />
<g
   id="g3"
   transform="matrix(1.024984,0,0,1.0362694,-0.199872,0.17357536)">
	<g
   id="g5">
		<path
   d="M 14.583,0.315 H 1.418 c -0.674,0 -1.223,0.509 -1.223,1.135 v 12.205 c 0,0.627 0.549,1.135 1.223,1.135 h 13.165 c 0.673,0 1.222,-0.508 1.222,-1.135 V 1.45 c 0,-0.626 -0.549,-1.135 -1.222,-1.135 z"
   id="path7"
   inkscape:connector-curvature="0"
   style="fill:#808184" />
		<ellipse
   cx="13.752"
   cy="2.0940001"
   rx="0.52399999"
   ry="0.48699999"
   id="ellipse9"
   sodipodi:cx="13.752"
   sodipodi:cy="2.0940001"
   sodipodi:rx="0.52399999"
   sodipodi:ry="0.48699999"
   style="fill:#f5f5f5"
   d="m 14.276,2.0940001 c 0,0.2689627 -0.234603,0.487 -0.524,0.487 -0.289397,0 -0.524,-0.2180373 -0.524,-0.487 0,-0.2689627 0.234603,-0.487 0.524,-0.487 0.289397,0 0.524,0.2180373 0.524,0.487 z" />
		<ellipse
   cx="11.873"
   cy="2.0940001"
   rx="0.52499998"
   ry="0.48699999"
   id="ellipse11"
   sodipodi:cx="11.873"
   sodipodi:cy="2.0940001"
   sodipodi:rx="0.52499998"
   sodipodi:ry="0.48699999"
   style="fill:#f5f5f5"
   d="m 12.398,2.0940001 c 0,0.2689627 -0.23505,0.487 -0.525,0.487 -0.289949,0 -0.525,-0.2180373 -0.525,-0.487 0,-0.2689627 0.235051,-0.487 0.525,-0.487 0.28995,0 0.525,0.2180373 0.525,0.487 z" />
		<polygon
   points="14.407,13.49 14.407,13.49 1.593,13.49 1.593,3.789 14.407,3.789 "
   id="polygon13"
   style="fill:#ffffff" />
	</g>
	<rect
   x="3.187"
   y="9.441"
   width="9.5489998"
   height="0.889"
   id="rect15"
   style="fill:#36a9e1" />
	<rect
   x="3.187"
   y="11.135"
   width="9.5489998"
   height="0.89099997"
   id="rect17"
   style="fill:#36a9e1" />
	<rect
   x="4.191"
   y="4.9169998"
   width="2.825"
   height="3.1199999"
   id="rect19"
   style="fill:#f9b233" />
	<rect
   x="8.7159996"
   y="4.9169998"
   width="2.825"
   height="3.1210001"
   id="rect21"
   style="fill:#95c11f" />
</g>
</svg>