<?xml version="1.0" encoding="UTF-8" standalone="no"?>
<!-- Generator: Adobe Illustrator 15.0.0, SVG Export Plug-In . SVG Version: 6.00 Build 0)  -->

<svg
   xmlns:dc="http://purl.org/dc/elements/1.1/"
   xmlns:cc="http://creativecommons.org/ns#"
   xmlns:rdf="http://www.w3.org/1999/02/22-rdf-syntax-ns#"
   xmlns:svg="http://www.w3.org/2000/svg"
   xmlns="http://www.w3.org/2000/svg"
   xmlns:sodipodi="http://sodipodi.sourceforge.net/DTD/sodipodi-0.dtd"
   xmlns:inkscape="http://www.inkscape.org/namespaces/inkscape"
   version="1.1"
   id="Слой_1"
   x="0px"
   y="0px"
   width="16px"
   height="16px"
   viewBox="0 0 16 16"
   enable-background="new 0 0 16 16"
   xml:space="preserve"
   inkscape:version="0.48.4 r9939"
   sodipodi:docname="viewt.svg"><metadata
   id="metadata27"><rdf:RDF><cc:Work
       rdf:about=""><dc:format>image/svg+xml</dc:format><dc:type
         rdf:resource="http://purl.org/dc/dcmitype/StillImage" /></cc:Work></rdf:RDF></metadata><defs
   id="defs25" /><sodipodi:namedview
   pagecolor="#ffffff"
   bordercolor="#666666"
   borderopacity="1"
   objecttolerance="10"
   gridtolerance="10"
   guidetolerance="10"
   inkscape:pageopacity="0"
   inkscape:pageshadow="2"
   inkscape:window-width="1280"
   inkscape:window-height="962"
   id="namedview23"
   showgrid="false"
   inkscape:zoom="14.75"
   inkscape:cx="-10.372881"
   inkscape:cy="8"
   inkscape:window-x="-8"
   inkscape:window-y="-8"
   inkscape:window-maximized="1"
   inkscape:current-layer="Слой_1" />
<g
   id="g3"
   transform="matrix(1.0142631,0,0,0.99608208,-0.17242493,0.11053189)">
	<g
   id="g5">
		<path
   d="M 14.71,0.391 H 1.406 c -0.682,0 -1.236,0.53 -1.236,1.182 v 12.696 c 0,0.651 0.555,1.181 1.236,1.181 H 14.71 c 0.681,0 1.235,-0.529 1.235,-1.181 V 1.572 c 0,-0.652 -0.554,-1.181 -1.235,-1.181 z"
   id="path7"
   inkscape:connector-curvature="0"
   style="fill:#808184" />
		<ellipse
   cx="13.87"
   cy="2.2409999"
   rx="0.53100002"
   ry="0.50599998"
   id="ellipse9"
   sodipodi:cx="13.87"
   sodipodi:cy="2.2409999"
   sodipodi:rx="0.53100002"
   sodipodi:ry="0.50599998"
   style="fill:#f5f5f5"
   d="m 14.401,2.2409999 c 0,0.2794561 -0.237737,0.506 -0.531,0.506 -0.293263,0 -0.531,-0.2265439 -0.531,-0.506 0,-0.279456 0.237737,-0.5059999 0.531,-0.5059999 0.293263,0 0.531,0.2265439 0.531,0.5059999 z" />
		<ellipse
   cx="11.973"
   cy="2.2409999"
   rx="0.52999997"
   ry="0.50599998"
   id="ellipse11"
   sodipodi:cx="11.973"
   sodipodi:cy="2.2409999"
   sodipodi:rx="0.52999997"
   sodipodi:ry="0.50599998"
   style="fill:#f5f5f5"
   d="m 12.503,2.2409999 c 0,0.2794561 -0.23729,0.506 -0.53,0.506 -0.292711,0 -0.53,-0.2265439 -0.53,-0.506 0,-0.279456 0.237289,-0.5059999 0.53,-0.5059999 0.29271,0 0.53,0.2265439 0.53,0.5059999 z" />
		<polygon
   points="1.582,14.099 1.582,4.004 14.532,4.004 14.532,14.099 14.532,14.099 "
   id="polygon13"
   style="fill:#ffffff" />
	</g>
	<rect
   x="4.586"
   y="5.0819998"
   width="2.855"
   height="3.247"
   id="rect15"
   style="fill:#f9b233" />
	<rect
   x="8.6739998"
   y="5.0819998"
   width="2.8559999"
   height="3.247"
   id="rect17"
   style="fill:#36a9e1" />
	<rect
   x="4.586"
   y="9.7729998"
   width="2.855"
   height="3.247"
   id="rect19"
   style="fill:#808184" />
	<rect
   x="8.6739998"
   y="9.7729998"
   width="2.8559999"
   height="3.247"
   id="rect21"
   style="fill:#95c11f" />
</g>
</svg>