<?xml version="1.0" encoding="UTF-8" standalone="no"?>
<svg
   xmlns:dc="http://purl.org/dc/elements/1.1/"
   xmlns:cc="http://creativecommons.org/ns#"
   xmlns:rdf="http://www.w3.org/1999/02/22-rdf-syntax-ns#"
   xmlns:svg="http://www.w3.org/2000/svg"
   xmlns="http://www.w3.org/2000/svg"
   version="1.1"
   viewBox="0 0 16 16"
   style="shape-rendering:geometricPrecision; text-rendering:geometricPrecision; image-rendering:optimizeQuality; fill-rule:evenodd; clip-rule:evenodd"
   height="16px"
   width="16px"
   xml:space="preserve"><g
     transform="matrix(0.39291524,0,0,0.39291524,-61.881533,-3.3269374)"><path
       style="fill:#0093dd"
       d="m 178.07,14.3795 c 7.4918,0.1056 18.4835,8.3206 20.0283,14.7353 -3.2764,8.9721 -14.5452,14.9552 -20.2398,14.5324 -10.5851,0.2643 -19.8698,-12.3046 -20.1868,-14.5853 3.9458,-9.2275 13.5988,-14.703 20.3983,-14.6824 z m -0.185,3.9515 c 5.9262,0 10.732,4.7936 10.732,10.7045 0,5.911 -4.8058,10.7045 -10.732,10.7045 -5.9262,0 -10.732,-4.7935 -10.732,-10.7045 0,-5.9109 4.8058,-10.7045 10.732,-10.7045 z" /><path
       style="fill:#0093dd"
       d="m 177.885,23.1543 c 3.2559,0 5.8963,2.6337 5.8963,5.8812 0,3.2476 -2.6404,5.8812 -5.8963,5.8812 -3.2559,0 -5.8963,-2.6336 -5.8963,-5.8812 0,-0.8626 0.1863,-1.682 0.521,-2.4201 1.076,0.3533 4.053,1.7758 5.3753,2.4084 -0.3557,-1.1607 -1.8463,-5.0051 -2.0207,-5.5149 0.6303,-0.2294 1.3109,-0.3546 2.0207,-0.3546 z" /></g></svg>