<?xml version="1.0" encoding="utf-8"?>
<!-- Generator: Adobe Illustrator 15.0.0, SVG Export Plug-In . SVG Version: 6.00 Build 0)  -->
<!DOCTYPE svg PUBLIC "-//W3C//DTD SVG 1.1//EN" "http://www.w3.org/Graphics/SVG/1.1/DTD/svg11.dtd">
<svg version="1.1" id="Слой_1" xmlns="http://www.w3.org/2000/svg" xmlns:xlink="http://www.w3.org/1999/xlink" x="0px" y="0px"
	 width="16px" height="16px" viewBox="0 0 16 16" enable-background="new 0 0 16 16" xml:space="preserve">
<path fill="#F9B233" d="M12.255,4.907l-0.202,6.721c-0.159,0.459-0.317,0.61-1.624,0.608l-9.665,0.002
	c-0.391,0-0.708-0.438-0.708-0.979l0.012-8.404L0.061,0.372C0.06,0.254,0.093,0.138,0.155,0.054c0.06-0.084,0.143-0.131,0.229-0.131
	h2.515c0.133,0,0.254,0.115,0.302,0.286L3.66,1.875c0,0,5.559,0.021,7.902,0.109c0.112,0.004,0.385-0.061,0.563,0.137
	c0.146,0.164,0.078,0.096,0.115,0.467c0.044,0.408,0.089,1.559,0,2.163l-0.594,0.041c0,0,0.009-1.964-0.031-2.011
	c-0.038-0.043-8.177-0.014-8.177-0.014c-0.136,0-0.254-0.113-0.303-0.287L2.676,0.815H0.701v2.036v8.407
	c0,0.047,0.028,0.087,0.063,0.087h0.76l0.009-6.231c0.09-0.29,0.337-0.572,0.592-0.572L4.76,4.419h2.688h0.557
	c1.28,0.011,3.661,0.097,3.661,0.097C11.92,4.516,12.27,4.442,12.255,4.907z"/>
<g>
	<path fill="#FFFFFF" d="M9.981,5.543c2.925,0,5.296,2.342,5.296,5.229c0,2.888-2.371,5.229-5.296,5.229
		c-2.923,0-5.294-2.342-5.294-5.229S7.059,5.543,9.981,5.543L9.981,5.543z M14.3,8.828h-1.644c0.112,0.507,0.181,1.052,0.2,1.622
		h1.858C14.676,9.874,14.531,9.327,14.3,8.828L14.3,8.828z M12.33,8.828h-1.975v1.622h2.201C12.534,9.874,12.455,9.327,12.33,8.828
		L12.33,8.828z M9.688,8.828H7.634C7.509,9.327,7.429,9.875,7.408,10.45h2.279V8.828L9.688,8.828z M7.309,8.828H5.664
		C5.433,9.327,5.289,9.875,5.248,10.45h1.859C7.127,9.88,7.196,9.335,7.309,8.828L7.309,8.828z M6.03,8.179h1.452
		c0.236-0.752,0.573-1.388,0.979-1.846C7.459,6.668,6.604,7.323,6.03,8.179L6.03,8.179z M7.834,8.179h1.854V6.117
		C8.913,6.277,8.244,7.059,7.834,8.179L7.834,8.179z M10.355,8.179h1.775c-0.397-1.083-1.036-1.849-1.775-2.044V8.179L10.355,8.179z
		 M12.483,8.179h1.451c-0.576-0.855-1.429-1.511-2.431-1.846C11.908,6.791,12.245,7.427,12.483,8.179L12.483,8.179z M14.715,11.1
		h-1.858c-0.021,0.569-0.091,1.116-0.202,1.623h1.643C14.529,12.223,14.676,11.676,14.715,11.1L14.715,11.1z M12.557,11.1h-2.201
		v1.623h1.973C12.454,12.223,12.533,11.676,12.557,11.1L12.557,11.1z M9.688,11.1H7.408c0.022,0.576,0.102,1.123,0.229,1.623h2.051
		V11.1L9.688,11.1z M7.108,11.1H5.25c0.04,0.576,0.185,1.123,0.419,1.623h1.642C7.198,12.216,7.127,11.669,7.108,11.1L7.108,11.1z
		 M10.355,13.372v2.035c0.737-0.194,1.376-0.956,1.773-2.035H10.355L10.355,13.372z M9.688,15.426v-2.054H7.837
		C8.247,14.487,8.915,15.266,9.688,15.426L9.688,15.426z M13.93,13.372H12.48c-0.237,0.749-0.573,1.382-0.977,1.839
		C12.503,14.876,13.354,14.223,13.93,13.372L13.93,13.372z M7.484,13.372H6.036c0.575,0.85,1.426,1.504,2.425,1.839
		C8.058,14.754,7.721,14.121,7.484,13.372z"/>
</g>
<g>
	<path fill="#36A9E1" d="M10.245,5.543c2.923,0,5.295,2.342,5.295,5.229c0,2.888-2.372,5.229-5.295,5.229
		c-2.924,0-5.295-2.342-5.295-5.229S7.321,5.543,10.245,5.543L10.245,5.543z M14.563,8.828h-1.645
		c0.112,0.507,0.182,1.052,0.2,1.622h1.859C14.939,9.874,14.794,9.327,14.563,8.828L14.563,8.828z M12.593,8.828h-1.976v1.622h2.202
		C12.797,9.874,12.718,9.327,12.593,8.828L12.593,8.828z M9.949,8.828H7.897C7.771,9.327,7.692,9.875,7.671,10.45h2.278V8.828
		L9.949,8.828z M7.571,8.828H5.927C5.695,9.327,5.551,9.875,5.511,10.45H7.37C7.39,9.88,7.459,9.335,7.571,8.828L7.571,8.828z
		 M6.293,8.179h1.451c0.237-0.752,0.574-1.388,0.979-1.846C7.721,6.668,6.868,7.323,6.293,8.179L6.293,8.179z M8.097,8.179h1.853
		V6.117C9.176,6.277,8.506,7.059,8.097,8.179L8.097,8.179z M10.617,8.179h1.777c-0.398-1.083-1.037-1.849-1.777-2.044V8.179
		L10.617,8.179z M12.746,8.179h1.45c-0.575-0.855-1.428-1.511-2.43-1.846C12.172,6.791,12.509,7.427,12.746,8.179L12.746,8.179z
		 M14.979,11.1h-1.859c-0.021,0.569-0.09,1.116-0.201,1.623h1.642C14.791,12.223,14.938,11.676,14.979,11.1L14.979,11.1z
		 M12.819,11.1h-2.202v1.623h1.975C12.717,12.223,12.796,11.676,12.819,11.1L12.819,11.1z M9.949,11.1H7.671
		c0.022,0.576,0.102,1.123,0.229,1.623h2.05V11.1L9.949,11.1z M7.372,11.1H5.513c0.039,0.576,0.186,1.123,0.418,1.623h1.643
		C7.461,12.216,7.39,11.669,7.372,11.1L7.372,11.1z M10.617,13.372v2.035c0.738-0.194,1.377-0.956,1.774-2.035H10.617L10.617,13.372
		z M9.949,15.426v-2.054H8.1C8.511,14.487,9.179,15.266,9.949,15.426L9.949,15.426z M14.191,13.372h-1.448
		c-0.237,0.749-0.574,1.382-0.977,1.839C12.766,14.876,13.615,14.223,14.191,13.372L14.191,13.372z M7.747,13.372H6.299
		c0.576,0.85,1.427,1.504,2.425,1.839C8.319,14.754,7.984,14.121,7.747,13.372z"/>
</g>
</svg>
