<?xml version="1.0" encoding="utf-8"?>
<!-- Generator: Adobe Illustrator 15.0.0, SVG Export Plug-In . SVG Version: 6.00 Build 0)  -->
<!DOCTYPE svg PUBLIC "-//W3C//DTD SVG 1.1//EN" "http://www.w3.org/Graphics/SVG/1.1/DTD/svg11.dtd">
<svg version="1.1" id="Слой_1" xmlns="http://www.w3.org/2000/svg" xmlns:xlink="http://www.w3.org/1999/xlink" x="0px" y="0px"
	 width="16px" height="16px" viewBox="0 0 16 16" enable-background="new 0 0 16 16" xml:space="preserve">
<g>
	<line fill="none" stroke="#878787" stroke-miterlimit="10" x1="12.278" y1="12.386" x2="12.278" y2="15.678"/>
	<g>
		<polygon fill="#DADADA" stroke="#878787" stroke-miterlimit="10" points="2.231,0.667 11.141,0.667 11.141,11.86 3.882,11.86 
			3.842,9.208 8.202,9.126 8.202,3.172 2.231,3.081 		"/>
		<polyline fill="none" stroke="#878787" stroke-miterlimit="10" points="8.013,13.963 8.013,11.86 8.073,13.963 		"/>
		<path fill="none" d="M3.321,13.963"/>
		<line fill="none" stroke="#878787" stroke-miterlimit="10" x1="14.056" y1="13.963" x2="2.231" y2="13.963"/>
		<line fill="none" stroke="#878787" stroke-miterlimit="10" x1="2.231" y1="10.401" x2="3.882" y2="10.401"/>
		<line fill="none" stroke="#878787" stroke-miterlimit="10" x1="3.882" y1="11.955" x2="3.882" y2="15.678"/>
		<polygon fill="#F9B233" stroke="#F9B233" stroke-miterlimit="10" points="0.949,8.476 6.079,8.476 6.079,4.17 2.183,4.17 
			2.183,2.487 0.949,2.487 		"/>
	</g>
</g>
<path fill="#95C11F" stroke="#FFFFFF" stroke-width="0.25" stroke-miterlimit="10" d="M13.802,6.084l-0.086,5.456
	c0,0,2.164-0.082,2.485,0.649c0.211,0.479-1.456,2.12-1.456,2.12s-1.975,1.814-2.529,1.806c-0.499-0.008-2.005-1.461-2.005-1.461
	s-2.199-2.118-1.834-2.674c0.387-0.596,2.452-0.49,2.452-0.49l0.087-5.455c0,0,0.344-0.57,1.386-0.553
	C13.213,5.497,13.802,6.084,13.802,6.084z"/>
</svg>
