<?xml version="1.0" encoding="UTF-8" standalone="no"?>
<!-- Generator: Adobe Illustrator 15.0.0, SVG Export Plug-In . SVG Version: 6.00 Build 0)  -->

<svg
   xmlns:dc="http://purl.org/dc/elements/1.1/"
   xmlns:cc="http://creativecommons.org/ns#"
   xmlns:rdf="http://www.w3.org/1999/02/22-rdf-syntax-ns#"
   xmlns:svg="http://www.w3.org/2000/svg"
   xmlns="http://www.w3.org/2000/svg"
   xmlns:sodipodi="http://sodipodi.sourceforge.net/DTD/sodipodi-0.dtd"
   xmlns:inkscape="http://www.inkscape.org/namespaces/inkscape"
   version="1.1"
   id="Слой_1"
   x="0px"
   y="0px"
   width="16px"
   height="16px"
   viewBox="0 0 16 16"
   enable-background="new 0 0 16 16"
   xml:space="preserve"
   inkscape:version="0.48.4 r9939"
   sodipodi:docname="zohoeditor.svg"><metadata
   id="metadata15"><rdf:RDF><cc:Work
       rdf:about=""><dc:format>image/svg+xml</dc:format><dc:type
         rdf:resource="http://purl.org/dc/dcmitype/StillImage" /></cc:Work></rdf:RDF></metadata><defs
   id="defs13" /><sodipodi:namedview
   pagecolor="#ffffff"
   bordercolor="#666666"
   borderopacity="1"
   objecttolerance="10"
   gridtolerance="10"
   guidetolerance="10"
   inkscape:pageopacity="0"
   inkscape:pageshadow="2"
   inkscape:window-width="640"
   inkscape:window-height="480"
   id="namedview11"
   showgrid="false"
   inkscape:zoom="7.375"
   inkscape:cx="5.6858073"
   inkscape:cy="13.093779"
   inkscape:window-x="0"
   inkscape:window-y="0"
   inkscape:window-maximized="0"
   inkscape:current-layer="g3" />
<g
   id="g3">
	<path
   d="M 0.307,3.557 3.445,0.954 C 3.447,0.952 3.451,0.952 3.453,0.949 3.493,0.918 3.537,0.893 3.584,0.878 3.59,0.876 3.596,0.875 3.602,0.873 3.641,0.861 3.681,0.855 3.721,0.854 c 0.004,0 0.008,-0.002 0.012,-0.002 l 11.672,0 0.428,0 0,0.391 0,10.649 c 0,0.004 -0.002,0.008 -0.002,0.012 -0.002,0.038 -0.008,0.074 -0.021,0.11 -0.002,0.006 -0.003,0.012 -0.006,0.016 -0.018,0.043 -0.044,0.084 -0.079,0.12 -0.003,0.002 -0.003,0.005 -0.005,0.008 l -2.9,2.862 c -0.036,0.036 -0.079,0.063 -0.124,0.084 l 0,0.042 -0.19,0 -12.339,0 0,-11.43 0.03,0 C 0.22,3.657 0.253,3.602 0.307,3.557 z m 11.533,0.939 -10.818,0 0,9.869 10.818,0 z M 12.091,3.716 14.460119,1.6142712 3.8444563,1.5663317 1.388,3.716 z m -8.2649092,-2.1299394 0.00788,-0.00964 10.6233985,0 L 14.372,1.634 z M 14.978,11.739 l 0,-9.553 c 0.06233,-0.043831 -2.282,2.082 -2.282,2.082 l 0,9.725 z"
   id="path5"
   inkscape:connector-curvature="0"
   style="fill:#f9b233"
   sodipodi:nodetypes="ccccccscccsccccccccccccccccccccccccccccccccc" />
	<g
   id="g7">
		<path
   fill="#E6332A"
   d="M9.353,11.839v-1.62c0-0.066,0.028-0.16,0.1-0.16h2.259c0.057,0,0.127,0.026,0.127,0.133v3.948    c0,0.16-0.021,0.226-0.105,0.226H0.666c-0.042,0-0.056-0.16-0.035-0.199l4.731-7.219V6.921H3.144v1.582    c0,0.133-0.028,0.238-0.099,0.238H1.018c-0.084,0-0.12-0.052-0.12-0.133V4.647c0-0.174,0.057-0.253,0.127-0.253h10.736    c0.099,0,0.112,0.253,0.057,0.319l-4.64,7.099v0.026H9.353z"
   id="path9" />
	</g>
</g>
</svg>